G04 start of page 11 for group -4078 idx -4078 *
G04 Title: (unknown), bottomsilk *
G04 Creator: pcb 1.99z *
G04 CreationDate: Tue 11 Sep 2012 02:04:04 GMT UTC *
G04 For: ralph *
G04 Format: Gerber/RS-274X *
G04 PCB-Dimensions (mm): 80.00 62.50 *
G04 PCB-Coordinate-Origin: lower left *
%MOMM*%
%FSLAX43Y43*%
%LNBOTTOMSILK*%
%ADD227C,0.200*%
%ADD226C,0.203*%
%ADD225C,0.127*%
%ADD224C,0.150*%
G54D224*X21350Y17550D02*X26450D01*
X20500Y20500D02*X23500D01*
X23650Y17550D02*X22050Y20500D01*
X19350Y30750D02*X24350D01*
X22350D02*X22000Y26500D01*
X19500D02*X22500D01*
X16000Y28400D02*X16950Y26550D01*
X24000Y22500D02*X21100D01*
X20600Y23000D01*
X26550Y23500D02*X23350D01*
G54D225*X5731Y58259D02*Y58650D01*
Y58454D02*X6513D01*
X5731Y57926D02*X6513D01*
X5731Y57672D02*X5868Y57535D01*
X6376D01*
X6513Y57672D02*X6376Y57535D01*
X6513Y57672D02*Y58024D01*
X5731Y57672D02*Y58024D01*
X5828Y57300D02*X6415D01*
X5828D02*X5731Y57203D01*
Y57007D02*Y57203D01*
Y57007D02*X5828Y56909D01*
X6415D01*
X6513Y57007D02*X6415Y56909D01*
X6513Y57007D02*Y57203D01*
X6415Y57300D02*X6513Y57203D01*
X6996Y58259D02*Y58650D01*
Y58454D02*X7778D01*
X6996Y57926D02*X7778D01*
X6996Y57672D02*X7132Y57535D01*
X7641D01*
X7778Y57672D02*X7641Y57535D01*
X7778Y57672D02*Y58024D01*
X6996Y57672D02*Y58024D01*
Y57105D02*Y57300D01*
Y57203D02*X7778D01*
Y57105D02*Y57300D01*
X8296Y58259D02*Y58650D01*
Y58454D02*X9078D01*
X8296Y58024D02*X9078D01*
X8296D02*X8687Y57731D01*
X8296Y57437D01*
X9078D01*
X8296Y56812D02*X8393Y56714D01*
X8296Y56812D02*Y57105D01*
X8393Y57203D02*X8296Y57105D01*
X8393Y57203D02*X8589D01*
X8687Y57105D01*
Y56812D02*Y57105D01*
Y56812D02*X8785Y56714D01*
X8980D01*
X9078Y56812D02*X8980Y56714D01*
X9078Y56812D02*Y57105D01*
X8980Y57203D02*X9078Y57105D01*
X8393Y61800D02*X8296Y61702D01*
Y61507D02*Y61702D01*
Y61507D02*X8393Y61409D01*
X9078Y61507D02*X8980Y61409D01*
X9078Y61507D02*Y61702D01*
X8980Y61800D02*X9078Y61702D01*
X8648Y61507D02*Y61702D01*
X8393Y61409D02*X8550D01*
X8745D02*X8980D01*
X8745D02*X8648Y61507D01*
X8550Y61409D02*X8648Y61507D01*
X8687Y61174D02*X9078Y60979D01*
X8687Y60783D02*X9078Y60979D01*
X8393Y60548D02*X8296Y60450D01*
Y60255D02*Y60450D01*
Y60255D02*X8393Y60157D01*
X9078Y60255D02*X8980Y60157D01*
X9078Y60255D02*Y60450D01*
X8980Y60548D02*X9078Y60450D01*
X8648Y60255D02*Y60450D01*
X8393Y60157D02*X8550D01*
X8745D02*X8980D01*
X8745D02*X8648Y60255D01*
X8550Y60157D02*X8648Y60255D01*
X2040Y58600D02*X1943Y58503D01*
Y58310D02*Y58503D01*
Y58310D02*X2040Y58214D01*
X2715Y58310D02*X2619Y58214D01*
X2715Y58310D02*Y58503D01*
X2619Y58600D02*X2715Y58503D01*
X2291Y58310D02*Y58503D01*
X2040Y58214D02*X2194D01*
X2387D02*X2619D01*
X2387D02*X2291Y58310D01*
X2194Y58214D02*X2291Y58310D01*
X2329Y57982D02*X2715Y57789D01*
X2329Y57596D02*X2715Y57789D01*
X2040Y57365D02*X1943Y57268D01*
Y57075D02*Y57268D01*
Y57075D02*X2040Y56978D01*
X2715Y57075D02*X2619Y56978D01*
X2715Y57075D02*Y57268D01*
X2619Y57365D02*X2715Y57268D01*
X2291Y57075D02*Y57268D01*
X2040Y56978D02*X2194D01*
X2387D02*X2619D01*
X2387D02*X2291Y57075D01*
X2194Y56978D02*X2291Y57075D01*
X3190Y58219D02*X3286Y58124D01*
X3190Y58219D02*Y58505D01*
X3286Y58600D02*X3190Y58505D01*
X3286Y58600D02*X3857D01*
X3952Y58505D01*
Y58219D02*Y58505D01*
Y58219D02*X3857Y58124D01*
X3667D02*X3857D01*
X3572Y58219D02*X3667Y58124D01*
X3572Y58219D02*Y58410D01*
X3190Y57895D02*X3952D01*
X3190D02*X3952Y57419D01*
X3190D02*X3952D01*
X3190Y57095D02*X3952D01*
X3190Y56847D02*X3324Y56714D01*
X3819D01*
X3952Y56847D02*X3819Y56714D01*
X3952Y56847D02*Y57190D01*
X3190Y56847D02*Y57190D01*
X4496Y58259D02*Y58650D01*
Y58454D02*X5278D01*
Y57633D02*Y57887D01*
X5141Y58024D02*X5278Y57887D01*
X4632Y58024D02*X5141D01*
X4632D02*X4496Y57887D01*
Y57633D02*Y57887D01*
Y57398D02*X5278D01*
X4887D02*X4496Y57007D01*
X4887Y57398D02*X5278Y57007D01*
X7046Y61709D02*X7143Y61611D01*
X7046Y61709D02*Y62002D01*
X7143Y62100D02*X7046Y62002D01*
X7143Y62100D02*X7730D01*
X7828Y62002D01*
Y61709D02*Y62002D01*
Y61709D02*X7730Y61611D01*
X7535D02*X7730D01*
X7437Y61709D02*X7535Y61611D01*
X7437Y61709D02*Y61904D01*
X7046Y61376D02*X7828D01*
X7046D02*X7828Y60887D01*
X7046D02*X7828D01*
X7046Y60555D02*X7828D01*
X7046Y60301D02*X7182Y60164D01*
X7691D01*
X7828Y60301D02*X7691Y60164D01*
X7828Y60301D02*Y60653D01*
X7046Y60301D02*Y60653D01*
X5746Y61459D02*Y61850D01*
Y61459D02*X5843Y61361D01*
X6039D01*
X6137Y61459D02*X6039Y61361D01*
X6137Y61459D02*Y61752D01*
X5746D02*X6528D01*
X6137Y61596D02*X6528Y61361D01*
Y61126D02*X5746Y60637D01*
Y61126D02*X6528Y60637D01*
X4446Y61709D02*X4543Y61611D01*
X4446Y61709D02*Y62002D01*
X4543Y62100D02*X4446Y62002D01*
X4543Y62100D02*X5130D01*
X5228Y62002D01*
Y61709D02*Y62002D01*
Y61709D02*X5130Y61611D01*
X4935D02*X5130D01*
X4837Y61709D02*X4935Y61611D01*
X4837Y61709D02*Y61904D01*
X4446Y61083D02*X4543Y60985D01*
X4446Y61083D02*Y61279D01*
X4543Y61376D02*X4446Y61279D01*
X4543Y61376D02*X5130D01*
X5228Y61279D01*
X4798Y61083D02*X4895Y60985D01*
X4798Y61083D02*Y61376D01*
X5228Y61083D02*Y61279D01*
Y61083D02*X5130Y60985D01*
X4895D02*X5130D01*
X5228Y60653D02*Y60750D01*
X4602Y60418D02*X4446Y60262D01*
X5228D01*
Y60125D02*Y60418D01*
X4543Y59890D02*X4446Y59792D01*
Y59499D02*Y59792D01*
Y59499D02*X4543Y59401D01*
X4739D01*
X5228Y59890D02*X4739Y59401D01*
X5228D02*Y59890D01*
X3196Y61359D02*Y61750D01*
Y61554D02*X3978D01*
Y61124D02*X3196Y60635D01*
Y61124D02*X3978Y60635D01*
X1896Y61659D02*X1993Y61561D01*
X1896Y61659D02*Y61952D01*
X1993Y62050D02*X1896Y61952D01*
X1993Y62050D02*X2580D01*
X2678Y61952D01*
Y61659D02*Y61952D01*
Y61659D02*X2580Y61561D01*
X2385D02*X2580D01*
X2287Y61659D02*X2385Y61561D01*
X2287Y61659D02*Y61854D01*
X1896Y61033D02*X1993Y60935D01*
X1896Y61033D02*Y61229D01*
X1993Y61326D02*X1896Y61229D01*
X1993Y61326D02*X2580D01*
X2678Y61229D01*
X2248Y61033D02*X2345Y60935D01*
X2248Y61033D02*Y61326D01*
X2678Y61033D02*Y61229D01*
Y61033D02*X2580Y60935D01*
X2345D02*X2580D01*
X2678Y60603D02*Y60700D01*
X2052Y60368D02*X1896Y60212D01*
X2678D01*
Y60075D02*Y60368D01*
X1993Y59840D02*X1896Y59742D01*
Y59547D02*Y59742D01*
Y59547D02*X1993Y59449D01*
X2678Y59547D02*X2580Y59449D01*
X2678Y59547D02*Y59742D01*
X2580Y59840D02*X2678Y59742D01*
X2248Y59547D02*Y59742D01*
X1993Y59449D02*X2150D01*
X2345D02*X2580D01*
X2345D02*X2248Y59547D01*
X2150Y59449D02*X2248Y59547D01*
G54D226*X43800Y50950D02*Y49750D01*
X45700Y50950D02*Y49750D01*
G54D227*X56500Y28500D02*X56300D01*
X56500Y27300D02*X56300D01*
X56500Y34750D02*X56300D01*
X56500Y33550D02*X56300D01*
G54D226*X54300Y550D02*X55500D01*
X54300Y2450D02*X55500D01*
G54D225*X45096Y38078D02*X45604D01*
X45731Y38205D01*
Y38459D01*
X45604Y38586D02*X45731Y38459D01*
X45223Y38586D02*X45604D01*
X45223Y38078D02*Y39094D01*
X45426Y38586D02*X45731Y39094D01*
X46036Y38713D02*X46544Y38078D01*
X46036Y38713D02*X46671D01*
X46544Y38078D02*Y39094D01*
X47103D02*X47484Y38586D01*
Y38205D02*Y38586D01*
X47357Y38078D02*X47484Y38205D01*
X47103Y38078D02*X47357D01*
X46976Y38205D02*X47103Y38078D01*
X46976Y38205D02*Y38459D01*
X47103Y38586D01*
X47484D01*
X34932Y43154D02*X35262D01*
X34754Y42976D02*X34932Y43154D01*
X34754Y42316D02*Y42976D01*
Y42316D02*X34932Y42138D01*
X35262D01*
X35567Y42773D02*X36075Y42138D01*
X35567Y42773D02*X36202D01*
X36075Y42138D02*Y43154D01*
X36507Y42265D02*X36634Y42138D01*
X36888D01*
X37015Y42265D01*
X36888Y43154D02*X37015Y43027D01*
X36634Y43154D02*X36888D01*
X36507Y43027D02*X36634Y43154D01*
Y42595D02*X36888D01*
X37015Y42265D02*Y42468D01*
Y42722D02*Y43027D01*
Y42722D02*X36888Y42595D01*
X37015Y42468D02*X36888Y42595D01*
X41830Y31616D02*X42338D01*
X42465Y31743D01*
Y31997D01*
X42338Y32124D02*X42465Y31997D01*
X41957Y32124D02*X42338D01*
X41957Y31616D02*Y32632D01*
X42160Y32124D02*X42465Y32632D01*
X42770Y32251D02*X43278Y31616D01*
X42770Y32251D02*X43405D01*
X43278Y31616D02*Y32632D01*
X43710Y32505D02*X43837Y32632D01*
X43710Y32302D02*Y32505D01*
Y32302D02*X43887Y32124D01*
X44040D01*
X44218Y32302D01*
Y32505D01*
X44091Y32632D02*X44218Y32505D01*
X43837Y32632D02*X44091D01*
X43710Y31946D02*X43887Y32124D01*
X43710Y31743D02*Y31946D01*
Y31743D02*X43837Y31616D01*
X44091D01*
X44218Y31743D01*
Y31946D01*
X44040Y32124D02*X44218Y31946D01*
X41128Y35620D02*X41458D01*
X40950Y35442D02*X41128Y35620D01*
X40950Y34782D02*Y35442D01*
Y34782D02*X41128Y34604D01*
X41458D01*
X41763D02*X42271D01*
X41763D02*Y35112D01*
X41890Y34985D01*
X42144D01*
X42271Y35112D01*
Y35493D01*
X42144Y35620D02*X42271Y35493D01*
X41890Y35620D02*X42144D01*
X41763Y35493D02*X41890Y35620D01*
X42703D02*X43084Y35112D01*
Y34731D02*Y35112D01*
X42957Y34604D02*X43084Y34731D01*
X42703Y34604D02*X42957D01*
X42576Y34731D02*X42703Y34604D01*
X42576Y34731D02*Y34985D01*
X42703Y35112D01*
X43084D01*
X37284Y30728D02*X37792D01*
X37919Y30855D01*
Y31109D01*
X37792Y31236D02*X37919Y31109D01*
X37411Y31236D02*X37792D01*
X37411Y30728D02*Y31744D01*
X37614Y31236D02*X37919Y31744D01*
X38224Y30855D02*X38351Y30728D01*
X38605D01*
X38732Y30855D01*
X38605Y31744D02*X38732Y31617D01*
X38351Y31744D02*X38605D01*
X38224Y31617D02*X38351Y31744D01*
Y31185D02*X38605D01*
X38732Y30855D02*Y31058D01*
Y31312D02*Y31617D01*
Y31312D02*X38605Y31185D01*
X38732Y31058D02*X38605Y31185D01*
X39036Y31617D02*X39163Y31744D01*
X39036Y30855D02*Y31617D01*
Y30855D02*X39163Y30728D01*
X39417D01*
X39544Y30855D01*
Y31617D01*
X39417Y31744D02*X39544Y31617D01*
X39163Y31744D02*X39417D01*
X39036Y31490D02*X39544Y30982D01*
X47628Y44170D02*X47958D01*
X47450Y43992D02*X47628Y44170D01*
X47450Y43332D02*Y43992D01*
Y43332D02*X47628Y43154D01*
X47958D01*
X48263D02*X48771D01*
X48263D02*Y43662D01*
X48390Y43535D01*
X48644D01*
X48771Y43662D01*
Y44043D01*
X48644Y44170D02*X48771Y44043D01*
X48390Y44170D02*X48644D01*
X48263Y44043D02*X48390Y44170D01*
X49076Y44043D02*X49203Y44170D01*
X49076Y43840D02*Y44043D01*
Y43840D02*X49253Y43662D01*
X49406D01*
X49584Y43840D01*
Y44043D01*
X49457Y44170D02*X49584Y44043D01*
X49203Y44170D02*X49457D01*
X49076Y43484D02*X49253Y43662D01*
X49076Y43281D02*Y43484D01*
Y43281D02*X49203Y43154D01*
X49457D01*
X49584Y43281D01*
Y43484D01*
X49406Y43662D02*X49584Y43484D01*
X31078Y35640D02*X31408D01*
X30900Y35462D02*X31078Y35640D01*
X30900Y34802D02*Y35462D01*
Y34802D02*X31078Y34624D01*
X31408D01*
X31713Y34751D02*X31840Y34624D01*
X32094D01*
X32221Y34751D01*
X32094Y35640D02*X32221Y35513D01*
X31840Y35640D02*X32094D01*
X31713Y35513D02*X31840Y35640D01*
Y35081D02*X32094D01*
X32221Y34751D02*Y34954D01*
Y35208D02*Y35513D01*
Y35208D02*X32094Y35081D01*
X32221Y34954D02*X32094Y35081D01*
X32526Y34827D02*X32729Y34624D01*
Y35640D01*
X32526D02*X32907D01*
X25266Y39386D02*X25596D01*
X25088Y39208D02*X25266Y39386D01*
X25088Y38548D02*Y39208D01*
Y38548D02*X25266Y38370D01*
X25596D01*
X25901Y38497D02*X26028Y38370D01*
X26409D01*
X26536Y38497D01*
Y38751D01*
X25901Y39386D02*X26536Y38751D01*
X25901Y39386D02*X26536D01*
X26968D02*X27476Y38370D01*
X26841D02*X27476D01*
X25632Y36648D02*X25962D01*
X25454Y36470D02*X25632Y36648D01*
X25454Y35810D02*Y36470D01*
Y35810D02*X25632Y35632D01*
X25962D01*
X26267Y35759D02*X26394Y35632D01*
X26648D01*
X26775Y35759D01*
X26648Y36648D02*X26775Y36521D01*
X26394Y36648D02*X26648D01*
X26267Y36521D02*X26394Y36648D01*
Y36089D02*X26648D01*
X26775Y35759D02*Y35962D01*
Y36216D02*Y36521D01*
Y36216D02*X26648Y36089D01*
X26775Y35962D02*X26648Y36089D01*
X27207Y36648D02*X27715Y35632D01*
X27080D02*X27715D01*
X28078Y40220D02*X28408D01*
X27900Y40042D02*X28078Y40220D01*
X27900Y39382D02*Y40042D01*
Y39382D02*X28078Y39204D01*
X28408D01*
X28713Y39331D02*X28840Y39204D01*
X29221D01*
X29348Y39331D01*
Y39585D01*
X28713Y40220D02*X29348Y39585D01*
X28713Y40220D02*X29348D01*
X30034Y39204D02*X30161Y39331D01*
X29780Y39204D02*X30034D01*
X29653Y39331D02*X29780Y39204D01*
X29653Y39331D02*Y40093D01*
X29780Y40220D01*
X30034Y39661D02*X30161Y39788D01*
X29653Y39661D02*X30034D01*
X29780Y40220D02*X30034D01*
X30161Y40093D01*
Y39788D02*Y40093D01*
X34946Y33450D02*Y33958D01*
X34819Y34085D01*
X34565D02*X34819D01*
X34438Y33958D02*X34565Y34085D01*
X34438Y33577D02*Y33958D01*
X33930Y33577D02*X34946D01*
X34438Y33780D02*X33930Y34085D01*
X34819Y34390D02*X34946Y34517D01*
Y34898D01*
X34819Y35025D01*
X34565D02*X34819D01*
X33930Y34390D02*X34565Y35025D01*
X33930Y34390D02*Y35025D01*
X31286Y38938D02*X31616D01*
X31108Y38760D02*X31286Y38938D01*
X31108Y38100D02*Y38760D01*
Y38100D02*X31286Y37922D01*
X31616D01*
X31921Y38049D02*X32048Y37922D01*
X32302D01*
X32429Y38049D01*
X32302Y38938D02*X32429Y38811D01*
X32048Y38938D02*X32302D01*
X31921Y38811D02*X32048Y38938D01*
Y38379D02*X32302D01*
X32429Y38049D02*Y38252D01*
Y38506D02*Y38811D01*
Y38506D02*X32302Y38379D01*
X32429Y38252D02*X32302Y38379D01*
X32734Y37922D02*X33242D01*
X32734D02*Y38430D01*
X32861Y38303D01*
X33115D01*
X33242Y38430D01*
Y38811D01*
X33115Y38938D02*X33242Y38811D01*
X32861Y38938D02*X33115D01*
X32734Y38811D02*X32861Y38938D01*
X30482Y45198D02*X30812D01*
X30304Y45020D02*X30482Y45198D01*
X30304Y44360D02*Y45020D01*
Y44360D02*X30482Y44182D01*
X30812D01*
X31117Y44309D02*X31244Y44182D01*
X31625D01*
X31752Y44309D01*
Y44563D01*
X31117Y45198D02*X31752Y44563D01*
X31117Y45198D02*X31752D01*
X32183D02*X32564Y44690D01*
Y44309D02*Y44690D01*
X32437Y44182D02*X32564Y44309D01*
X32183Y44182D02*X32437D01*
X32056Y44309D02*X32183Y44182D01*
X32056Y44309D02*Y44563D01*
X32183Y44690D01*
X32564D01*
X35632Y47254D02*X35962D01*
X35454Y47076D02*X35632Y47254D01*
X35454Y46416D02*Y47076D01*
Y46416D02*X35632Y46238D01*
X35962D01*
X36267Y46873D02*X36775Y46238D01*
X36267Y46873D02*X36902D01*
X36775Y46238D02*Y47254D01*
X37206Y46238D02*X37714D01*
X37206D02*Y46746D01*
X37333Y46619D01*
X37587D01*
X37714Y46746D01*
Y47127D01*
X37587Y47254D02*X37714Y47127D01*
X37333Y47254D02*X37587D01*
X37206Y47127D02*X37333Y47254D01*
X21578Y36666D02*X21908D01*
X21400Y36488D02*X21578Y36666D01*
X21400Y35827D02*Y36488D01*
Y35827D02*X21578Y35650D01*
X21908D01*
X22213Y36285D02*X22721Y35650D01*
X22213Y36285D02*X22848D01*
X22721Y35650D02*Y36666D01*
X23153Y36539D02*X23280Y36666D01*
X23153Y35777D02*Y36539D01*
Y35777D02*X23280Y35650D01*
X23534D01*
X23661Y35777D01*
Y36539D01*
X23534Y36666D02*X23661Y36539D01*
X23280Y36666D02*X23534D01*
X23153Y36412D02*X23661Y35904D01*
X22978Y42620D02*X23308D01*
X22800Y42442D02*X22978Y42620D01*
X22800Y41782D02*Y42442D01*
Y41782D02*X22978Y41604D01*
X23308D01*
X23613Y42239D02*X24121Y41604D01*
X23613Y42239D02*X24248D01*
X24121Y41604D02*Y42620D01*
X24680D02*X25188Y41604D01*
X24553D02*X25188D01*
X44108Y58140D02*X44438D01*
X43930Y57962D02*X44108Y58140D01*
X43930Y57302D02*Y57962D01*
Y57302D02*X44108Y57124D01*
X44438D01*
X44743Y57251D02*X44870Y57124D01*
X45251D01*
X45378Y57251D01*
Y57505D01*
X44743Y58140D02*X45378Y57505D01*
X44743Y58140D02*X45378D01*
X45683Y57251D02*X45810Y57124D01*
X46064D01*
X46191Y57251D01*
X46064Y58140D02*X46191Y58013D01*
X45810Y58140D02*X46064D01*
X45683Y58013D02*X45810Y58140D01*
Y57581D02*X46064D01*
X46191Y57251D02*Y57454D01*
Y57708D02*Y58013D01*
Y57708D02*X46064Y57581D01*
X46191Y57454D02*X46064Y57581D01*
X46056Y49528D02*Y50544D01*
Y49528D02*X46564D01*
X46056Y49986D02*X46438D01*
X46869Y50544D02*X47377D01*
X47504Y50417D01*
Y50112D02*Y50417D01*
X47377Y49986D02*X47504Y50112D01*
X46996Y49986D02*X47377D01*
X46996Y49528D02*Y50544D01*
X46869Y49528D02*X47377D01*
X47504Y49655D01*
Y49858D01*
X47377Y49986D02*X47504Y49858D01*
X47809Y49655D02*X47936Y49528D01*
X48190D01*
X48317Y49655D01*
X48190Y50544D02*X48317Y50417D01*
X47936Y50544D02*X48190D01*
X47809Y50417D02*X47936Y50544D01*
Y49986D02*X48190D01*
X48317Y49655D02*Y49858D01*
Y50112D02*Y50417D01*
Y50112D02*X48190Y49986D01*
X48317Y49858D02*X48190Y49986D01*
X31916Y54202D02*Y55218D01*
Y54202D02*X32551Y55218D01*
Y54202D02*Y55218D01*
X32856Y54405D02*X33059Y54202D01*
Y55218D01*
X32856D02*X33237D01*
X22604Y55986D02*X22934D01*
X22426Y55808D02*X22604Y55986D01*
X22426Y55148D02*Y55808D01*
Y55148D02*X22604Y54970D01*
X22934D01*
X23239Y55097D02*X23366Y54970D01*
X23620D01*
X23747Y55097D01*
X23620Y55986D02*X23747Y55859D01*
X23366Y55986D02*X23620D01*
X23239Y55859D02*X23366Y55986D01*
Y55427D02*X23620D01*
X23747Y55097D02*Y55300D01*
Y55554D02*Y55859D01*
Y55554D02*X23620Y55427D01*
X23747Y55300D02*X23620Y55427D01*
X24052Y55097D02*X24179Y54970D01*
X24560D01*
X24687Y55097D01*
Y55351D01*
X24052Y55986D02*X24687Y55351D01*
X24052Y55986D02*X24687D01*
X21232Y58090D02*X21562D01*
X21054Y57912D02*X21232Y58090D01*
X21054Y57252D02*Y57912D01*
Y57252D02*X21232Y57074D01*
X21562D01*
X21867Y57201D02*X21994Y57074D01*
X22248D01*
X22375Y57201D01*
X22248Y58090D02*X22375Y57963D01*
X21994Y58090D02*X22248D01*
X21867Y57963D02*X21994Y58090D01*
Y57531D02*X22248D01*
X22375Y57201D02*Y57404D01*
Y57658D02*Y57963D01*
Y57658D02*X22248Y57531D01*
X22375Y57404D02*X22248Y57531D01*
X22680Y57963D02*X22807Y58090D01*
X22680Y57760D02*Y57963D01*
Y57760D02*X22857Y57582D01*
X23010D01*
X23188Y57760D01*
Y57963D01*
X23061Y58090D02*X23188Y57963D01*
X22807Y58090D02*X23061D01*
X22680Y57404D02*X22857Y57582D01*
X22680Y57201D02*Y57404D01*
Y57201D02*X22807Y57074D01*
X23061D01*
X23188Y57201D01*
Y57404D01*
X23010Y57582D02*X23188Y57404D01*
X27306Y56144D02*X27636D01*
X27128Y55966D02*X27306Y56144D01*
X27128Y55306D02*Y55966D01*
Y55306D02*X27306Y55128D01*
X27636D01*
X27941Y55255D02*X28068Y55128D01*
X28322D01*
X28449Y55255D01*
X28322Y56144D02*X28449Y56017D01*
X28068Y56144D02*X28322D01*
X27941Y56017D02*X28068Y56144D01*
Y55585D02*X28322D01*
X28449Y55255D02*Y55458D01*
Y55712D02*Y56017D01*
Y55712D02*X28322Y55585D01*
X28449Y55458D02*X28322Y55585D01*
X28881Y56144D02*X29262Y55636D01*
Y55255D02*Y55636D01*
X29135Y55128D02*X29262Y55255D01*
X28881Y55128D02*X29135D01*
X28754Y55255D02*X28881Y55128D01*
X28754Y55255D02*Y55509D01*
X28881Y55636D01*
X29262D01*
X25047Y57185D02*X25555D01*
X25682Y57312D01*
Y57566D01*
X25555Y57693D02*X25682Y57566D01*
X25174Y57693D02*X25555D01*
X25174Y57185D02*Y58201D01*
X25377Y57693D02*X25682Y58201D01*
X25987Y57388D02*X26190Y57185D01*
Y58201D01*
X25987D02*X26368D01*
X26673Y58074D02*X26800Y58201D01*
X26673Y57871D02*Y58074D01*
Y57871D02*X26851Y57693D01*
X27003D01*
X27181Y57871D01*
Y58074D01*
X27054Y58201D02*X27181Y58074D01*
X26800Y58201D02*X27054D01*
X26673Y57516D02*X26851Y57693D01*
X26673Y57312D02*Y57516D01*
Y57312D02*X26800Y57185D01*
X27054D01*
X27181Y57312D01*
Y57516D01*
X27003Y57693D02*X27181Y57516D01*
X28148Y57206D02*X28656D01*
X28783Y57333D01*
Y57587D01*
X28656Y57714D02*X28783Y57587D01*
X28275Y57714D02*X28656D01*
X28275Y57206D02*Y58222D01*
X28478Y57714D02*X28783Y58222D01*
X29088Y57409D02*X29291Y57206D01*
Y58222D01*
X29088D02*X29469D01*
X30155Y57206D02*X30282Y57333D01*
X29901Y57206D02*X30155D01*
X29774Y57333D02*X29901Y57206D01*
X29774Y57333D02*Y58095D01*
X29901Y58222D01*
X30155Y57663D02*X30282Y57790D01*
X29774Y57663D02*X30155D01*
X29901Y58222D02*X30155D01*
X30282Y58095D01*
Y57790D02*Y58095D01*
X32386Y58044D02*X32716D01*
X32208Y57866D02*X32386Y58044D01*
X32208Y57206D02*Y57866D01*
Y57206D02*X32386Y57028D01*
X32716D01*
X33021Y57155D02*X33148Y57028D01*
X33402D01*
X33529Y57155D01*
X33402Y58044D02*X33529Y57917D01*
X33148Y58044D02*X33402D01*
X33021Y57917D02*X33148Y58044D01*
Y57485D02*X33402D01*
X33529Y57155D02*Y57358D01*
Y57612D02*Y57917D01*
Y57612D02*X33402Y57485D01*
X33529Y57358D02*X33402Y57485D01*
X34214Y57028D02*X34341Y57155D01*
X33960Y57028D02*X34214D01*
X33833Y57155D02*X33960Y57028D01*
X33833Y57155D02*Y57917D01*
X33960Y58044D01*
X34214Y57485D02*X34341Y57612D01*
X33833Y57485D02*X34214D01*
X33960Y58044D02*X34214D01*
X34341Y57917D01*
Y57612D02*Y57917D01*
X31224Y53004D02*X31554D01*
X31046Y52826D02*X31224Y53004D01*
X31046Y52166D02*Y52826D01*
Y52166D02*X31224Y51988D01*
X31554D01*
X31859Y52623D02*X32367Y51988D01*
X31859Y52623D02*X32494D01*
X32367Y51988D02*Y53004D01*
X32799Y52115D02*X32926Y51988D01*
X33307D01*
X33434Y52115D01*
Y52369D01*
X32799Y53004D02*X33434Y52369D01*
X32799Y53004D02*X33434D01*
X35128Y58541D02*X35636D01*
X35763Y58668D01*
Y58922D01*
X35636Y59049D02*X35763Y58922D01*
X35255Y59049D02*X35636D01*
X35255Y58541D02*Y59557D01*
X35458Y59049D02*X35763Y59557D01*
X36068Y58745D02*X36271Y58541D01*
Y59557D01*
X36068D02*X36449D01*
X36754Y58668D02*X36881Y58541D01*
X37135D01*
X37262Y58668D01*
X37135Y59557D02*X37262Y59430D01*
X36881Y59557D02*X37135D01*
X36754Y59430D02*X36881Y59557D01*
Y58999D02*X37135D01*
X37262Y58668D02*Y58872D01*
Y59126D02*Y59430D01*
Y59126D02*X37135Y58999D01*
X37262Y58872D02*X37135Y58999D01*
X26649Y60750D02*X27157D01*
X27284Y60877D01*
Y61131D01*
X27157Y61258D02*X27284Y61131D01*
X26776Y61258D02*X27157D01*
X26776Y60750D02*Y61766D01*
X26980Y61258D02*X27284Y61766D01*
X27589Y60954D02*X27792Y60750D01*
Y61766D01*
X27589D02*X27970D01*
X28402D02*X28910Y60750D01*
X28275D02*X28910D01*
X30667Y60777D02*X31175D01*
X31302Y60904D01*
Y61158D01*
X31175Y61285D02*X31302Y61158D01*
X30794Y61285D02*X31175D01*
X30794Y60777D02*Y61793D01*
X30998Y61285D02*X31302Y61793D01*
X31607Y60980D02*X31810Y60777D01*
Y61793D01*
X31607D02*X31988D01*
X32293Y60777D02*X32801D01*
X32293D02*Y61285D01*
X32420Y61158D01*
X32674D01*
X32801Y61285D01*
Y61666D01*
X32674Y61793D02*X32801Y61666D01*
X32420Y61793D02*X32674D01*
X32293Y61666D02*X32420Y61793D01*
X37428Y5620D02*X37758D01*
X37250Y5442D02*X37428Y5620D01*
X37250Y4782D02*Y5442D01*
Y4782D02*X37428Y4604D01*
X37758D01*
X38063D02*X38571D01*
X38063D02*Y5112D01*
X38190Y4985D01*
X38444D01*
X38571Y5112D01*
Y5493D01*
X38444Y5620D02*X38571Y5493D01*
X38190Y5620D02*X38444D01*
X38063Y5493D02*X38190Y5620D01*
X39003D02*X39511Y4604D01*
X38876D02*X39511D01*
X42078Y4620D02*X42408D01*
X41900Y4442D02*X42078Y4620D01*
X41900Y3782D02*Y4442D01*
Y3782D02*X42078Y3604D01*
X42408D01*
X42713D02*X43221D01*
X42713D02*Y4112D01*
X42840Y3985D01*
X43094D01*
X43221Y4112D01*
Y4493D01*
X43094Y4620D02*X43221Y4493D01*
X42840Y4620D02*X43094D01*
X42713Y4493D02*X42840Y4620D01*
X43526Y3807D02*X43729Y3604D01*
Y4620D01*
X43526D02*X43907D01*
X28078Y19470D02*X28408D01*
X27900Y19292D02*X28078Y19470D01*
X27900Y18632D02*Y19292D01*
Y18632D02*X28078Y18454D01*
X28408D01*
X28713Y18657D02*X28916Y18454D01*
Y19470D01*
X28713D02*X29094D01*
X29526D02*X29907Y18962D01*
Y18581D02*Y18962D01*
X29780Y18454D02*X29907Y18581D01*
X29526Y18454D02*X29780D01*
X29399Y18581D02*X29526Y18454D01*
X29399Y18581D02*Y18835D01*
X29526Y18962D01*
X29907D01*
X37278Y7620D02*X37608D01*
X37100Y7442D02*X37278Y7620D01*
X37100Y6782D02*Y7442D01*
Y6782D02*X37278Y6604D01*
X37608D01*
X37913D02*X38421D01*
X37913D02*Y7112D01*
X38040Y6985D01*
X38294D01*
X38421Y7112D01*
Y7493D01*
X38294Y7620D02*X38421Y7493D01*
X38040Y7620D02*X38294D01*
X37913Y7493D02*X38040Y7620D01*
X38726Y7239D02*X39234Y6604D01*
X38726Y7239D02*X39361D01*
X39234Y6604D02*Y7620D01*
X40350Y15102D02*Y16118D01*
Y15102D02*X40985Y16118D01*
Y15102D02*Y16118D01*
X41290Y15737D02*X41798Y15102D01*
X41290Y15737D02*X41925D01*
X41798Y15102D02*Y16118D01*
X42084Y8582D02*X42414D01*
X41906Y8404D02*X42084Y8582D01*
X41906Y7743D02*Y8404D01*
Y7743D02*X42084Y7566D01*
X42414D01*
X42719D02*X43227D01*
X42719D02*Y8074D01*
X42846Y7947D01*
X43100D01*
X43227Y8074D01*
Y8455D01*
X43100Y8582D02*X43227Y8455D01*
X42846Y8582D02*X43100D01*
X42719Y8455D02*X42846Y8582D01*
X43532Y7566D02*X44040D01*
X43532D02*Y8074D01*
X43659Y7947D01*
X43913D01*
X44040Y8074D01*
Y8455D01*
X43913Y8582D02*X44040Y8455D01*
X43659Y8582D02*X43913D01*
X43532Y8455D02*X43659Y8582D01*
X42078Y6570D02*X42408D01*
X41900Y6392D02*X42078Y6570D01*
X41900Y5732D02*Y6392D01*
Y5732D02*X42078Y5554D01*
X42408D01*
X42713D02*X43221D01*
X42713D02*Y6062D01*
X42840Y5935D01*
X43094D01*
X43221Y6062D01*
Y6443D01*
X43094Y6570D02*X43221Y6443D01*
X42840Y6570D02*X43094D01*
X42713Y6443D02*X42840Y6570D01*
X43526Y5681D02*X43653Y5554D01*
X44034D01*
X44161Y5681D01*
Y5935D01*
X43526Y6570D02*X44161Y5935D01*
X43526Y6570D02*X44161D01*
X24200Y18654D02*X24708D01*
X24835Y18781D01*
Y19035D01*
X24708Y19162D02*X24835Y19035D01*
X24327Y19162D02*X24708D01*
X24327Y18654D02*Y19670D01*
X24530Y19162D02*X24835Y19670D01*
X25140Y19289D02*X25648Y18654D01*
X25140Y19289D02*X25775D01*
X25648Y18654D02*Y19670D01*
X26080Y18781D02*X26207Y18654D01*
X26588D01*
X26715Y18781D01*
Y19035D01*
X26080Y19670D02*X26715Y19035D01*
X26080Y19670D02*X26715D01*
X29328Y22020D02*X29658D01*
X29150Y21842D02*X29328Y22020D01*
X29150Y21182D02*Y21842D01*
Y21182D02*X29328Y21004D01*
X29658D01*
X29963Y21639D02*X30471Y21004D01*
X29963Y21639D02*X30598D01*
X30471Y21004D02*Y22020D01*
X31030D02*X31411Y21512D01*
Y21131D02*Y21512D01*
X31284Y21004D02*X31411Y21131D01*
X31030Y21004D02*X31284D01*
X30903Y21131D02*X31030Y21004D01*
X30903Y21131D02*Y21385D01*
X31030Y21512D01*
X31411D01*
X44950Y25754D02*X45458D01*
X45585Y25881D01*
Y26135D01*
X45458Y26262D02*X45585Y26135D01*
X45077Y26262D02*X45458D01*
X45077Y25754D02*Y26770D01*
X45280Y26262D02*X45585Y26770D01*
X45890Y25881D02*X46017Y25754D01*
X46398D01*
X46525Y25881D01*
Y26135D01*
X45890Y26770D02*X46525Y26135D01*
X45890Y26770D02*X46525D01*
X47211Y25754D02*X47338Y25881D01*
X46957Y25754D02*X47211D01*
X46830Y25881D02*X46957Y25754D01*
X46830Y25881D02*Y26643D01*
X46957Y26770D01*
X47211Y26211D02*X47338Y26338D01*
X46830Y26211D02*X47211D01*
X46957Y26770D02*X47211D01*
X47338Y26643D01*
Y26338D02*Y26643D01*
X39950Y24404D02*X40458D01*
X40585Y24531D01*
Y24785D01*
X40458Y24912D02*X40585Y24785D01*
X40077Y24912D02*X40458D01*
X40077Y24404D02*Y25420D01*
X40280Y24912D02*X40585Y25420D01*
X40890Y24531D02*X41017Y24404D01*
X41271D01*
X41398Y24531D01*
X41271Y25420D02*X41398Y25293D01*
X41017Y25420D02*X41271D01*
X40890Y25293D02*X41017Y25420D01*
Y24861D02*X41271D01*
X41398Y24531D02*Y24734D01*
Y24988D02*Y25293D01*
Y24988D02*X41271Y24861D01*
X41398Y24734D02*X41271Y24861D01*
X41703Y24607D02*X41906Y24404D01*
Y25420D01*
X41703D02*X42084D01*
X60978Y28470D02*X61308D01*
X60800Y28292D02*X60978Y28470D01*
X60800Y27632D02*Y28292D01*
Y27632D02*X60978Y27454D01*
X61308D01*
X61740Y28470D02*X62248Y27454D01*
X61613D02*X62248D01*
X62553Y27657D02*X62756Y27454D01*
Y28470D01*
X62553D02*X62934D01*
X59228Y25770D02*X59558D01*
X59050Y25592D02*X59228Y25770D01*
X59050Y24932D02*Y25592D01*
Y24932D02*X59228Y24754D01*
X59558D01*
X60244D02*X60371Y24881D01*
X59990Y24754D02*X60244D01*
X59863Y24881D02*X59990Y24754D01*
X59863Y24881D02*Y25643D01*
X59990Y25770D01*
X60244Y25211D02*X60371Y25338D01*
X59863Y25211D02*X60244D01*
X59990Y25770D02*X60244D01*
X60371Y25643D01*
Y25338D02*Y25643D01*
X60676Y25389D02*X61184Y24754D01*
X60676Y25389D02*X61311D01*
X61184Y24754D02*Y25770D01*
X47816Y30528D02*Y31544D01*
Y30528D02*X48451Y31544D01*
Y30528D02*Y31544D01*
X49137Y30528D02*X49264Y30655D01*
X48883Y30528D02*X49137D01*
X48756Y30655D02*X48883Y30528D01*
X48756Y30655D02*Y31417D01*
X48883Y31544D01*
X49137Y30985D02*X49264Y31112D01*
X48756Y30985D02*X49137D01*
X48883Y31544D02*X49137D01*
X49264Y31417D01*
Y31112D02*Y31417D01*
X50154Y18050D02*X51170D01*
X50154D02*X51170Y17415D01*
X50154D02*X51170D01*
X51043Y17110D02*X51170Y16983D01*
X50840Y17110D02*X51043D01*
X50840D02*X50662Y16932D01*
Y16780D02*Y16932D01*
Y16780D02*X50840Y16602D01*
X51043D01*
X51170Y16729D02*X51043Y16602D01*
X51170Y16729D02*Y16983D01*
X50484Y17110D02*X50662Y16932D01*
X50281Y17110D02*X50484D01*
X50281D02*X50154Y16983D01*
Y16729D02*Y16983D01*
Y16729D02*X50281Y16602D01*
X50484D01*
X50662Y16780D02*X50484Y16602D01*
X60978Y34720D02*X61308D01*
X60800Y34542D02*X60978Y34720D01*
X60800Y33882D02*Y34542D01*
Y33882D02*X60978Y33704D01*
X61308D01*
X61994D02*X62121Y33831D01*
X61740Y33704D02*X61994D01*
X61613Y33831D02*X61740Y33704D01*
X61613Y33831D02*Y34593D01*
X61740Y34720D01*
X61994Y34161D02*X62121Y34288D01*
X61613Y34161D02*X61994D01*
X61740Y34720D02*X61994D01*
X62121Y34593D01*
Y34288D02*Y34593D01*
X62426Y33831D02*X62553Y33704D01*
X62934D01*
X63061Y33831D01*
Y34085D01*
X62426Y34720D02*X63061Y34085D01*
X62426Y34720D02*X63061D01*
X55028Y37220D02*X55358D01*
X54850Y37042D02*X55028Y37220D01*
X54850Y36382D02*Y37042D01*
Y36382D02*X55028Y36204D01*
X55358D01*
X55790Y37220D02*X56298Y36204D01*
X55663D02*X56298D01*
X56603Y36331D02*X56730Y36204D01*
X57111D01*
X57238Y36331D01*
Y36585D01*
X56603Y37220D02*X57238Y36585D01*
X56603Y37220D02*X57238D01*
X60978Y39770D02*X61308D01*
X60800Y39592D02*X60978Y39770D01*
X60800Y38932D02*Y39592D01*
Y38932D02*X60978Y38754D01*
X61308D01*
X61994D02*X62121Y38881D01*
X61740Y38754D02*X61994D01*
X61613Y38881D02*X61740Y38754D01*
X61613Y38881D02*Y39643D01*
X61740Y39770D01*
X61994Y39211D02*X62121Y39338D01*
X61613Y39211D02*X61994D01*
X61740Y39770D02*X61994D01*
X62121Y39643D01*
Y39338D02*Y39643D01*
X62426D02*X62553Y39770D01*
X62426Y38881D02*Y39643D01*
Y38881D02*X62553Y38754D01*
X62807D01*
X62934Y38881D01*
Y39643D01*
X62807Y39770D02*X62934Y39643D01*
X62553Y39770D02*X62807D01*
X62426Y39516D02*X62934Y39008D01*
X46830Y24238D02*X47338D01*
X47465Y24365D01*
Y24619D01*
X47338Y24746D02*X47465Y24619D01*
X46957Y24746D02*X47338D01*
X46957Y24238D02*Y25254D01*
X47160Y24746D02*X47465Y25254D01*
X47770Y24873D02*X48278Y24238D01*
X47770Y24873D02*X48405D01*
X48278Y24238D02*Y25254D01*
X48710Y24365D02*X48837Y24238D01*
X49091D01*
X49218Y24365D01*
X49091Y25254D02*X49218Y25127D01*
X48837Y25254D02*X49091D01*
X48710Y25127D02*X48837Y25254D01*
Y24695D02*X49091D01*
X49218Y24365D02*Y24568D01*
Y24822D02*Y25127D01*
Y24822D02*X49091Y24695D01*
X49218Y24568D02*X49091Y24695D01*
X52513Y22587D02*Y23603D01*
Y22587D02*X53148Y23603D01*
Y22587D02*Y23603D01*
X53453Y22587D02*X53961D01*
X53453D02*Y23095D01*
X53580Y22968D01*
X53834D01*
X53961Y23095D01*
Y23476D01*
X53834Y23603D02*X53961Y23476D01*
X53580Y23603D02*X53834D01*
X53453Y23476D02*X53580Y23603D01*
X49730Y24238D02*X50238D01*
X50365Y24365D01*
Y24619D01*
X50238Y24746D02*X50365Y24619D01*
X49857Y24746D02*X50238D01*
X49857Y24238D02*Y25254D01*
X50060Y24746D02*X50365Y25254D01*
X50670Y24873D02*X51178Y24238D01*
X50670Y24873D02*X51305D01*
X51178Y24238D02*Y25254D01*
X51610Y24873D02*X52118Y24238D01*
X51610Y24873D02*X52245D01*
X52118Y24238D02*Y25254D01*
X54600Y25854D02*Y26870D01*
Y25854D02*X55108D01*
X54600Y26311D02*X54981D01*
X55413Y26870D02*X55921D01*
X56048Y26743D01*
Y26438D02*Y26743D01*
X55921Y26311D02*X56048Y26438D01*
X55540Y26311D02*X55921D01*
X55540Y25854D02*Y26870D01*
X55413Y25854D02*X55921D01*
X56048Y25981D01*
Y26184D01*
X55921Y26311D02*X56048Y26184D01*
X56353Y25981D02*X56480Y25854D01*
X56861D01*
X56988Y25981D01*
Y26235D01*
X56353Y26870D02*X56988Y26235D01*
X56353Y26870D02*X56988D01*
X41328Y23570D02*X41658D01*
X41150Y23392D02*X41328Y23570D01*
X41150Y22732D02*Y23392D01*
Y22732D02*X41328Y22554D01*
X41658D01*
X42344D02*X42471Y22681D01*
X42090Y22554D02*X42344D01*
X41963Y22681D02*X42090Y22554D01*
X41963Y22681D02*Y23443D01*
X42090Y23570D01*
X42344Y23011D02*X42471Y23138D01*
X41963Y23011D02*X42344D01*
X42090Y23570D02*X42344D01*
X42471Y23443D01*
Y23138D02*Y23443D01*
X42776Y22757D02*X42979Y22554D01*
Y23570D01*
X42776D02*X43157D01*
X45528Y29370D02*X45858D01*
X45350Y29192D02*X45528Y29370D01*
X45350Y28532D02*Y29192D01*
Y28532D02*X45528Y28354D01*
X45858D01*
X46544D02*X46671Y28481D01*
X46290Y28354D02*X46544D01*
X46163Y28481D02*X46290Y28354D01*
X46163Y28481D02*Y29243D01*
X46290Y29370D01*
X46544Y28811D02*X46671Y28938D01*
X46163Y28811D02*X46544D01*
X46290Y29370D02*X46544D01*
X46671Y29243D01*
Y28938D02*Y29243D01*
X46976D02*X47103Y29370D01*
X46976Y29040D02*Y29243D01*
Y29040D02*X47153Y28862D01*
X47306D01*
X47484Y29040D01*
Y29243D01*
X47357Y29370D02*X47484Y29243D01*
X47103Y29370D02*X47357D01*
X46976Y28684D02*X47153Y28862D01*
X46976Y28481D02*Y28684D01*
Y28481D02*X47103Y28354D01*
X47357D01*
X47484Y28481D01*
Y28684D01*
X47306Y28862D02*X47484Y28684D01*
X34138Y20220D02*X34646D01*
X34773Y20347D01*
Y20601D01*
X34646Y20728D02*X34773Y20601D01*
X34265Y20728D02*X34646D01*
X34265Y20220D02*Y21236D01*
X34468Y20728D02*X34773Y21236D01*
X35078Y20347D02*X35205Y20220D01*
X35459D01*
X35586Y20347D01*
X35459Y21236D02*X35586Y21109D01*
X35205Y21236D02*X35459D01*
X35078Y21109D02*X35205Y21236D01*
Y20677D02*X35459D01*
X35586Y20347D02*Y20550D01*
Y20804D02*Y21109D01*
Y20804D02*X35459Y20677D01*
X35586Y20550D02*X35459Y20677D01*
X36018Y21236D02*X36399Y20728D01*
Y20347D02*Y20728D01*
X36272Y20220D02*X36399Y20347D01*
X36018Y20220D02*X36272D01*
X35891Y20347D02*X36018Y20220D01*
X35891Y20347D02*Y20601D01*
X36018Y20728D01*
X36399D01*
X45124Y19748D02*X45632D01*
X45759Y19875D01*
Y20129D01*
X45632Y20256D02*X45759Y20129D01*
X45251Y20256D02*X45632D01*
X45251Y19748D02*Y20764D01*
X45454Y20256D02*X45759Y20764D01*
X46064Y20383D02*X46572Y19748D01*
X46064Y20383D02*X46699D01*
X46572Y19748D02*Y20764D01*
X47004Y19748D02*X47512D01*
X47004D02*Y20256D01*
X47131Y20129D01*
X47385D01*
X47512Y20256D01*
Y20637D01*
X47385Y20764D02*X47512Y20637D01*
X47131Y20764D02*X47385D01*
X47004Y20637D02*X47131Y20764D01*
X71876Y45234D02*X72384D01*
X72511Y45361D01*
Y45615D01*
X72384Y45742D02*X72511Y45615D01*
X72003Y45742D02*X72384D01*
X72003Y45234D02*Y46250D01*
X72206Y45742D02*X72511Y46250D01*
X72816Y45361D02*X72943Y45234D01*
X73197D01*
X73324Y45361D01*
X73197Y46250D02*X73324Y46123D01*
X72943Y46250D02*X73197D01*
X72816Y46123D02*X72943Y46250D01*
Y45691D02*X73197D01*
X73324Y45361D02*Y45564D01*
Y45818D02*Y46123D01*
Y45818D02*X73197Y45691D01*
X73324Y45564D02*X73197Y45691D01*
X73629Y45361D02*X73756Y45234D01*
X74010D01*
X74137Y45361D01*
X74010Y46250D02*X74137Y46123D01*
X73756Y46250D02*X74010D01*
X73629Y46123D02*X73756Y46250D01*
Y45691D02*X74010D01*
X74137Y45361D02*Y45564D01*
Y45818D02*Y46123D01*
Y45818D02*X74010Y45691D01*
X74137Y45564D02*X74010Y45691D01*
X71884Y48730D02*X72392D01*
X72519Y48857D01*
Y49111D01*
X72392Y49238D02*X72519Y49111D01*
X72011Y49238D02*X72392D01*
X72011Y48730D02*Y49746D01*
X72214Y49238D02*X72519Y49746D01*
X72824Y48857D02*X72951Y48730D01*
X73332D01*
X73459Y48857D01*
Y49111D01*
X72824Y49746D02*X73459Y49111D01*
X72824Y49746D02*X73459D01*
X73763Y49619D02*X73890Y49746D01*
X73763Y49416D02*Y49619D01*
Y49416D02*X73941Y49238D01*
X74094D01*
X74271Y49416D01*
Y49619D01*
X74144Y49746D02*X74271Y49619D01*
X73890Y49746D02*X74144D01*
X73763Y49060D02*X73941Y49238D01*
X73763Y48857D02*Y49060D01*
Y48857D02*X73890Y48730D01*
X74144D01*
X74271Y48857D01*
Y49060D01*
X74094Y49238D02*X74271Y49060D01*
X71842Y54984D02*X72350D01*
X72477Y55111D01*
Y55365D01*
X72350Y55492D02*X72477Y55365D01*
X71969Y55492D02*X72350D01*
X71969Y54984D02*Y56000D01*
X72172Y55492D02*X72477Y56000D01*
X72782Y55111D02*X72909Y54984D01*
X73290D01*
X73417Y55111D01*
Y55365D01*
X72782Y56000D02*X73417Y55365D01*
X72782Y56000D02*X73417D01*
X73849D02*X74357Y54984D01*
X73722D02*X74357D01*
X55328Y31570D02*X55658D01*
X55150Y31392D02*X55328Y31570D01*
X55150Y30732D02*Y31392D01*
Y30732D02*X55328Y30554D01*
X55658D01*
X56344D02*X56471Y30681D01*
X56090Y30554D02*X56344D01*
X55963Y30681D02*X56090Y30554D01*
X55963Y30681D02*Y31443D01*
X56090Y31570D01*
X56344Y31011D02*X56471Y31138D01*
X55963Y31011D02*X56344D01*
X56090Y31570D02*X56344D01*
X56471Y31443D01*
Y31138D02*Y31443D01*
X56776Y30554D02*X57284D01*
X56776D02*Y31062D01*
X56903Y30935D01*
X57157D01*
X57284Y31062D01*
Y31443D01*
X57157Y31570D02*X57284Y31443D01*
X56903Y31570D02*X57157D01*
X56776Y31443D02*X56903Y31570D01*
X55150Y32105D02*Y33121D01*
Y32105D02*X55658D01*
X55150Y32562D02*X55531D01*
X55963Y33121D02*X56471D01*
X56598Y32994D01*
Y32689D02*Y32994D01*
X56471Y32562D02*X56598Y32689D01*
X56090Y32562D02*X56471D01*
X56090Y32105D02*Y33121D01*
X55963Y32105D02*X56471D01*
X56598Y32232D01*
Y32435D01*
X56471Y32562D02*X56598Y32435D01*
X56903Y32308D02*X57106Y32105D01*
Y33121D01*
X56903D02*X57284D01*
X52177Y44170D02*X52507D01*
X51999Y43992D02*X52177Y44170D01*
X51999Y43332D02*Y43992D01*
Y43332D02*X52177Y43154D01*
X52507D01*
X53193D02*X53320Y43281D01*
X52939Y43154D02*X53193D01*
X52812Y43281D02*X52939Y43154D01*
X52812Y43281D02*Y44043D01*
X52939Y44170D01*
X53193Y43611D02*X53320Y43738D01*
X52812Y43611D02*X53193D01*
X52939Y44170D02*X53193D01*
X53320Y44043D01*
Y43738D02*Y44043D01*
X54006Y43154D02*X54133Y43281D01*
X53752Y43154D02*X54006D01*
X53625Y43281D02*X53752Y43154D01*
X53625Y43281D02*Y44043D01*
X53752Y44170D01*
X54006Y43611D02*X54133Y43738D01*
X53625Y43611D02*X54006D01*
X53752Y44170D02*X54006D01*
X54133Y44043D01*
Y43738D02*Y44043D01*
X53338Y45042D02*X53846D01*
X53973Y45169D01*
Y45423D01*
X53846Y45550D02*X53973Y45423D01*
X53465Y45550D02*X53846D01*
X53465Y45042D02*Y46058D01*
X53668Y45550D02*X53973Y46058D01*
X54278Y45042D02*X54786D01*
X54278D02*Y45550D01*
X54405Y45423D01*
X54659D01*
X54786Y45550D01*
Y45931D01*
X54659Y46058D02*X54786Y45931D01*
X54405Y46058D02*X54659D01*
X54278Y45931D02*X54405Y46058D01*
X55091Y45677D02*X55599Y45042D01*
X55091Y45677D02*X55726D01*
X55599Y45042D02*Y46058D01*
X50604Y45034D02*X51112D01*
X51239Y45161D01*
Y45415D01*
X51112Y45542D02*X51239Y45415D01*
X50731Y45542D02*X51112D01*
X50731Y45034D02*Y46050D01*
X50934Y45542D02*X51239Y46050D01*
X51544Y45034D02*X52052D01*
X51544D02*Y45542D01*
X51671Y45415D01*
X51925D01*
X52052Y45542D01*
Y45923D01*
X51925Y46050D02*X52052Y45923D01*
X51671Y46050D02*X51925D01*
X51544Y45923D02*X51671Y46050D01*
X52357Y45161D02*X52484Y45034D01*
X52738D01*
X52865Y45161D01*
X52738Y46050D02*X52865Y45923D01*
X52484Y46050D02*X52738D01*
X52357Y45923D02*X52484Y46050D01*
Y45491D02*X52738D01*
X52865Y45161D02*Y45364D01*
Y45618D02*Y45923D01*
Y45618D02*X52738Y45491D01*
X52865Y45364D02*X52738Y45491D01*
X70128Y51070D02*X70458D01*
X69950Y50892D02*X70128Y51070D01*
X69950Y50232D02*Y50892D01*
Y50232D02*X70128Y50054D01*
X70458D01*
X70763Y50181D02*X70890Y50054D01*
X71271D01*
X71398Y50181D01*
Y50435D01*
X70763Y51070D02*X71398Y50435D01*
X70763Y51070D02*X71398D01*
X71703Y50689D02*X72211Y50054D01*
X71703Y50689D02*X72338D01*
X72211Y50054D02*Y51070D01*
X70278Y40420D02*X70608D01*
X70100Y40242D02*X70278Y40420D01*
X70100Y39582D02*Y40242D01*
Y39582D02*X70278Y39404D01*
X70608D01*
X70913D02*X71421D01*
X70913D02*Y39912D01*
X71040Y39785D01*
X71294D01*
X71421Y39912D01*
Y40293D01*
X71294Y40420D02*X71421Y40293D01*
X71040Y40420D02*X71294D01*
X70913Y40293D02*X71040Y40420D01*
X71726Y40293D02*X71853Y40420D01*
X71726Y39531D02*Y40293D01*
Y39531D02*X71853Y39404D01*
X72107D01*
X72234Y39531D01*
Y40293D01*
X72107Y40420D02*X72234Y40293D01*
X71853Y40420D02*X72107D01*
X71726Y40166D02*X72234Y39658D01*
X69678Y54370D02*X70008D01*
X69500Y54192D02*X69678Y54370D01*
X69500Y53532D02*Y54192D01*
Y53532D02*X69678Y53354D01*
X70008D01*
X70313Y53481D02*X70440Y53354D01*
X70821D01*
X70948Y53481D01*
Y53735D01*
X70313Y54370D02*X70948Y53735D01*
X70313Y54370D02*X70948D01*
X71253Y53557D02*X71456Y53354D01*
Y54370D01*
X71253D02*X71634D01*
X70228Y37070D02*X70558D01*
X70050Y36892D02*X70228Y37070D01*
X70050Y36232D02*Y36892D01*
Y36232D02*X70228Y36054D01*
X70558D01*
X70863Y36943D02*X70990Y37070D01*
X70863Y36740D02*Y36943D01*
Y36740D02*X71041Y36562D01*
X71193D01*
X71371Y36740D01*
Y36943D01*
X71244Y37070D02*X71371Y36943D01*
X70990Y37070D02*X71244D01*
X70863Y36384D02*X71041Y36562D01*
X70863Y36181D02*Y36384D01*
Y36181D02*X70990Y36054D01*
X71244D01*
X71371Y36181D01*
Y36384D01*
X71193Y36562D02*X71371Y36384D01*
X71676Y36181D02*X71803Y36054D01*
X72057D01*
X72184Y36181D01*
X72057Y37070D02*X72184Y36943D01*
X71803Y37070D02*X72057D01*
X71676Y36943D02*X71803Y37070D01*
Y36511D02*X72057D01*
X72184Y36181D02*Y36384D01*
Y36638D02*Y36943D01*
Y36638D02*X72057Y36511D01*
X72184Y36384D02*X72057Y36511D01*
X71904Y17266D02*X72412D01*
X72539Y17393D01*
Y17647D01*
X72412Y17774D02*X72539Y17647D01*
X72031Y17774D02*X72412D01*
X72031Y17266D02*Y18282D01*
X72234Y17774D02*X72539Y18282D01*
X72844Y17393D02*X72971Y17266D01*
X73225D01*
X73352Y17393D01*
X73225Y18282D02*X73352Y18155D01*
X72971Y18282D02*X73225D01*
X72844Y18155D02*X72971Y18282D01*
Y17723D02*X73225D01*
X73352Y17393D02*Y17596D01*
Y17850D02*Y18155D01*
Y17850D02*X73225Y17723D01*
X73352Y17596D02*X73225Y17723D01*
X74037Y17266D02*X74164Y17393D01*
X73783Y17266D02*X74037D01*
X73656Y17393D02*X73783Y17266D01*
X73656Y17393D02*Y18155D01*
X73783Y18282D01*
X74037Y17723D02*X74164Y17850D01*
X73656Y17723D02*X74037D01*
X73783Y18282D02*X74037D01*
X74164Y18155D01*
Y17850D02*Y18155D01*
X51878Y19420D02*X52208D01*
X51700Y19242D02*X51878Y19420D01*
X51700Y18582D02*Y19242D01*
Y18582D02*X51878Y18404D01*
X52208D01*
X52894D02*X53021Y18531D01*
X52640Y18404D02*X52894D01*
X52513Y18531D02*X52640Y18404D01*
X52513Y18531D02*Y19293D01*
X52640Y19420D01*
X52894Y18861D02*X53021Y18988D01*
X52513Y18861D02*X52894D01*
X52640Y19420D02*X52894D01*
X53021Y19293D01*
Y18988D02*Y19293D01*
X53453Y19420D02*X53834Y18912D01*
Y18531D02*Y18912D01*
X53707Y18404D02*X53834Y18531D01*
X53453Y18404D02*X53707D01*
X53326Y18531D02*X53453Y18404D01*
X53326Y18531D02*Y18785D01*
X53453Y18912D01*
X53834D01*
X60978Y23220D02*X61308D01*
X60800Y23042D02*X60978Y23220D01*
X60800Y22382D02*Y23042D01*
Y22382D02*X60978Y22204D01*
X61308D01*
X61740Y23220D02*X62248Y22204D01*
X61613D02*X62248D01*
X62553Y23093D02*X62680Y23220D01*
X62553Y22331D02*Y23093D01*
Y22331D02*X62680Y22204D01*
X62934D01*
X63061Y22331D01*
Y23093D01*
X62934Y23220D02*X63061Y23093D01*
X62680Y23220D02*X62934D01*
X62553Y22966D02*X63061Y22458D01*
X70228Y9220D02*X70558D01*
X70050Y9042D02*X70228Y9220D01*
X70050Y8382D02*Y9042D01*
Y8382D02*X70228Y8204D01*
X70558D01*
X70863Y9093D02*X70990Y9220D01*
X70863Y8890D02*Y9093D01*
Y8890D02*X71041Y8712D01*
X71193D01*
X71371Y8890D01*
Y9093D01*
X71244Y9220D02*X71371Y9093D01*
X70990Y9220D02*X71244D01*
X70863Y8534D02*X71041Y8712D01*
X70863Y8331D02*Y8534D01*
Y8331D02*X70990Y8204D01*
X71244D01*
X71371Y8331D01*
Y8534D01*
X71193Y8712D02*X71371Y8534D01*
X71803Y9220D02*X72311Y8204D01*
X71676D02*X72311D01*
X69678Y12420D02*X70008D01*
X69500Y12242D02*X69678Y12420D01*
X69500Y11582D02*Y12242D01*
Y11582D02*X69678Y11404D01*
X70008D01*
X70313Y12293D02*X70440Y12420D01*
X70313Y12090D02*Y12293D01*
Y12090D02*X70491Y11912D01*
X70643D01*
X70821Y12090D01*
Y12293D01*
X70694Y12420D02*X70821Y12293D01*
X70440Y12420D02*X70694D01*
X70313Y11734D02*X70491Y11912D01*
X70313Y11531D02*Y11734D01*
Y11531D02*X70440Y11404D01*
X70694D01*
X70821Y11531D01*
Y11734D01*
X70643Y11912D02*X70821Y11734D01*
X71507Y11404D02*X71634Y11531D01*
X71253Y11404D02*X71507D01*
X71126Y11531D02*X71253Y11404D01*
X71126Y11531D02*Y12293D01*
X71253Y12420D01*
X71507Y11861D02*X71634Y11988D01*
X71126Y11861D02*X71507D01*
X71253Y12420D02*X71507D01*
X71634Y12293D01*
Y11988D02*Y12293D01*
X49927Y758D02*Y1774D01*
Y758D02*X50435D01*
X49927Y1215D02*X50308D01*
X50740Y1774D02*X51248D01*
X51375Y1647D01*
Y1342D02*Y1647D01*
X51248Y1215D02*X51375Y1342D01*
X50867Y1215D02*X51248D01*
X50867Y758D02*Y1774D01*
X50740Y758D02*X51248D01*
X51375Y885D01*
Y1088D01*
X51248Y1215D02*X51375Y1088D01*
X51680Y1393D02*X52188Y758D01*
X51680Y1393D02*X52315D01*
X52188Y758D02*Y1774D01*
X49478Y4470D02*X49808D01*
X49300Y4292D02*X49478Y4470D01*
X49300Y3632D02*Y4292D01*
Y3632D02*X49478Y3454D01*
X49808D01*
X50113Y3657D02*X50316Y3454D01*
Y4470D01*
X50113D02*X50494D01*
X71776Y12624D02*X72284D01*
X72411Y12751D01*
Y13005D01*
X72284Y13132D02*X72411Y13005D01*
X71903Y13132D02*X72284D01*
X71903Y12624D02*Y13640D01*
X72106Y13132D02*X72411Y13640D01*
X72716Y12751D02*X72843Y12624D01*
X73097D01*
X73224Y12751D01*
X73097Y13640D02*X73224Y13513D01*
X72843Y13640D02*X73097D01*
X72716Y13513D02*X72843Y13640D01*
Y13081D02*X73097D01*
X73224Y12751D02*Y12954D01*
Y13208D02*Y13513D01*
Y13208D02*X73097Y13081D01*
X73224Y12954D02*X73097Y13081D01*
X73655Y13640D02*X74163Y12624D01*
X73528D02*X74163D01*
X70078Y26370D02*X70408D01*
X69900Y26192D02*X70078Y26370D01*
X69900Y25532D02*Y26192D01*
Y25532D02*X70078Y25354D01*
X70408D01*
X70713Y26243D02*X70840Y26370D01*
X70713Y26040D02*Y26243D01*
Y26040D02*X70891Y25862D01*
X71043D01*
X71221Y26040D01*
Y26243D01*
X71094Y26370D02*X71221Y26243D01*
X70840Y26370D02*X71094D01*
X70713Y25684D02*X70891Y25862D01*
X70713Y25481D02*Y25684D01*
Y25481D02*X70840Y25354D01*
X71094D01*
X71221Y25481D01*
Y25684D01*
X71043Y25862D02*X71221Y25684D01*
X71526Y25989D02*X72034Y25354D01*
X71526Y25989D02*X72161D01*
X72034Y25354D02*Y26370D01*
X70078Y23120D02*X70408D01*
X69900Y22942D02*X70078Y23120D01*
X69900Y22282D02*Y22942D01*
Y22282D02*X70078Y22104D01*
X70408D01*
X70713Y22993D02*X70840Y23120D01*
X70713Y22790D02*Y22993D01*
Y22790D02*X70891Y22612D01*
X71043D01*
X71221Y22790D01*
Y22993D01*
X71094Y23120D02*X71221Y22993D01*
X70840Y23120D02*X71094D01*
X70713Y22434D02*X70891Y22612D01*
X70713Y22231D02*Y22434D01*
Y22231D02*X70840Y22104D01*
X71094D01*
X71221Y22231D01*
Y22434D01*
X71043Y22612D02*X71221Y22434D01*
X71526Y22104D02*X72034D01*
X71526D02*Y22612D01*
X71653Y22485D01*
X71907D01*
X72034Y22612D01*
Y22993D01*
X71907Y23120D02*X72034Y22993D01*
X71653Y23120D02*X71907D01*
X71526Y22993D02*X71653Y23120D01*
X71858Y19244D02*X72366D01*
X72493Y19371D01*
Y19625D01*
X72366Y19752D02*X72493Y19625D01*
X71985Y19752D02*X72366D01*
X71985Y19244D02*Y20260D01*
X72188Y19752D02*X72493Y20260D01*
X72798Y19371D02*X72925Y19244D01*
X73179D01*
X73306Y19371D01*
X73179Y20260D02*X73306Y20133D01*
X72925Y20260D02*X73179D01*
X72798Y20133D02*X72925Y20260D01*
Y19701D02*X73179D01*
X73306Y19371D02*Y19574D01*
Y19828D02*Y20133D01*
Y19828D02*X73179Y19701D01*
X73306Y19574D02*X73179Y19701D01*
X73611Y19244D02*X74119D01*
X73611D02*Y19752D01*
X73738Y19625D01*
X73992D01*
X74119Y19752D01*
Y20133D01*
X73992Y20260D02*X74119Y20133D01*
X73738Y20260D02*X73992D01*
X73611Y20133D02*X73738Y20260D01*
X71880Y30488D02*X72388D01*
X72515Y30615D01*
Y30869D01*
X72388Y30996D02*X72515Y30869D01*
X72007Y30996D02*X72388D01*
X72007Y30488D02*Y31504D01*
X72210Y30996D02*X72515Y31504D01*
X72820Y30615D02*X72947Y30488D01*
X73201D01*
X73328Y30615D01*
X73201Y31504D02*X73328Y31377D01*
X72947Y31504D02*X73201D01*
X72820Y31377D02*X72947Y31504D01*
Y30945D02*X73201D01*
X73328Y30615D02*Y30818D01*
Y31072D02*Y31377D01*
Y31072D02*X73201Y30945D01*
X73328Y30818D02*X73201Y30945D01*
X73633Y31123D02*X74141Y30488D01*
X73633Y31123D02*X74268D01*
X74141Y30488D02*Y31504D01*
X71746Y33288D02*X72254D01*
X72381Y33415D01*
Y33669D01*
X72254Y33796D02*X72381Y33669D01*
X71873Y33796D02*X72254D01*
X71873Y33288D02*Y34304D01*
X72076Y33796D02*X72381Y34304D01*
X72686Y33415D02*X72813Y33288D01*
X73067D01*
X73194Y33415D01*
X73067Y34304D02*X73194Y34177D01*
X72813Y34304D02*X73067D01*
X72686Y34177D02*X72813Y34304D01*
Y33745D02*X73067D01*
X73194Y33415D02*Y33618D01*
Y33872D02*Y34177D01*
Y33872D02*X73067Y33745D01*
X73194Y33618D02*X73067Y33745D01*
X73499Y33415D02*X73626Y33288D01*
X74007D01*
X74134Y33415D01*
Y33669D01*
X73499Y34304D02*X74134Y33669D01*
X73499Y34304D02*X74134D01*
X72900Y26004D02*Y27020D01*
Y26004D02*X73535Y27020D01*
Y26004D02*Y27020D01*
X73967D02*X74475Y26004D01*
X73840D02*X74475D01*
X3400Y24954D02*X3908D01*
X4035Y25081D01*
Y25335D01*
X3908Y25462D02*X4035Y25335D01*
X3527Y25462D02*X3908D01*
X3527Y24954D02*Y25970D01*
X3730Y25462D02*X4035Y25970D01*
X4340Y24954D02*X4848D01*
X4340D02*Y25462D01*
X4467Y25335D01*
X4721D01*
X4848Y25462D01*
Y25843D01*
X4721Y25970D02*X4848Y25843D01*
X4467Y25970D02*X4721D01*
X4340Y25843D02*X4467Y25970D01*
X5153Y25843D02*X5280Y25970D01*
X5153Y25640D02*Y25843D01*
Y25640D02*X5330Y25462D01*
X5483D01*
X5661Y25640D01*
Y25843D01*
X5534Y25970D02*X5661Y25843D01*
X5280Y25970D02*X5534D01*
X5153Y25284D02*X5330Y25462D01*
X5153Y25081D02*Y25284D01*
Y25081D02*X5280Y24954D01*
X5534D01*
X5661Y25081D01*
Y25284D01*
X5483Y25462D02*X5661Y25284D01*
X4958Y15172D02*X5466D01*
X5593Y15299D01*
Y15553D01*
X5466Y15680D02*X5593Y15553D01*
X5085Y15680D02*X5466D01*
X5085Y15172D02*Y16188D01*
X5288Y15680D02*X5593Y16188D01*
X6279Y15172D02*X6406Y15299D01*
X6025Y15172D02*X6279D01*
X5898Y15299D02*X6025Y15172D01*
X5898Y15299D02*Y16061D01*
X6025Y16188D01*
X6279Y15629D02*X6406Y15756D01*
X5898Y15629D02*X6279D01*
X6025Y16188D02*X6279D01*
X6406Y16061D01*
Y15756D02*Y16061D01*
X6710Y15375D02*X6914Y15172D01*
Y16188D01*
X6710D02*X7091D01*
X4904Y20326D02*X5412D01*
X5539Y20453D01*
Y20707D01*
X5412Y20834D02*X5539Y20707D01*
X5031Y20834D02*X5412D01*
X5031Y20326D02*Y21342D01*
X5234Y20834D02*X5539Y21342D01*
X6225Y20326D02*X6352Y20453D01*
X5971Y20326D02*X6225D01*
X5844Y20453D02*X5971Y20326D01*
X5844Y20453D02*Y21215D01*
X5971Y21342D01*
X6225Y20783D02*X6352Y20910D01*
X5844Y20783D02*X6225D01*
X5971Y21342D02*X6225D01*
X6352Y21215D01*
Y20910D02*Y21215D01*
X6657Y20453D02*X6784Y20326D01*
X7165D01*
X7292Y20453D01*
Y20707D01*
X6657Y21342D02*X7292Y20707D01*
X6657Y21342D02*X7292D01*
X14126Y57224D02*X14634D01*
X14761Y57351D01*
Y57605D01*
X14634Y57732D02*X14761Y57605D01*
X14253Y57732D02*X14634D01*
X14253Y57224D02*Y58240D01*
X14456Y57732D02*X14761Y58240D01*
X15066Y57351D02*X15193Y57224D01*
X15574D01*
X15701Y57351D01*
Y57605D01*
X15066Y58240D02*X15701Y57605D01*
X15066Y58240D02*X15701D01*
X16005Y58113D02*X16132Y58240D01*
X16005Y57351D02*Y58113D01*
Y57351D02*X16132Y57224D01*
X16386D01*
X16513Y57351D01*
Y58113D01*
X16386Y58240D02*X16513Y58113D01*
X16132Y58240D02*X16386D01*
X16005Y57986D02*X16513Y57478D01*
X10358Y59072D02*X10866D01*
X10993Y59199D01*
Y59453D01*
X10866Y59580D02*X10993Y59453D01*
X10485Y59580D02*X10866D01*
X10485Y59072D02*Y60088D01*
X10688Y59580D02*X10993Y60088D01*
X11298Y59275D02*X11501Y59072D01*
Y60088D01*
X11298D02*X11679D01*
X12111D02*X12492Y59580D01*
Y59199D02*Y59580D01*
X12365Y59072D02*X12492Y59199D01*
X12111Y59072D02*X12365D01*
X11984Y59199D02*X12111Y59072D01*
X11984Y59199D02*Y59453D01*
X12111Y59580D01*
X12492D01*
X16928Y56240D02*X17258D01*
X16750Y56062D02*X16928Y56240D01*
X16750Y55402D02*Y56062D01*
Y55402D02*X16928Y55224D01*
X17258D01*
X17563Y55351D02*X17690Y55224D01*
X17944D01*
X18071Y55351D01*
X17944Y56240D02*X18071Y56113D01*
X17690Y56240D02*X17944D01*
X17563Y56113D02*X17690Y56240D01*
Y55681D02*X17944D01*
X18071Y55351D02*Y55554D01*
Y55808D02*Y56113D01*
Y55808D02*X17944Y55681D01*
X18071Y55554D02*X17944Y55681D01*
X18376Y55859D02*X18884Y55224D01*
X18376Y55859D02*X19011D01*
X18884Y55224D02*Y56240D01*
X8500Y49304D02*X9008D01*
X9135Y49431D01*
Y49685D01*
X9008Y49812D02*X9135Y49685D01*
X8627Y49812D02*X9008D01*
X8627Y49304D02*Y50320D01*
X8830Y49812D02*X9135Y50320D01*
X9440Y49431D02*X9567Y49304D01*
X9948D01*
X10075Y49431D01*
Y49685D01*
X9440Y50320D02*X10075Y49685D01*
X9440Y50320D02*X10075D01*
X10380Y49304D02*X10888D01*
X10380D02*Y49812D01*
X10507Y49685D01*
X10761D01*
X10888Y49812D01*
Y50193D01*
X10761Y50320D02*X10888Y50193D01*
X10507Y50320D02*X10761D01*
X10380Y50193D02*X10507Y50320D01*
X2300Y49854D02*X2808D01*
X2935Y49981D01*
Y50235D01*
X2808Y50362D02*X2935Y50235D01*
X2427Y50362D02*X2808D01*
X2427Y49854D02*Y50870D01*
X2630Y50362D02*X2935Y50870D01*
X3240Y49981D02*X3367Y49854D01*
X3748D01*
X3875Y49981D01*
Y50235D01*
X3240Y50870D02*X3875Y50235D01*
X3240Y50870D02*X3875D01*
X4180Y49981D02*X4307Y49854D01*
X4561D01*
X4688Y49981D01*
X4561Y50870D02*X4688Y50743D01*
X4307Y50870D02*X4561D01*
X4180Y50743D02*X4307Y50870D01*
Y50311D02*X4561D01*
X4688Y49981D02*Y50184D01*
Y50438D02*Y50743D01*
Y50438D02*X4561Y50311D01*
X4688Y50184D02*X4561Y50311D01*
X20142Y58524D02*X20650D01*
X20777Y58651D01*
Y58905D01*
X20650Y59032D02*X20777Y58905D01*
X20269Y59032D02*X20650D01*
X20269Y58524D02*Y59540D01*
X20472Y59032D02*X20777Y59540D01*
X21082Y58651D02*X21209Y58524D01*
X21590D01*
X21717Y58651D01*
Y58905D01*
X21082Y59540D02*X21717Y58905D01*
X21082Y59540D02*X21717D01*
X22021Y58651D02*X22148Y58524D01*
X22529D01*
X22656Y58651D01*
Y58905D01*
X22021Y59540D02*X22656Y58905D01*
X22021Y59540D02*X22656D01*
X16134Y60774D02*X16642D01*
X16769Y60901D01*
Y61155D01*
X16642Y61282D02*X16769Y61155D01*
X16261Y61282D02*X16642D01*
X16261Y60774D02*Y61790D01*
X16464Y61282D02*X16769Y61790D01*
X17074Y60901D02*X17201Y60774D01*
X17582D01*
X17709Y60901D01*
Y61155D01*
X17074Y61790D02*X17709Y61155D01*
X17074Y61790D02*X17709D01*
X18014Y60977D02*X18217Y60774D01*
Y61790D01*
X18014D02*X18395D01*
X22178Y62270D02*X22508D01*
X22000Y62092D02*X22178Y62270D01*
X22000Y61432D02*Y62092D01*
Y61432D02*X22178Y61254D01*
X22508D01*
X22813Y61381D02*X22940Y61254D01*
X23321D01*
X23448Y61381D01*
Y61635D01*
X22813Y62270D02*X23448Y61635D01*
X22813Y62270D02*X23448D01*
X23753Y61254D02*X24261D01*
X23753D02*Y61762D01*
X23880Y61635D01*
X24134D01*
X24261Y61762D01*
Y62143D01*
X24134Y62270D02*X24261Y62143D01*
X23880Y62270D02*X24134D01*
X23753Y62143D02*X23880Y62270D01*
X25120Y16742D02*Y17072D01*
X24942Y17250D02*X25120Y17072D01*
X24282Y17250D02*X24942D01*
X24282D02*X24104Y17072D01*
Y16742D02*Y17072D01*
X24739Y16437D02*X24104Y15929D01*
X24739Y15802D02*Y16437D01*
X24104Y15929D02*X25120D01*
X23720Y16742D02*Y17072D01*
X23542Y17250D02*X23720Y17072D01*
X22882Y17250D02*X23542D01*
X22882D02*X22704Y17072D01*
Y16742D02*Y17072D01*
Y15929D02*Y16437D01*
X23212D01*
X23085Y16310D01*
Y16056D02*Y16310D01*
Y16056D02*X23212Y15929D01*
X23593D01*
X23720Y16056D02*X23593Y15929D01*
X23720Y16056D02*Y16310D01*
X23593Y16437D02*X23720Y16310D01*
X22320Y16742D02*Y17072D01*
X22142Y17250D02*X22320Y17072D01*
X21482Y17250D02*X22142D01*
X21482D02*X21304Y17072D01*
Y16742D02*Y17072D01*
X22320Y16310D02*X21304Y15802D01*
Y16437D01*
X26520Y16692D02*Y17022D01*
X26342Y17200D02*X26520Y17022D01*
X25682Y17200D02*X26342D01*
X25682D02*X25504Y17022D01*
Y16692D02*Y17022D01*
X26520Y16260D02*X26012Y15879D01*
X25631D02*X26012D01*
X25504Y16006D02*X25631Y15879D01*
X25504Y16006D02*Y16260D01*
X25631Y16387D02*X25504Y16260D01*
X25631Y16387D02*X25885D01*
X26012Y16260D01*
Y15879D02*Y16260D01*
X18928Y18770D02*X19258D01*
X18750Y18592D02*X18928Y18770D01*
X18750Y17932D02*Y18592D01*
Y17932D02*X18928Y17754D01*
X19258D01*
X19563Y17957D02*X19766Y17754D01*
Y18770D01*
X19563D02*X19944D01*
X20630Y17754D02*X20757Y17881D01*
X20376Y17754D02*X20630D01*
X20249Y17881D02*X20376Y17754D01*
X20249Y17881D02*Y18643D01*
X20376Y18770D01*
X20630Y18211D02*X20757Y18338D01*
X20249Y18211D02*X20630D01*
X20376Y18770D02*X20630D01*
X20757Y18643D01*
Y18338D02*Y18643D01*
X12581Y24990D02*X12911D01*
X12403Y24812D02*X12581Y24990D01*
X12403Y24152D02*Y24812D01*
Y24152D02*X12581Y23974D01*
X12911D01*
X13216Y24863D02*X13343Y24990D01*
X13216Y24660D02*Y24863D01*
Y24660D02*X13393Y24482D01*
X13546D01*
X13724Y24660D01*
Y24863D01*
X13597Y24990D02*X13724Y24863D01*
X13343Y24990D02*X13597D01*
X13216Y24304D02*X13393Y24482D01*
X13216Y24101D02*Y24304D01*
Y24101D02*X13343Y23974D01*
X13597D01*
X13724Y24101D01*
Y24304D01*
X13546Y24482D02*X13724Y24304D01*
X14028Y24101D02*X14155Y23974D01*
X14536D01*
X14663Y24101D01*
Y24355D01*
X14028Y24990D02*X14663Y24355D01*
X14028Y24990D02*X14663D01*
X17878Y23009D02*Y23263D01*
X17741Y23400D02*X17878Y23263D01*
X17232Y23400D02*X17741D01*
X17232D02*X17096Y23263D01*
Y23009D02*Y23263D01*
X17252Y22774D02*X17096Y22618D01*
X17878D01*
Y22481D02*Y22774D01*
X17780Y22246D02*X17878Y22148D01*
X17624Y22246D02*X17780D01*
X17624D02*X17487Y22109D01*
Y21992D02*Y22109D01*
Y21992D02*X17624Y21855D01*
X17780D01*
X17878Y21953D02*X17780Y21855D01*
X17878Y21953D02*Y22148D01*
X17350Y22246D02*X17487Y22109D01*
X17193Y22246D02*X17350D01*
X17193D02*X17096Y22148D01*
Y21953D02*Y22148D01*
Y21953D02*X17193Y21855D01*
X17350D01*
X17487Y21992D02*X17350Y21855D01*
X17078Y20920D02*X17408D01*
X16900Y20742D02*X17078Y20920D01*
X16900Y20082D02*Y20742D01*
Y20082D02*X17078Y19904D01*
X17408D01*
X17713Y20107D02*X17916Y19904D01*
Y20920D01*
X17713D02*X18094D01*
X18399Y19904D02*X18907D01*
X18399D02*Y20412D01*
X18526Y20285D01*
X18780D01*
X18907Y20412D01*
Y20793D01*
X18780Y20920D02*X18907Y20793D01*
X18526Y20920D02*X18780D01*
X18399Y20793D02*X18526Y20920D01*
X14598Y22564D02*X14929D01*
X14421Y22387D02*X14598Y22564D01*
X14421Y21726D02*Y22387D01*
Y21726D02*X14598Y21548D01*
X14929D01*
X15234Y22437D02*X15361Y22564D01*
X15234Y22234D02*Y22437D01*
Y22234D02*X15411Y22056D01*
X15564D01*
X15742Y22234D01*
Y22437D01*
X15615Y22564D02*X15742Y22437D01*
X15361Y22564D02*X15615D01*
X15234Y21879D02*X15411Y22056D01*
X15234Y21675D02*Y21879D01*
Y21675D02*X15361Y21548D01*
X15615D01*
X15742Y21675D01*
Y21879D01*
X15564Y22056D02*X15742Y21879D01*
X16046Y21752D02*X16250Y21548D01*
Y22564D01*
X16046D02*X16427D01*
X25078Y25570D02*X25408D01*
X24900Y25392D02*X25078Y25570D01*
X24900Y24732D02*Y25392D01*
Y24732D02*X25078Y24554D01*
X25408D01*
X25713Y24757D02*X25916Y24554D01*
Y25570D01*
X25713D02*X26094D01*
X26399Y25189D02*X26907Y24554D01*
X26399Y25189D02*X27034D01*
X26907Y24554D02*Y25570D01*
X26978Y24070D02*X27308D01*
X26800Y23892D02*X26978Y24070D01*
X26800Y23232D02*Y23892D01*
Y23232D02*X26978Y23054D01*
X27308D01*
X27613Y23257D02*X27816Y23054D01*
Y24070D01*
X27613D02*X27994D01*
X28299Y23181D02*X28426Y23054D01*
X28680D01*
X28807Y23181D01*
X28680Y24070D02*X28807Y23943D01*
X28426Y24070D02*X28680D01*
X28299Y23943D02*X28426Y24070D01*
Y23511D02*X28680D01*
X28807Y23181D02*Y23384D01*
Y23638D02*Y23943D01*
Y23638D02*X28680Y23511D01*
X28807Y23384D02*X28680Y23511D01*
X24378Y22970D02*X24708D01*
X24200Y22792D02*X24378Y22970D01*
X24200Y22132D02*Y22792D01*
Y22132D02*X24378Y21954D01*
X24708D01*
X25013Y22157D02*X25216Y21954D01*
Y22970D01*
X25013D02*X25394D01*
X25826D02*X26334Y21954D01*
X25699D02*X26334D01*
X27077Y28720D02*X27408D01*
X26900Y28542D02*X27077Y28720D01*
X26900Y27882D02*Y28542D01*
Y27882D02*X27077Y27704D01*
X27408D01*
X27712Y27907D02*X27916Y27704D01*
Y28720D01*
X27712D02*X28093D01*
X28398Y27831D02*X28525Y27704D01*
X28906D01*
X29033Y27831D01*
Y28085D01*
X28398Y28720D02*X29033Y28085D01*
X28398Y28720D02*X29033D01*
X8803Y25008D02*X9311D01*
X9438Y25135D01*
Y25389D01*
X9311Y25516D02*X9438Y25389D01*
X8930Y25516D02*X9311D01*
X8930Y25008D02*Y26024D01*
X9134Y25516D02*X9438Y26024D01*
X9743Y25008D02*X10251D01*
X9743D02*Y25516D01*
X9870Y25389D01*
X10124D01*
X10251Y25516D01*
Y25897D01*
X10124Y26024D02*X10251Y25897D01*
X9870Y26024D02*X10124D01*
X9743Y25897D02*X9870Y26024D01*
X10683D02*X11064Y25516D01*
Y25135D02*Y25516D01*
X10937Y25008D02*X11064Y25135D01*
X10683Y25008D02*X10937D01*
X10556Y25135D02*X10683Y25008D01*
X10556Y25135D02*Y25389D01*
X10683Y25516D01*
X11064D01*
X20530Y31178D02*Y31508D01*
X20708Y31000D02*X20530Y31178D01*
X20708Y31000D02*X21368D01*
X21546Y31178D01*
Y31508D01*
X20657Y31813D02*X20530Y31940D01*
X20657Y31813D02*X20860D01*
X21038Y31991D01*
Y32143D01*
X20860Y32321D01*
X20657D02*X20860D01*
X20530Y32194D02*X20657Y32321D01*
X20530Y31940D02*Y32194D01*
X21216Y31813D02*X21038Y31991D01*
X21216Y31813D02*X21419D01*
X21546Y31940D01*
Y32194D01*
X21419Y32321D01*
X21216D02*X21419D01*
X21038Y32143D02*X21216Y32321D01*
X21930Y31178D02*Y31508D01*
X22108Y31000D02*X21930Y31178D01*
X22108Y31000D02*X22768D01*
X22946Y31178D01*
Y31508D01*
Y32194D02*X22819Y32321D01*
X22946Y31940D02*Y32194D01*
X22819Y31813D02*X22946Y31940D01*
X22057Y31813D02*X22819D01*
X22057D02*X21930Y31940D01*
X22489Y32194D02*X22362Y32321D01*
X22489Y31813D02*Y32194D01*
X21930Y31940D02*Y32194D01*
X22057Y32321D01*
X22362D01*
X23330Y31178D02*Y31508D01*
X23508Y31000D02*X23330Y31178D01*
X23508Y31000D02*X24168D01*
X24346Y31178D01*
Y31508D01*
X24143Y31813D02*X24346Y32016D01*
X23330D02*X24346D01*
X23330Y31813D02*Y32194D01*
X24143Y32499D02*X24346Y32702D01*
X23330D02*X24346D01*
X23330Y32499D02*Y32880D01*
X19130Y31178D02*Y31508D01*
X19308Y31000D02*X19130Y31178D01*
X19308Y31000D02*X19968D01*
X20146Y31178D01*
Y31508D01*
X19943Y31813D02*X20146Y32016D01*
X19130D02*X20146D01*
X19130Y31813D02*Y32194D01*
X19257Y32499D02*X19130Y32626D01*
X19257Y32499D02*X20019D01*
X20146Y32626D01*
Y32880D01*
X20019Y33007D01*
X19257D02*X20019D01*
X19130Y32880D02*X19257Y33007D01*
X19130Y32626D02*Y32880D01*
X19384Y32499D02*X19892Y33007D01*
X15828Y31004D02*X16158D01*
X15650Y30826D02*X15828Y31004D01*
X15650Y30166D02*Y30826D01*
Y30166D02*X15828Y29988D01*
X16158D01*
X16463Y30115D02*X16590Y29988D01*
X16971D01*
X17098Y30115D01*
Y30369D01*
X16463Y31004D02*X17098Y30369D01*
X16463Y31004D02*X17098D01*
X17403Y30115D02*X17530Y29988D01*
X17911D01*
X18038Y30115D01*
Y30369D01*
X17403Y31004D02*X18038Y30369D01*
X17403Y31004D02*X18038D01*
X18478Y29920D02*X18808D01*
X18300Y29742D02*X18478Y29920D01*
X18300Y29082D02*Y29742D01*
Y29082D02*X18478Y28904D01*
X18808D01*
X19113Y29031D02*X19240Y28904D01*
X19621D01*
X19748Y29031D01*
Y29285D01*
X19113Y29920D02*X19748Y29285D01*
X19113Y29920D02*X19748D01*
X20053Y29793D02*X20180Y29920D01*
X20053Y29031D02*Y29793D01*
Y29031D02*X20180Y28904D01*
X20434D01*
X20561Y29031D01*
Y29793D01*
X20434Y29920D02*X20561Y29793D01*
X20180Y29920D02*X20434D01*
X20053Y29666D02*X20561Y29158D01*
X13650Y28504D02*Y29520D01*
Y28504D02*X14158D01*
X13650Y28961D02*X14031D01*
X14463Y29520D02*X14971D01*
X15098Y29393D01*
Y29088D02*Y29393D01*
X14971Y28961D02*X15098Y29088D01*
X14590Y28961D02*X14971D01*
X14590Y28504D02*Y29520D01*
X14463Y28504D02*X14971D01*
X15098Y28631D01*
Y28834D01*
X14971Y28961D02*X15098Y28834D01*
X15784Y28504D02*X15911Y28631D01*
X15530Y28504D02*X15784D01*
X15403Y28631D02*X15530Y28504D01*
X15403Y28631D02*Y29393D01*
X15530Y29520D01*
X15784Y28961D02*X15911Y29088D01*
X15403Y28961D02*X15784D01*
X15530Y29520D02*X15784D01*
X15911Y29393D01*
Y29088D02*Y29393D01*
X12250Y26304D02*Y27320D01*
Y26304D02*X12758D01*
X12250Y26761D02*X12631D01*
X13063Y27320D02*X13571D01*
X13698Y27193D01*
Y26888D02*Y27193D01*
X13571Y26761D02*X13698Y26888D01*
X13190Y26761D02*X13571D01*
X13190Y26304D02*Y27320D01*
X13063Y26304D02*X13571D01*
X13698Y26431D01*
Y26634D01*
X13571Y26761D02*X13698Y26634D01*
X14003Y26304D02*X14511D01*
X14003D02*Y26812D01*
X14130Y26685D01*
X14384D01*
X14511Y26812D01*
Y27193D01*
X14384Y27320D02*X14511Y27193D01*
X14130Y27320D02*X14384D01*
X14003Y27193D02*X14130Y27320D01*
X15714Y39672D02*X16044D01*
X15536Y39494D02*X15714Y39672D01*
X15536Y38834D02*Y39494D01*
Y38834D02*X15714Y38656D01*
X16044D01*
X16349Y38783D02*X16476Y38656D01*
X16730D01*
X16857Y38783D01*
X16730Y39672D02*X16857Y39545D01*
X16476Y39672D02*X16730D01*
X16349Y39545D02*X16476Y39672D01*
Y39113D02*X16730D01*
X16857Y38783D02*Y38986D01*
Y39240D02*Y39545D01*
Y39240D02*X16730Y39113D01*
X16857Y38986D02*X16730Y39113D01*
X17161Y38783D02*X17288Y38656D01*
X17542D01*
X17669Y38783D01*
X17542Y39672D02*X17669Y39545D01*
X17288Y39672D02*X17542D01*
X17161Y39545D02*X17288Y39672D01*
Y39113D02*X17542D01*
X17669Y38783D02*Y38986D01*
Y39240D02*Y39545D01*
Y39240D02*X17542Y39113D01*
X17669Y38986D02*X17542Y39113D01*
X16754Y48286D02*X17084D01*
X16576Y48108D02*X16754Y48286D01*
X16576Y47448D02*Y48108D01*
Y47448D02*X16754Y47270D01*
X17084D01*
X17389Y47397D02*X17516Y47270D01*
X17770D01*
X17897Y47397D01*
X17770Y48286D02*X17897Y48159D01*
X17516Y48286D02*X17770D01*
X17389Y48159D02*X17516Y48286D01*
Y47727D02*X17770D01*
X17897Y47397D02*Y47600D01*
Y47854D02*Y48159D01*
Y47854D02*X17770Y47727D01*
X17897Y47600D02*X17770Y47727D01*
X18202Y48159D02*X18329Y48286D01*
X18202Y47397D02*Y48159D01*
Y47397D02*X18329Y47270D01*
X18583D01*
X18710Y47397D01*
Y48159D01*
X18583Y48286D02*X18710Y48159D01*
X18329Y48286D02*X18583D01*
X18202Y48032D02*X18710Y47524D01*
X15648Y45978D02*X15978D01*
X15470Y45800D02*X15648Y45978D01*
X15470Y45140D02*Y45800D01*
Y45140D02*X15648Y44962D01*
X15978D01*
X16283Y45089D02*X16410Y44962D01*
X16791D01*
X16918Y45089D01*
Y45343D01*
X16283Y45978D02*X16918Y45343D01*
X16283Y45978D02*X16918D01*
X17223Y45851D02*X17350Y45978D01*
X17223Y45648D02*Y45851D01*
Y45648D02*X17401Y45470D01*
X17553D01*
X17731Y45648D01*
Y45851D01*
X17604Y45978D02*X17731Y45851D01*
X17350Y45978D02*X17604D01*
X17223Y45292D02*X17401Y45470D01*
X17223Y45089D02*Y45292D01*
Y45089D02*X17350Y44962D01*
X17604D01*
X17731Y45089D01*
Y45292D01*
X17553Y45470D02*X17731Y45292D01*
X11110Y45870D02*X11440D01*
X10932Y45692D02*X11110Y45870D01*
X10932Y45032D02*Y45692D01*
Y45032D02*X11110Y44854D01*
X11440D01*
X11745Y45489D02*X12253Y44854D01*
X11745Y45489D02*X12380D01*
X12253Y44854D02*Y45870D01*
X12685Y45057D02*X12888Y44854D01*
Y45870D01*
X12685D02*X13066D01*
X15286Y50236D02*X15616D01*
X15108Y50058D02*X15286Y50236D01*
X15108Y49398D02*Y50058D01*
Y49398D02*X15286Y49220D01*
X15616D01*
X15921Y49855D02*X16429Y49220D01*
X15921Y49855D02*X16556D01*
X16429Y49220D02*Y50236D01*
X17242Y49220D02*X17368Y49347D01*
X16988Y49220D02*X17242D01*
X16860Y49347D02*X16988Y49220D01*
X16860Y49347D02*Y50109D01*
X16988Y50236D01*
X17242Y49677D02*X17368Y49804D01*
X16860Y49677D02*X17242D01*
X16988Y50236D02*X17242D01*
X17368Y50109D01*
Y49804D02*Y50109D01*
X16125Y42846D02*X16455D01*
X15947Y42668D02*X16125Y42846D01*
X15947Y42008D02*Y42668D01*
Y42008D02*X16125Y41830D01*
X16455D01*
X16760Y42465D02*X17268Y41830D01*
X16760Y42465D02*X17395D01*
X17268Y41830D02*Y42846D01*
X17700Y42465D02*X18208Y41830D01*
X17700Y42465D02*X18335D01*
X18208Y41830D02*Y42846D01*
X19050Y38654D02*X19558D01*
X19685Y38781D01*
Y39035D01*
X19558Y39162D02*X19685Y39035D01*
X19177Y39162D02*X19558D01*
X19177Y38654D02*Y39670D01*
X19380Y39162D02*X19685Y39670D01*
X19990Y38781D02*X20117Y38654D01*
X20371D01*
X20498Y38781D01*
X20371Y39670D02*X20498Y39543D01*
X20117Y39670D02*X20371D01*
X19990Y39543D02*X20117Y39670D01*
Y39111D02*X20371D01*
X20498Y38781D02*Y38984D01*
Y39238D02*Y39543D01*
Y39238D02*X20371Y39111D01*
X20498Y38984D02*X20371Y39111D01*
X20803Y39543D02*X20930Y39670D01*
X20803Y39340D02*Y39543D01*
Y39340D02*X20980Y39162D01*
X21133D01*
X21311Y39340D01*
Y39543D01*
X21184Y39670D02*X21311Y39543D01*
X20930Y39670D02*X21184D01*
X20803Y38984D02*X20980Y39162D01*
X20803Y38781D02*Y38984D01*
Y38781D02*X20930Y38654D01*
X21184D01*
X21311Y38781D01*
Y38984D01*
X21133Y39162D02*X21311Y38984D01*
M02*
