M48
METRIC,000.000
T167C4.000
T166C0.508
T165C0.500
T164C0.500
T163C0.300
T162C2.300
T161C1.300
T160C3.200
T159C3.500
T158C3.000
T157C1.700
T156C0.900
T155C1.000
%
T163
X002300Y059950
X002350Y059050
X002950Y032150
X003000Y026450
X003300Y059200
X004050Y019500
X004050Y017000
X004850Y059950
X005000Y055050
X005500Y055750
X005600Y056700
X005750Y031650
X006100Y059950
X006400Y027000
X006400Y024000
X006500Y051250
X006500Y050400
X006500Y049600
X006550Y047750
X006550Y046250
X006550Y044750
X006550Y043250
X006650Y018250
X007400Y059950
X007750Y022100
X008000Y024000
X008100Y029700
X008550Y034850
X008600Y031800
X008650Y059950
X008850Y032700
X009050Y023650
X009300Y020900
X009400Y031800
X010000Y032700
X010000Y020050
X010100Y050750
X010550Y033500
X010850Y034050
X011000Y032850
X011000Y032050
X011400Y018300
X011600Y034250
X011700Y053550
X012150Y032550
X012200Y019450
X012250Y018600
X012400Y055750
X012500Y027150
X012500Y021500
X012800Y020000
X012850Y033250
X012950Y011050
X013050Y023000
X013050Y022150
X013500Y056950
X013500Y012700
X013700Y010450
X013800Y011750
X014253Y060500
X014400Y049250
X014400Y047750
X014450Y053750
X014450Y042900
X014450Y042100
X014500Y046550
X014500Y045750
X014500Y044950
X014500Y030500
X014500Y027500
X014500Y026500
X014500Y024500
X014500Y022500
X014500Y020500
X014500Y019500
X015200Y050750
X015500Y056800
X015500Y025500
X015500Y023500
X015500Y022500
X015500Y020500
X015500Y019500
X015500Y011600
X016200Y012150
X016250Y008850
X016253Y060500
X016350Y037200
X016350Y013250
X016500Y029500
X016500Y028500
X016500Y027500
X016500Y024500
X016500Y018500
X016500Y017500
X016600Y047750
X016700Y046550
X017100Y012150
X017150Y037200
X017450Y013250
X017500Y019500
X017500Y018500
X018000Y056800
X018253Y060500
X018500Y021500
X018500Y019500
X018525Y024500
X019450Y024525
X019500Y056000
X019500Y026500
X019500Y023500
X019500Y022500
X019500Y021500
X019500Y019500
X019500Y018500
X020250Y060500
X020500Y028500
X020500Y027500
X020500Y026500
X020500Y020500
X020500Y019500
X020500Y018500
X020500Y017500
X020550Y024500
X020550Y022500
X021050Y009450
X021425Y024500
X021450Y022500
X021500Y056800
X021500Y037200
X021500Y027500
X021500Y026500
X021500Y023450
X021500Y020500
X021500Y017500
X021700Y060700
X021700Y008800
X022050Y043550
X022050Y038100
X022500Y026500
X022500Y020500
X022500Y018500
X022500Y008000
X022525Y024500
X022525Y019500
X022550Y008850
X022550Y022500
X022900Y032050
X023250Y014200
X023425Y022500
X023475Y024500
X023500Y029500
X023500Y025500
X023500Y023500
X023500Y020500
X023500Y019500
X023700Y056750
X023700Y037250
X023800Y009900
X024500Y058650
X024500Y056750
X024500Y039450
X024500Y037250
X024500Y028500
X024500Y027500
X024500Y023500
X024500Y019500
X024500Y018500
X024500Y017530
X024525Y022500
X025000Y014200
X025000Y010450
X025000Y009750
X025300Y056750
X025300Y054550
X025300Y037250
X025500Y027500
X025500Y022500
X025500Y019500
X025600Y009000
X025950Y002850
X026200Y010300
X026250Y004300
X026500Y056800
X026500Y054600
X026500Y027500
X026500Y019500
X026500Y018500
X026750Y060500
X027050Y013800
X027150Y008400
X027350Y010300
X027500Y037200
X027500Y028500
X027500Y022500
X027500Y020500
X028200Y012700
X028500Y022500
X028500Y020500
X028500Y013800
X028550Y004300
X028750Y060500
X028850Y003600
X029000Y039400
X029000Y037200
X029100Y008300
X029200Y012600
X029400Y004300
X030200Y012600
X030300Y004300
X030500Y039400
X030500Y037200
X030500Y032800
X030750Y060500
X030850Y056800
X030900Y011400
X030950Y010300
X031200Y012600
X031200Y004300
X031400Y009650
X031650Y056800
X031900Y011500
X032000Y029600
X032100Y037250
X032100Y010300
X032200Y004300
X032550Y012800
X032600Y030200
X032750Y060500
X032850Y030850
X033000Y056800
X033000Y035300
X033000Y029450
X033000Y012250
X033050Y004300
X033300Y010300
X033400Y030150
X033400Y028150
X033500Y009300
X033550Y030850
X033750Y023350
X033750Y022250
X034000Y047050
X034000Y046250
X034000Y045450
X034050Y053750
X034050Y051250
X034050Y044250
X034150Y016250
X034200Y029850
X034300Y028200
X034500Y030800
X034550Y021450
X034550Y017750
X034550Y010650
X034700Y032800
X034700Y023250
X034850Y022250
X035100Y011350
X035150Y018800
X035250Y060500
X035550Y033650
X035650Y032800
X035650Y028750
X035650Y027950
X035700Y018250
X035750Y036500
X035750Y022200
X035750Y016250
X035850Y021500
X035950Y040750
X036000Y054250
X036000Y013000
X036450Y027150
X036450Y024500
X036650Y010900
X036750Y042350
X036750Y003800
X036850Y016250
X036900Y023350
X037050Y012250
X037100Y026500
X037150Y046950
X037150Y027800
X037500Y003950
X037600Y018100
X037600Y013150
X037750Y023350
X038000Y021650
X038000Y020350
X038050Y051900
X038150Y012250
X038200Y040750
X038400Y023900
X038550Y022200
X038800Y042900
X038850Y053000
X038950Y013000
X039100Y021600
X039100Y020900
X039100Y019350
X039100Y018550
X039100Y017050
X039100Y016250
X039100Y015450
X039550Y008100
X039550Y007100
X039550Y006100
X039550Y005100
X039550Y004100
X039596Y059554
X039600Y024250
X039600Y012150
X039700Y057000
X040150Y011000
X040600Y029350
X040600Y027150
X040650Y028250
X040700Y024000
X041100Y013150
X041150Y011550
X041650Y008100
X041650Y007100
X041650Y006100
X041650Y005100
X041650Y004100
X041800Y023650
X041800Y022300
X041800Y021300
X041900Y012350
X041950Y053000
X042050Y041350
X042050Y035900
X042250Y059550
X042250Y058300
X042250Y057000
X042800Y045600
X043600Y003600
X044200Y011300
X044700Y005150
X044750Y004150
X044850Y005900
X044900Y040000
X044950Y035150
X044950Y034350
X044950Y029150
X044950Y028350
X044950Y023650
X044950Y022850
X045050Y027500
X045100Y030600
X046300Y015350
X046450Y002750
X046487Y052853
X046487Y052103
X046850Y029750
X047150Y004850
X047487Y052103
X047850Y032600
X047850Y021450
X047900Y040000
X048000Y026700
X048100Y041300
X048486Y051853
X048700Y004350
X048750Y021450
X048900Y041300
X049250Y060100
X049250Y059100
X049250Y055100
X049250Y054100
X049250Y053100
X049250Y013700
X049486Y051853
X049500Y004400
X049550Y009000
X049750Y060550
X049750Y059600
X049750Y054600
X049750Y053600
X049800Y016600
X050100Y024450
X050100Y021450
X050250Y060100
X050250Y054100
X050250Y053100
X050300Y013750
X050450Y004950
X050486Y051853
X050750Y060550
X050750Y053600
X051250Y060100
X051250Y054100
X051250Y053100
X051250Y021450
X051400Y015450
X051486Y051853
X051750Y060550
X051750Y053600
X052100Y021100
X052250Y060100
X052250Y054100
X052250Y053100
X052350Y002550
X052400Y018300
X052485Y051853
X052600Y041300
X052750Y060550
X052750Y059600
X052750Y054600
X052750Y053600
X052900Y021100
X053250Y060100
X053250Y059100
X053250Y055100
X053250Y054100
X053250Y053100
X053450Y041300
X053485Y051853
X053750Y047850
X054735Y052853
X055250Y006500
X055250Y004700
X055700Y003500
X055734Y052853
X056000Y047100
X056000Y046100
X056050Y022400
X056150Y021450
X056200Y040700
X056500Y003500
X056734Y052353
X056750Y045100
X056800Y015100
X057300Y003500
X057350Y040250
X057500Y045100
X057500Y018850
X057550Y022600
X057600Y041300
X057600Y021700
X057734Y052353
X058450Y040550
X059100Y040000
X059100Y038500
X059100Y037150
X059100Y036300
X059100Y035000
X059100Y033500
X059100Y032000
X059100Y030500
X059100Y029650
X059100Y028850
X059100Y027500
X059100Y026000
X059100Y024550
X059100Y023150
X059100Y022350
X063700Y028700
X071300Y052200
X071300Y038250
X071300Y024250
X071300Y010300
X074450Y027750
T164
X003000Y027400
X003000Y024250
X054400Y034150
X058400Y034150
T165
X054650Y002800
X054950Y001450
T166
X051250Y047850
X055235Y051353
X056234Y049104
X058484Y050103
X058484Y049104
T156
X066110Y056650
X066110Y054110
X066110Y051570
X066110Y049030
X066110Y042680
X066110Y040140
X066110Y037600
X066110Y035060
X066110Y028710
X066110Y026170
X066110Y023630
X066110Y021090
X066110Y014740
X066110Y012200
X066110Y009660
X066110Y007120
X068650Y055380
X068650Y052840
X068650Y050300
X068650Y047760
X068650Y041410
X068650Y038870
X068650Y036330
X068650Y033790
X068650Y027440
X068650Y024900
X068650Y022360
X068650Y019820
X068650Y013470
X068650Y010930
X068650Y008390
X068650Y005850
T155
X001490Y013100
X001780Y036650
X004030Y013100
X004320Y036650
X006570Y013100
X009110Y013100
X042900Y048850
X044750Y053450
X052900Y005000
X059150Y009060
X059150Y006520
X059150Y003980
X059150Y001440
X060500Y060910
X060500Y058370
X060500Y055830
X060500Y053290
X077280Y044700
X077280Y042160
X077280Y034310
X077280Y031770
X077280Y020340
X077280Y017800
X079060Y058670
X079060Y056130
X079060Y048280
X079060Y045740
X079060Y030730
X079060Y028190
X079060Y016760
X079060Y014220
X079060Y006370
X079060Y003830
T161
X001550Y054500
X001550Y040000
T157
X064840Y045220
X064840Y031250
X064840Y017280
X071950Y060720
X071950Y001780
T162
X007500Y054500
X007500Y040000
T158
X003800Y005650
T160
X075000Y057920
X075000Y004580
T159
X009800Y005650
T167
X051250Y057100
M30
