G04 start of page 10 for group -4079 idx -4079 *
G04 Title: (unknown), topsilk *
G04 Creator: pcb 1.99z *
G04 CreationDate: Tue 11 Sep 2012 02:04:04 GMT UTC *
G04 For: ralph *
G04 Format: Gerber/RS-274X *
G04 PCB-Dimensions (mm): 80.00 62.50 *
G04 PCB-Coordinate-Origin: lower left *
%MOMM*%
%FSLAX43Y43*%
%LNTOPSILK*%
%ADD223C,1.000*%
%ADD222C,0.250*%
%ADD221C,0.381*%
%ADD220C,0.203*%
%ADD219C,0.150*%
%ADD218C,0.200*%
%ADD217C,0.554*%
%ADD216C,0.254*%
%ADD215C,0.127*%
G54D215*X57650Y12850D02*X57300Y7050D01*
X60800Y9369D02*X60927Y9496D01*
X61181D01*
X61308Y9369D01*
X61181Y8480D02*X61308Y8607D01*
X60927Y8480D02*X61181D01*
X60800Y8607D02*X60927Y8480D01*
Y9039D02*X61181D01*
X61308Y9369D02*Y9166D01*
Y8912D02*Y8607D01*
Y8912D02*X61181Y9039D01*
X61308Y9166D02*X61181Y9039D01*
X61613Y8988D02*X61867Y8480D01*
X62121Y8988D02*X61867Y8480D01*
X62426Y9369D02*X62553Y9496D01*
X62807D01*
X62934Y9369D01*
X62807Y8480D02*X62934Y8607D01*
X62553Y8480D02*X62807D01*
X62426Y8607D02*X62553Y8480D01*
Y9039D02*X62807D01*
X62934Y9369D02*Y9166D01*
Y8912D02*Y8607D01*
Y8912D02*X62807Y9039D01*
X62934Y9166D02*X62807Y9039D01*
X60750Y6996D02*X61258D01*
X61385Y6869D01*
Y6615D01*
X61258Y6488D02*X61385Y6615D01*
X60877Y6488D02*X61258D01*
X60877Y6996D02*Y5980D01*
X61080Y6488D02*X61385Y5980D01*
X61817D02*X62198D01*
X61690Y6107D02*X61817Y5980D01*
X61690Y6361D02*Y6107D01*
Y6361D02*X61817Y6488D01*
X62071D01*
X62198Y6361D01*
X61690Y6234D02*X62198D01*
Y6361D02*Y6234D01*
X62884Y6488D02*X63011Y6361D01*
X62630Y6488D02*X62884D01*
X62503Y6361D02*X62630Y6488D01*
X62503Y6361D02*Y6107D01*
X62630Y5980D01*
X62884D01*
X63011Y6107D01*
X62503Y5726D02*X62630Y5599D01*
X62884D01*
X63011Y5726D01*
Y6488D02*Y5726D01*
X61308Y4446D02*X61435Y4319D01*
X60927Y4446D02*X61308D01*
X60800Y4319D02*X60927Y4446D01*
X60800Y4319D02*Y3557D01*
X60927Y3430D01*
X61308D01*
X61435Y3557D01*
Y3811D02*Y3557D01*
X61308Y3938D02*X61435Y3811D01*
X61054Y3938D02*X61308D01*
X61740Y4446D02*Y3430D01*
Y4446D02*X62375Y3430D01*
Y4446D02*Y3430D01*
X62807Y4446D02*Y3430D01*
X63137Y4446D02*X63315Y4268D01*
Y3608D01*
X63137Y3430D02*X63315Y3608D01*
X62680Y3430D02*X63137D01*
X62680Y4446D02*X63137D01*
X60800Y1946D02*X61054Y930D01*
X61308Y1946D01*
X61613Y1692D02*Y1667D01*
Y1311D02*Y930D01*
X61994Y1311D02*Y930D01*
Y1311D02*X62121Y1438D01*
X62248D01*
X62375Y1311D01*
Y930D01*
X61867Y1438D02*X61994Y1311D01*
X300Y15846D02*Y14957D01*
X427Y14830D01*
X681D01*
X808Y14957D01*
Y15846D02*Y14957D01*
X1240Y14830D02*X1621D01*
X1748Y14957D01*
X1621Y15084D02*X1748Y14957D01*
X1240Y15084D02*X1621D01*
X1113Y15211D02*X1240Y15084D01*
X1113Y15211D02*X1240Y15338D01*
X1621D01*
X1748Y15211D01*
X1113Y14957D02*X1240Y14830D01*
X2053Y15846D02*Y14830D01*
Y14957D02*X2180Y14830D01*
X2434D01*
X2561Y14957D01*
Y15211D02*Y14957D01*
X2434Y15338D02*X2561Y15211D01*
X2180Y15338D02*X2434D01*
X2053Y15211D02*X2180Y15338D01*
X2865Y14830D02*X3373D01*
X3500Y14957D01*
Y15262D02*Y14957D01*
X3373Y15389D02*X3500Y15262D01*
X2992Y15389D02*X3373D01*
X2992Y15846D02*Y14830D01*
X2865Y15846D02*X3373D01*
X3500Y15719D01*
Y15516D01*
X3373Y15389D02*X3500Y15516D01*
X3932Y15211D02*Y14830D01*
Y15211D02*X4059Y15338D01*
X4313D01*
X3805D02*X3932Y15211D01*
X5126Y15846D02*Y14830D01*
X4999D02*X5126Y14957D01*
X4745Y14830D02*X4999D01*
X4618Y14957D02*X4745Y14830D01*
X4618Y15211D02*Y14957D01*
Y15211D02*X4745Y15338D01*
X4999D01*
X5126Y15211D01*
X5609Y15846D02*X5812D01*
Y14957D01*
X5685Y14830D02*X5812Y14957D01*
X5558Y14830D02*X5685D01*
X5431Y14957D02*X5558Y14830D01*
X5431Y15084D02*Y14957D01*
X6498Y15338D02*X6625Y15211D01*
X6244Y15338D02*X6498D01*
X6117Y15211D02*X6244Y15338D01*
X6117Y15211D02*Y14957D01*
X6244Y14830D01*
X6625Y15338D02*Y14957D01*
X6752Y14830D01*
X6244D02*X6498D01*
X6625Y14957D01*
X7183Y15338D02*X7564D01*
X7056Y15211D02*X7183Y15338D01*
X7056Y15211D02*Y14957D01*
X7183Y14830D01*
X7564D01*
X7869Y15846D02*Y14830D01*
Y15211D02*X8250Y14830D01*
X7869Y15211D02*X8123Y15465D01*
X9063Y15846D02*X9190Y15719D01*
X8682Y15846D02*X9063D01*
X8555Y15719D02*X8682Y15846D01*
X8555Y15719D02*Y14957D01*
X8682Y14830D01*
X9063D01*
X9190Y14957D01*
Y15211D02*Y14957D01*
X9063Y15338D02*X9190Y15211D01*
X8809Y15338D02*X9063D01*
X9622Y15211D02*Y14830D01*
Y15211D02*X9749Y15338D01*
X9876D01*
X10003Y15211D01*
Y14830D01*
X9495Y15338D02*X9622Y15211D01*
X10816Y15846D02*Y14830D01*
X10689D02*X10816Y14957D01*
X10435Y14830D02*X10689D01*
X10308Y14957D02*X10435Y14830D01*
X10308Y15211D02*Y14957D01*
Y15211D02*X10435Y15338D01*
X10689D01*
X10816Y15211D01*
X9200Y57260D02*X9297Y57357D01*
X9490D01*
X9586Y57260D01*
X9490Y56585D02*X9586Y56681D01*
X9297Y56585D02*X9490D01*
X9200Y56681D02*X9297Y56585D01*
Y57009D02*X9490D01*
X9586Y57260D02*Y57106D01*
Y56913D02*Y56681D01*
Y56913D02*X9490Y57009D01*
X9586Y57106D02*X9490Y57009D01*
X10204Y57357D02*X10300Y57260D01*
X9914Y57357D02*X10204D01*
X9818Y57260D02*X9914Y57357D01*
X9818Y57260D02*Y56681D01*
X9914Y56585D01*
X10204D01*
X10300Y56681D01*
Y56874D02*Y56681D01*
X10204Y56971D02*X10300Y56874D01*
X10011Y56971D02*X10204D01*
X10667Y56585D02*X10918D01*
X10532Y56720D02*X10667Y56585D01*
X10532Y57222D02*Y56720D01*
Y57222D02*X10667Y57357D01*
X10918D01*
X11150Y57260D02*Y56681D01*
Y57260D02*X11246Y57357D01*
X11439D01*
X11536Y57260D01*
Y56681D01*
X11439Y56585D02*X11536Y56681D01*
X11246Y56585D02*X11439D01*
X11150Y56681D02*X11246Y56585D01*
X11767Y57357D02*X11960D01*
X11864D02*Y56585D01*
X11767D02*X11960D01*
X12192Y57357D02*Y56585D01*
Y57357D02*X12482Y56971D01*
X12771Y57357D01*
Y56585D01*
X9200Y58407D02*X9298Y58504D01*
X9493D01*
X9591Y58407D01*
X9493Y57722D02*X9591Y57820D01*
X9298Y57722D02*X9493D01*
X9200Y57820D02*X9298Y57722D01*
Y58152D02*X9493D01*
X9591Y58407D02*Y58250D01*
Y58055D02*Y57820D01*
Y58055D02*X9493Y58152D01*
X9591Y58250D02*X9493Y58152D01*
X9826Y58504D02*X10217D01*
X10021D02*Y57722D01*
X10452Y58407D02*X10550Y58504D01*
X10843D01*
X10941Y58407D01*
Y58211D01*
X10452Y57722D02*X10941Y58211D01*
X10452Y57722D02*X10941D01*
X11175Y58504D02*X11567D01*
X11664Y58407D01*
Y58211D01*
X11567Y58113D02*X11664Y58211D01*
X11273Y58113D02*X11567D01*
X11273Y58504D02*Y57722D01*
X11430Y58113D02*X11664Y57722D01*
X12290Y58504D02*X12388Y58407D01*
X11997Y58504D02*X12290D01*
X11899Y58407D02*X11997Y58504D01*
X11899Y58407D02*Y57820D01*
X11997Y57722D01*
X12290D01*
X12388Y57820D01*
Y58015D02*Y57820D01*
X12290Y58113D02*X12388Y58015D01*
X12095Y58113D02*X12290D01*
X12623Y58407D02*X12720Y58504D01*
X12916D01*
X13014Y58407D01*
X12916Y57722D02*X13014Y57820D01*
X12720Y57722D02*X12916D01*
X12623Y57820D02*X12720Y57722D01*
Y58152D02*X12916D01*
X13014Y58407D02*Y58250D01*
Y58055D02*Y57820D01*
Y58055D02*X12916Y58152D01*
X13014Y58250D02*X12916Y58152D01*
X62000Y61396D02*X62254Y60380D01*
X62508Y61396D01*
X62813Y61142D02*Y61117D01*
Y60761D02*Y60380D01*
X63194Y60761D02*Y60380D01*
Y60761D02*X63321Y60888D01*
X63448D01*
X63575Y60761D01*
Y60380D01*
X63067Y60888D02*X63194Y60761D01*
X62558Y58796D02*X62685Y58669D01*
X62177Y58796D02*X62558D01*
X62050Y58669D02*X62177Y58796D01*
X62050Y58669D02*Y57907D01*
X62177Y57780D01*
X62558D01*
X62685Y57907D01*
Y58161D02*Y57907D01*
X62558Y58288D02*X62685Y58161D01*
X62304Y58288D02*X62558D01*
X62990Y58796D02*Y57780D01*
Y58796D02*X63625Y57780D01*
Y58796D02*Y57780D01*
X64057Y58796D02*Y57780D01*
X64387Y58796D02*X64565Y58618D01*
Y57958D01*
X64387Y57780D02*X64565Y57958D01*
X63930Y57780D02*X64387D01*
X63930Y58796D02*X64387D01*
X62050Y53643D02*X62253Y53846D01*
Y52830D01*
X62050D02*X62431D01*
X62736Y53338D02*X62990Y52830D01*
X63244Y53338D02*X62990Y52830D01*
X63549Y53719D02*X63676Y53846D01*
X64057D01*
X64184Y53719D01*
Y53465D01*
X63549Y52830D02*X64184Y53465D01*
X63549Y52830D02*X64184D01*
X62000Y56346D02*X62508D01*
X62635Y56219D01*
Y55965D01*
X62508Y55838D02*X62635Y55965D01*
X62127Y55838D02*X62508D01*
X62127Y56346D02*Y55330D01*
X62330Y55838D02*X62635Y55330D01*
X63067D02*X63448D01*
X62940Y55457D02*X63067Y55330D01*
X62940Y55711D02*Y55457D01*
Y55711D02*X63067Y55838D01*
X63321D01*
X63448Y55711D01*
X62940Y55584D02*X63448D01*
Y55711D02*Y55584D01*
X64134Y55838D02*X64261Y55711D01*
X63880Y55838D02*X64134D01*
X63753Y55711D02*X63880Y55838D01*
X63753Y55711D02*Y55457D01*
X63880Y55330D01*
X64134D01*
X64261Y55457D01*
X63753Y55076D02*X63880Y54949D01*
X64134D01*
X64261Y55076D01*
Y55838D02*Y55076D01*
G54D216*X9540Y59919D02*Y59081D01*
X1461D02*X9540D01*
X1461D02*X1460Y59082D01*
Y59919D02*Y59082D01*
Y59919D02*X9540D01*
G54D217*X3050Y54500D02*X5500D01*
X3050Y40000D02*X5500D01*
G54D216*X14125Y37871D02*Y36875D01*
X15121D01*
X14125Y57125D02*Y56129D01*
Y57125D02*X15121D01*
X34375Y37871D02*Y36875D01*
X33379D02*X34375D01*
Y57125D02*Y56129D01*
X33379Y57125D02*X34375D01*
X14125Y36875D02*X13123Y35873D01*
G54D218*X31347Y60601D02*Y60401D01*
X30147Y60601D02*Y60401D01*
X27347Y60601D02*Y60401D01*
X26147Y60601D02*Y60401D01*
G54D219*X23350Y59250D02*X23650D01*
X22100Y60650D02*Y60350D01*
X24900Y60650D02*Y60350D01*
X24700Y60650D02*X24900D01*
X23350Y61750D02*X23650D01*
G54D218*X29350Y60600D02*Y60400D01*
X28150Y60600D02*Y60400D01*
X35850Y60600D02*Y60400D01*
X34650Y60600D02*Y60400D01*
X33350Y60600D02*Y60400D01*
X32150Y60600D02*Y60400D01*
X20850Y60600D02*Y60400D01*
X19650Y60600D02*Y60400D01*
X18850Y60600D02*Y60400D01*
X17650Y60600D02*Y60400D01*
X16850Y60600D02*Y60400D01*
X15650Y60600D02*Y60400D01*
X14850Y60600D02*Y60400D01*
X13650Y60600D02*Y60400D01*
G54D216*X42319Y55110D02*X39581D01*
Y60189D01*
X39582Y60190D01*
X42319D01*
Y55110D01*
G54D219*X41500Y47100D02*X42200D01*
X41500Y44150D02*X42200D01*
X43150Y46450D02*Y44750D01*
X40550Y46500D02*Y44750D01*
G54D220*X45700Y50950D02*Y49750D01*
X43800Y50950D02*Y49750D01*
G54D216*X58629Y21125D02*X59125D01*
Y21621D02*Y21125D01*
X44875D02*X45371D01*
X44875Y21621D02*Y21125D01*
X58629Y41375D02*X59125D01*
Y40879D01*
X44875Y41375D02*X45371D01*
X44875D02*Y40879D01*
X59125Y21125D02*X60127Y20123D01*
X36600Y14700D02*X44600D01*
Y700D01*
X36600D02*X44600D01*
X36600Y14700D02*Y700D01*
X44600D02*X43600Y1700D01*
G54D218*X40750Y26550D02*X40550D01*
X40750Y27750D02*X40550D01*
X40750Y28750D02*X40550D01*
X40750Y29950D02*X40550D01*
X55150Y15650D02*X54350D01*
X53150Y17050D02*Y16750D01*
X53350D01*
X55150Y18150D02*X54350D01*
X56350Y17050D02*Y16750D01*
G54D219*X47949Y12201D02*X48649D01*
X47949Y15151D02*X48649D01*
X46999Y14551D02*Y12851D01*
X49599Y14551D02*Y12801D01*
G54D216*X54527Y6627D02*Y6129D01*
X54029Y6627D02*X54527D01*
Y3871D02*Y3373D01*
X54029D02*X54527D01*
X51273Y6627D02*Y6129D01*
Y6627D02*X51771D01*
X51273Y3871D02*Y3373D01*
X51771D01*
X54527Y6627D02*X55527Y7627D01*
G54D218*X57100Y5600D02*Y5400D01*
X55900Y5600D02*Y5400D01*
G54D221*X54192Y7495D02*X55208D01*
X54192Y11305D02*X55208D01*
G54D216*X5590Y37920D02*Y35380D01*
X510D02*X5590D01*
X510Y37920D02*Y35380D01*
Y37920D02*X5590D01*
X510D02*Y35380D01*
Y37920D02*X3050D01*
Y35380D01*
X510D02*X3050D01*
X10380Y14370D02*Y11830D01*
X220D02*X10380D01*
X220Y14370D02*Y11830D01*
Y14370D02*X10380D01*
X220D02*Y11830D01*
Y14370D02*X2760D01*
Y11830D01*
X220D02*X2760D01*
G54D222*X10600Y150D02*Y2850D01*
Y11150D02*Y8350D01*
Y11150D02*X100D01*
X10600Y150D02*X100D01*
G54D218*X5900Y17600D02*X6100D01*
X5900Y16400D02*X6100D01*
X9850Y29200D02*X10650D01*
X11850Y28100D02*Y27800D01*
X11650Y28100D02*X11850D01*
X9850Y26700D02*X10650D01*
X8650Y28100D02*Y27800D01*
G54D219*X4050Y33450D02*Y32750D01*
X1100Y33450D02*Y32750D01*
X1700Y31800D02*X3400D01*
X1700Y34400D02*X3450D01*
G54D223*X500Y28210D02*X1200D01*
X500Y23450D02*X1200D01*
G54D218*X5900Y20100D02*X6100D01*
X5900Y18900D02*X6100D01*
G54D216*X13000Y15000D02*X30000D01*
X13000Y32000D02*Y15000D01*
Y32000D02*X30000D01*
Y15000D01*
X13000Y32000D02*X12000Y33000D01*
G54D221*X64840Y57920D02*Y47760D01*
Y42680D02*Y33790D01*
Y14810D02*Y4580D01*
X71950D01*
X64840Y57920D02*X71950D01*
X64840Y28710D02*Y19820D01*
G54D218*X57839Y47214D02*Y47014D01*
X56639Y47214D02*Y47014D01*
G54D216*X46650Y48000D02*Y52000D01*
X55850Y48000D02*X46650D01*
X55850Y52000D02*Y48000D01*
X46250Y52000D02*Y62200D01*
X56250Y52000D02*Y62200D01*
Y52000D02*X46250D01*
X56250Y62200D02*X46250D01*
X59230Y62180D02*X61770D01*
Y52020D01*
X59230D02*X61770D01*
X59230Y62180D02*Y52020D01*
X61770D01*
X59230Y54560D02*Y52020D01*
Y54560D02*X61770D01*
Y52020D01*
X57880Y170D02*X60420D01*
X57880Y10330D02*Y170D01*
Y10330D02*X60420D01*
Y170D01*
X57880Y10330D02*X60420D01*
Y7790D01*
X57880D02*X60420D01*
X57880Y10330D02*Y7790D01*
G54D220*X54300Y550D02*X55500D01*
X54300Y2450D02*X55500D01*
G54D215*X36394Y41642D02*X36902D01*
X37029Y41515D01*
Y41261D01*
X36902Y41134D02*X37029Y41261D01*
X36521Y41134D02*X36902D01*
X36521Y41642D02*Y40626D01*
X36724Y41134D02*X37029Y40626D01*
X37334Y41642D02*X37842D01*
X37334D02*Y41134D01*
X37461Y41261D01*
X37715D01*
X37842Y41134D01*
Y40753D01*
X37715Y40626D02*X37842Y40753D01*
X37461Y40626D02*X37715D01*
X37334Y40753D02*X37461Y40626D01*
X43500Y42746D02*Y41857D01*
X43627Y41730D01*
X43881D01*
X44008Y41857D01*
Y42746D02*Y41857D01*
X44313Y42619D02*X44440Y42746D01*
X44821D01*
X44948Y42619D01*
Y42365D01*
X44313Y41730D02*X44948Y42365D01*
X44313Y41730D02*X44948D01*
X39646Y40522D02*X40154D01*
X40281Y40395D01*
Y40141D01*
X40154Y40014D02*X40281Y40141D01*
X39773Y40014D02*X40154D01*
X39773Y40522D02*Y39506D01*
X39976Y40014D02*X40281Y39506D01*
X40586Y40319D02*X40789Y40522D01*
Y39506D01*
X40586D02*X40967D01*
X41271Y40395D02*X41398Y40522D01*
X41779D01*
X41906Y40395D01*
Y40141D01*
X41271Y39506D02*X41906Y40141D01*
X41271Y39506D02*X41906D01*
X36870Y37526D02*X37378D01*
X37505Y37399D01*
Y37145D01*
X37378Y37018D02*X37505Y37145D01*
X36997Y37018D02*X37378D01*
X36997Y37526D02*Y36510D01*
X37200Y37018D02*X37505Y36510D01*
X38191Y37526D02*X38318Y37399D01*
X37937Y37526D02*X38191D01*
X37810Y37399D02*X37937Y37526D01*
X37810Y37399D02*Y36637D01*
X37937Y36510D01*
X38191Y37069D02*X38318Y36942D01*
X37810Y37069D02*X38191D01*
X37937Y36510D02*X38191D01*
X38318Y36637D01*
Y36942D02*Y36637D01*
X39780Y31541D02*Y30525D01*
X40111Y31541D02*X40288Y31363D01*
Y30703D01*
X40111Y30525D02*X40288Y30703D01*
X39654Y30525D02*X40111D01*
X39654Y31541D02*X40111D01*
X40593Y31338D02*X40797Y31541D01*
Y30525D01*
X40593D02*X40974D01*
X41279Y31338D02*X41482Y31541D01*
Y30525D01*
X41279D02*X41660D01*
X46962Y45868D02*X47470D01*
X47597Y45741D01*
Y45487D01*
X47470Y45360D02*X47597Y45487D01*
X47089Y45360D02*X47470D01*
X47089Y45868D02*Y44852D01*
X47292Y45360D02*X47597Y44852D01*
X47902Y45868D02*X48410D01*
X47902D02*Y45360D01*
X48029Y45487D01*
X48283D01*
X48410Y45360D01*
Y44979D01*
X48283Y44852D02*X48410Y44979D01*
X48029Y44852D02*X48283D01*
X47902Y44979D02*X48029Y44852D01*
X48715Y45665D02*X48918Y45868D01*
Y44852D01*
X48715D02*X49096D01*
X39158Y46196D02*X39285Y46069D01*
X38777Y46196D02*X39158D01*
X38650Y46069D02*X38777Y46196D01*
X38650Y46069D02*Y45815D01*
X38777Y45688D01*
X39158D01*
X39285Y45561D01*
Y45307D01*
X39158Y45180D02*X39285Y45307D01*
X38777Y45180D02*X39158D01*
X38650Y45307D02*X38777Y45180D01*
X39590Y46069D02*X39717Y46196D01*
X40098D01*
X40225Y46069D01*
Y45815D01*
X39590Y45180D02*X40225Y45815D01*
X39590Y45180D02*X40225D01*
X42700Y55146D02*Y54257D01*
X42827Y54130D01*
X43081D01*
X43208Y54257D01*
Y55146D02*Y54257D01*
X43513Y55146D02*X44021D01*
X43513D02*Y54638D01*
X43640Y54765D01*
X43894D01*
X44021Y54638D01*
Y54257D01*
X43894Y54130D02*X44021Y54257D01*
X43640Y54130D02*X43894D01*
X43513Y54257D02*X43640Y54130D01*
X36518Y54766D02*X37026D01*
X37153Y54639D01*
Y54385D01*
X37026Y54258D02*X37153Y54385D01*
X36645Y54258D02*X37026D01*
X36645Y54766D02*Y53750D01*
X36848Y54258D02*X37153Y53750D01*
X37458Y54563D02*X37661Y54766D01*
Y53750D01*
X37458D02*X37839D01*
X38144Y54563D02*X38347Y54766D01*
Y53750D01*
X38144D02*X38525D01*
X38504Y50266D02*X39012D01*
X39139Y50139D01*
Y49885D01*
X39012Y49758D02*X39139Y49885D01*
X38631Y49758D02*X39012D01*
X38631Y50266D02*Y49250D01*
X38834Y49758D02*X39139Y49250D01*
X39444Y49377D02*X39571Y49250D01*
X39444Y49580D02*Y49377D01*
Y49580D02*X39622Y49758D01*
X39774D01*
X39952Y49580D01*
Y49377D01*
X39825Y49250D02*X39952Y49377D01*
X39571Y49250D02*X39825D01*
X39444Y49936D02*X39622Y49758D01*
X39444Y50139D02*Y49936D01*
Y50139D02*X39571Y50266D01*
X39825D01*
X39952Y50139D01*
Y49936D01*
X39774Y49758D02*X39952Y49936D01*
X34753Y56679D02*Y56171D01*
Y56679D02*X34880Y56806D01*
X35134D01*
X35261Y56679D02*X35134Y56806D01*
X35261Y56679D02*Y56298D01*
X34753D02*X35769D01*
X35261Y56501D02*X35769Y56806D01*
Y57237D02*X34753Y57745D01*
Y57110D01*
X39650Y52246D02*X40158D01*
X40285Y52119D01*
Y51865D01*
X40158Y51738D02*X40285Y51865D01*
X39777Y51738D02*X40158D01*
X39777Y52246D02*Y51230D01*
X39980Y51738D02*X40285Y51230D01*
X40590Y52043D02*X40793Y52246D01*
Y51230D01*
X40590D02*X40971D01*
X41276Y51357D02*X41403Y51230D01*
X41276Y52119D02*Y51357D01*
Y52119D02*X41403Y52246D01*
X41657D01*
X41784Y52119D01*
Y51357D01*
X41657Y51230D02*X41784Y51357D01*
X41403Y51230D02*X41657D01*
X41276Y51484D02*X41784Y51992D01*
X43286Y61738D02*Y61047D01*
X43510Y61738D02*X43631Y61617D01*
Y61168D01*
X43510Y61047D02*X43631Y61168D01*
X43200Y61047D02*X43510D01*
X43200Y61738D02*X43510D01*
X43839Y61599D02*X43977Y61738D01*
Y61047D01*
X43839D02*X44098D01*
X37989Y61775D02*Y61064D01*
X38220Y61775D02*X38344Y61651D01*
Y61188D01*
X38220Y61064D02*X38344Y61188D01*
X37900Y61064D02*X38220D01*
X37900Y61775D02*X38220D01*
X38558D02*X38913D01*
X38558D02*Y61420D01*
X38646Y61508D01*
X38824D01*
X38913Y61420D01*
Y61153D01*
X38824Y61064D02*X38913Y61153D01*
X38646Y61064D02*X38824D01*
X38558Y61153D02*X38646Y61064D01*
X39290Y61769D02*Y61048D01*
X39524Y61769D02*X39650Y61643D01*
Y61174D01*
X39524Y61048D02*X39650Y61174D01*
X39199Y61048D02*X39524D01*
X39199Y61769D02*X39524D01*
X39867Y61318D02*X40227Y61769D01*
X39867Y61318D02*X40318D01*
X40227Y61769D02*Y61048D01*
X40608Y61754D02*Y61043D01*
X40839Y61754D02*X40964Y61630D01*
Y61167D01*
X40839Y61043D02*X40964Y61167D01*
X40519Y61043D02*X40839D01*
X40519Y61754D02*X40839D01*
X41177Y61665D02*X41266Y61754D01*
X41444D01*
X41533Y61665D01*
X41444Y61043D02*X41533Y61132D01*
X41266Y61043D02*X41444D01*
X41177Y61132D02*X41266Y61043D01*
Y61434D02*X41444D01*
X41533Y61665D02*Y61523D01*
Y61345D02*Y61132D01*
Y61345D02*X41444Y61434D01*
X41533Y61523D02*X41444Y61434D01*
X41888Y61762D02*Y61051D01*
X42119Y61762D02*X42244Y61637D01*
Y61175D01*
X42119Y61051D02*X42244Y61175D01*
X41799Y61051D02*X42119D01*
X41799Y61762D02*X42119D01*
X42457Y61673D02*X42546Y61762D01*
X42813D01*
X42902Y61673D01*
Y61495D01*
X42457Y61051D02*X42902Y61495D01*
X42457Y61051D02*X42902D01*
X36450Y61934D02*Y61178D01*
X36558Y61070D01*
X36774D01*
X36882Y61178D01*
Y61934D02*Y61178D01*
X37141D02*X37249Y61070D01*
X37141Y61351D02*Y61178D01*
Y61351D02*X37292Y61502D01*
X37422D01*
X37573Y61351D01*
Y61178D01*
X37465Y61070D02*X37573Y61178D01*
X37249Y61070D02*X37465D01*
X37141Y61653D02*X37292Y61502D01*
X37141Y61826D02*Y61653D01*
Y61826D02*X37249Y61934D01*
X37465D01*
X37573Y61826D01*
Y61653D01*
X37422Y61502D02*X37573Y61653D01*
X37959Y48640D02*X38467D01*
X38594Y48513D01*
Y48259D01*
X38467Y48132D02*X38594Y48259D01*
X38086Y48132D02*X38467D01*
X38086Y48640D02*Y47624D01*
X38289Y48132D02*X38594Y47624D01*
X39025D02*X39406Y48132D01*
Y48513D02*Y48132D01*
X39279Y48640D02*X39406Y48513D01*
X39025Y48640D02*X39279D01*
X38898Y48513D02*X39025Y48640D01*
X38898Y48513D02*Y48259D01*
X39025Y48132D01*
X39406D01*
X43978Y46930D02*X44308D01*
X43800Y47108D02*X43978Y46930D01*
X43800Y47768D02*Y47108D01*
Y47768D02*X43978Y47946D01*
X44308D01*
X44740Y46930D02*X45248Y47946D01*
X44613D02*X45248D01*
X45552Y47819D02*X45679Y47946D01*
X45933D01*
X46060Y47819D01*
X45933Y46930D02*X46060Y47057D01*
X45679Y46930D02*X45933D01*
X45552Y47057D02*X45679Y46930D01*
Y47488D02*X45933D01*
X46060Y47819D02*Y47616D01*
Y47362D02*Y47057D01*
Y47362D02*X45933Y47488D01*
X46060Y47616D02*X45933Y47488D01*
X33428Y3481D02*X33759D01*
X33251Y3658D02*X33428Y3481D01*
X33251Y4319D02*Y3658D01*
Y4319D02*X33428Y4497D01*
X33759D01*
X34063D02*X34571D01*
X34063D02*Y3989D01*
X34190Y4116D01*
X34444D01*
X34571Y3989D01*
Y3608D01*
X34444Y3481D02*X34571Y3608D01*
X34190Y3481D02*X34444D01*
X34063Y3608D02*X34190Y3481D01*
X35257Y4497D02*X35384Y4370D01*
X35003Y4497D02*X35257D01*
X34876Y4370D02*X35003Y4497D01*
X34876Y4370D02*Y3608D01*
X35003Y3481D01*
X35257Y4039D02*X35384Y3912D01*
X34876Y4039D02*X35257D01*
X35003Y3481D02*X35257D01*
X35384Y3608D01*
Y3912D02*Y3608D01*
X33439Y11917D02*X33769D01*
X33261Y12095D02*X33439Y11917D01*
X33261Y12755D02*Y12095D01*
Y12755D02*X33439Y12933D01*
X33769D01*
X34074D02*X34582D01*
X34074D02*Y12425D01*
X34201Y12552D01*
X34455D01*
X34582Y12425D01*
Y12044D01*
X34455Y11917D02*X34582Y12044D01*
X34201Y11917D02*X34455D01*
X34074Y12044D02*X34201Y11917D01*
X34887Y12806D02*X35014Y12933D01*
X35268D01*
X35395Y12806D01*
X35268Y11917D02*X35395Y12044D01*
X35014Y11917D02*X35268D01*
X34887Y12044D02*X35014Y11917D01*
Y12476D02*X35268D01*
X35395Y12806D02*Y12603D01*
Y12349D02*Y12044D01*
Y12349D02*X35268Y12476D01*
X35395Y12603D02*X35268Y12476D01*
X43050Y16046D02*Y15157D01*
X43177Y15030D01*
X43431D01*
X43558Y15157D01*
Y16046D02*Y15157D01*
X43863Y15411D02*X44371Y16046D01*
X43863Y15411D02*X44498D01*
X44371Y16046D02*Y15030D01*
X45350Y10196D02*X45858D01*
X45985Y10069D01*
Y9815D01*
X45858Y9688D02*X45985Y9815D01*
X45477Y9688D02*X45858D01*
X45477Y10196D02*Y9180D01*
X45680Y9688D02*X45985Y9180D01*
X46290Y9561D02*X46798Y10196D01*
X46290Y9561D02*X46925D01*
X46798Y10196D02*Y9180D01*
X47230Y9993D02*X47433Y10196D01*
Y9180D01*
X47230D02*X47611D01*
X46420Y5658D02*Y5328D01*
X46242Y5150D02*X46420Y5328D01*
X45582Y5150D02*X46242D01*
X45582D02*X45404Y5328D01*
Y5658D02*Y5328D01*
X46039Y5963D02*X45404Y6471D01*
X46039Y6598D02*Y5963D01*
X45404Y6471D02*X46420D01*
X46293Y6903D02*X46420Y7030D01*
X46090Y6903D02*X46293D01*
X46090D02*X45912Y7080D01*
Y7233D02*Y7080D01*
Y7233D02*X46090Y7411D01*
X46293D01*
X46420Y7284D02*X46293Y7411D01*
X46420Y7284D02*Y7030D01*
X45734Y6903D02*X45912Y7080D01*
X45531Y6903D02*X45734D01*
X45531D02*X45404Y7030D01*
Y7284D02*Y7030D01*
Y7284D02*X45531Y7411D01*
X45734D01*
X45912Y7233D02*X45734Y7411D01*
X39527Y26046D02*Y25030D01*
X39857Y26046D02*X40035Y25868D01*
Y25208D01*
X39857Y25030D02*X40035Y25208D01*
X39400Y25030D02*X39857D01*
X39400Y26046D02*X39857D01*
X40340Y25843D02*X40543Y26046D01*
Y25030D01*
X40340D02*X40721D01*
X41026Y25157D02*X41153Y25030D01*
X41026Y25919D02*Y25157D01*
Y25919D02*X41153Y26046D01*
X41407D01*
X41534Y25919D01*
Y25157D01*
X41407Y25030D02*X41534Y25157D01*
X41153Y25030D02*X41407D01*
X41026Y25284D02*X41534Y25792D01*
X35850Y20812D02*Y19796D01*
Y20812D02*X36485Y19796D01*
Y20812D02*Y19796D01*
X36790Y20685D02*X36917Y20812D01*
X37298D01*
X37425Y20685D01*
Y20431D01*
X36790Y19796D02*X37425Y20431D01*
X36790Y19796D02*X37425D01*
X61952Y28058D02*X62460D01*
X62587Y27931D01*
Y27677D01*
X62460Y27550D02*X62587Y27677D01*
X62079Y27550D02*X62460D01*
X62079Y28058D02*Y27042D01*
X62282Y27550D02*X62587Y27042D01*
X62892Y28058D02*X63400D01*
X62892D02*Y27550D01*
X63019Y27677D01*
X63273D01*
X63400Y27550D01*
Y27169D01*
X63273Y27042D02*X63400Y27169D01*
X63019Y27042D02*X63273D01*
X62892Y27169D02*X63019Y27042D01*
X63704Y27169D02*X63831Y27042D01*
X63704Y27931D02*Y27169D01*
Y27931D02*X63831Y28058D01*
X64085D01*
X64212Y27931D01*
Y27169D01*
X64085Y27042D02*X64212Y27169D01*
X63831Y27042D02*X64085D01*
X63704Y27296D02*X64212Y27804D01*
X48028Y17340D02*X48536D01*
X48662Y17213D01*
Y16959D01*
X48536Y16832D02*X48662Y16959D01*
X48154Y16832D02*X48536D01*
X48154Y17340D02*Y16324D01*
X48358Y16832D02*X48662Y16324D01*
X48967Y16705D02*X49475Y17340D01*
X48967Y16705D02*X49602D01*
X49475Y17340D02*Y16324D01*
X50034D02*X50542Y17340D01*
X49907D02*X50542D01*
X57778Y61896D02*X57981D01*
Y61007D01*
X57854Y60880D02*X57981Y61007D01*
X57727Y60880D02*X57854D01*
X57600Y61007D02*X57727Y60880D01*
X57600Y61134D02*Y61007D01*
X58286Y61769D02*X58413Y61896D01*
X58667D01*
X58794Y61769D01*
X58667Y60880D02*X58794Y61007D01*
X58413Y60880D02*X58667D01*
X58286Y61007D02*X58413Y60880D01*
Y61439D02*X58667D01*
X58794Y61769D02*Y61566D01*
Y61312D02*Y61007D01*
Y61312D02*X58667Y61439D01*
X58794Y61566D02*X58667Y61439D01*
X56698Y58124D02*Y57235D01*
X56825Y57108D01*
X57079D01*
X57206Y57235D01*
Y58124D02*Y57235D01*
X57892Y58124D02*X58019Y57997D01*
X57638Y58124D02*X57892D01*
X57511Y57997D02*X57638Y58124D01*
X57511Y57997D02*Y57235D01*
X57638Y57108D01*
X57892Y57667D02*X58019Y57540D01*
X57511Y57667D02*X57892D01*
X57638Y57108D02*X57892D01*
X58019Y57235D01*
Y57540D02*Y57235D01*
X50628Y44880D02*X50958D01*
X50450Y45058D02*X50628Y44880D01*
X50450Y45718D02*Y45058D01*
Y45718D02*X50628Y45896D01*
X50958D01*
X51390Y44880D02*X51898Y45896D01*
X51263D02*X51898D01*
X52202Y45261D02*X52710Y45896D01*
X52202Y45261D02*X52837D01*
X52710Y45896D02*Y44880D01*
X53722Y44872D02*X54052D01*
X53544Y45050D02*X53722Y44872D01*
X53544Y45710D02*Y45050D01*
Y45710D02*X53722Y45888D01*
X54052D01*
X54484Y44872D02*X54992Y45888D01*
X54357D02*X54992D01*
X55297Y44999D02*X55424Y44872D01*
X55297Y45202D02*Y44999D01*
Y45202D02*X55474Y45380D01*
X55627D01*
X55805Y45202D01*
Y44999D01*
X55678Y44872D02*X55805Y44999D01*
X55424Y44872D02*X55678D01*
X55297Y45558D02*X55474Y45380D01*
X55297Y45761D02*Y45558D01*
Y45761D02*X55424Y45888D01*
X55678D01*
X55805Y45761D01*
Y45558D01*
X55627Y45380D02*X55805Y45558D01*
X58492Y46591D02*X58822D01*
X58314Y46768D02*X58492Y46591D01*
X58314Y47429D02*Y46768D01*
Y47429D02*X58492Y47607D01*
X58822D01*
X59254Y46591D02*X59762Y47607D01*
X59127D02*X59762D01*
X60448D02*X60575Y47480D01*
X60194Y47607D02*X60448D01*
X60067Y47480D02*X60194Y47607D01*
X60067Y47480D02*Y46718D01*
X60194Y46591D01*
X60448Y47149D02*X60575Y47022D01*
X60067Y47149D02*X60448D01*
X60194Y46591D02*X60448D01*
X60575Y46718D01*
Y47022D02*Y46718D01*
X59394Y49868D02*X59724D01*
X59216Y50046D02*X59394Y49868D01*
X59216Y50706D02*Y50046D01*
Y50706D02*X59394Y50884D01*
X59724D01*
X60156Y49868D02*X60664Y50884D01*
X60029D02*X60664D01*
X61096Y49868D02*X61604Y50884D01*
X60969D02*X61604D01*
X58478Y16480D02*X58808D01*
X58300Y16658D02*X58478Y16480D01*
X58300Y17318D02*Y16658D01*
Y17318D02*X58478Y17496D01*
X58808D01*
X59494D02*X59621Y17369D01*
X59240Y17496D02*X59494D01*
X59113Y17369D02*X59240Y17496D01*
X59113Y17369D02*Y16607D01*
X59240Y16480D01*
X59494Y17039D02*X59621Y16912D01*
X59113Y17039D02*X59494D01*
X59240Y16480D02*X59494D01*
X59621Y16607D01*
Y16912D02*Y16607D01*
X60053Y16480D02*X60561Y17496D01*
X59926D02*X60561D01*
X66264Y378D02*X66594D01*
X66086Y556D02*X66264Y378D01*
X66086Y1216D02*Y556D01*
Y1216D02*X66264Y1394D01*
X66594D01*
X66899Y1267D02*Y505D01*
Y1267D02*X67026Y1394D01*
X67280D01*
X67407Y1267D01*
Y505D01*
X67280Y378D02*X67407Y505D01*
X67026Y378D02*X67280D01*
X66899Y505D02*X67026Y378D01*
X67711Y1394D02*Y378D01*
Y1394D02*X68346Y378D01*
Y1394D02*Y378D01*
X68651Y1394D02*Y378D01*
Y1394D02*X69286Y378D01*
Y1394D02*Y378D01*
X69591Y1267D02*X69718Y1394D01*
X69972D01*
X70099Y1267D01*
X69972Y378D02*X70099Y505D01*
X69718Y378D02*X69972D01*
X69591Y505D02*X69718Y378D01*
Y937D02*X69972D01*
X70099Y1267D02*Y1064D01*
Y810D02*Y505D01*
Y810D02*X69972Y937D01*
X70099Y1064D02*X69972Y937D01*
X58278Y11696D02*X58481D01*
Y10807D01*
X58354Y10680D02*X58481Y10807D01*
X58227Y10680D02*X58354D01*
X58100Y10807D02*X58227Y10680D01*
X58100Y10934D02*Y10807D01*
X58786Y11569D02*X58913Y11696D01*
X59294D01*
X59421Y11569D01*
Y11315D01*
X58786Y10680D02*X59421Y11315D01*
X58786Y10680D02*X59421D01*
X52496Y12622D02*Y11606D01*
X53004D01*
X53309Y12419D02*X53512Y12622D01*
Y11606D01*
X53309D02*X53690D01*
X49056Y10442D02*X49472D01*
X49576Y10338D01*
Y10130D01*
X49472Y10025D02*X49576Y10130D01*
X49160Y10025D02*X49472D01*
X49160Y10442D02*Y9609D01*
X49327Y10025D02*X49576Y9609D01*
X49826Y10442D02*X50243D01*
X49826D02*Y10025D01*
X49931Y10130D01*
X50139D01*
X50243Y10025D01*
Y9713D01*
X50139Y9609D02*X50243Y9713D01*
X49931Y9609D02*X50139D01*
X49826Y9713D02*X49931Y9609D01*
X50805Y10442D02*X50909Y10338D01*
X50597Y10442D02*X50805D01*
X50493Y10338D02*X50597Y10442D01*
X50493Y10338D02*Y9713D01*
X50597Y9609D01*
X50805Y10067D02*X50909Y9963D01*
X50493Y10067D02*X50805D01*
X50597Y9609D02*X50805D01*
X50909Y9713D01*
Y9963D02*Y9713D01*
X50376Y592D02*X50703D01*
X50200Y768D02*X50376Y592D01*
X50200Y1422D02*Y768D01*
Y1422D02*X50376Y1598D01*
X50703D01*
X51130Y592D02*X51633Y1598D01*
X51004D02*X51633D01*
X51935D02*X52438D01*
X51935D02*Y1095D01*
X52061Y1221D01*
X52312D01*
X52438Y1095D01*
Y718D01*
X52312Y592D02*X52438Y718D01*
X52061Y592D02*X52312D01*
X51935Y718D02*X52061Y592D01*
X50650Y2967D02*Y2238D01*
X50754Y2134D01*
X50962D01*
X51067Y2238D01*
Y2967D02*Y2238D01*
X51421Y2134D02*X51837Y2967D01*
X51316D02*X51837D01*
X48094Y1696D02*X48424D01*
X47916Y1874D02*X48094Y1696D01*
X47916Y2534D02*Y1874D01*
Y2534D02*X48094Y2712D01*
X48424D01*
X48856Y1696D02*X49364Y2712D01*
X48729D02*X49364D01*
X49796Y1696D02*X50177Y2204D01*
Y2585D02*Y2204D01*
X50050Y2712D02*X50177Y2585D01*
X49796Y2712D02*X50050D01*
X49669Y2585D02*X49796Y2712D01*
X49669Y2585D02*Y2331D01*
X49796Y2204D01*
X50177D01*
X47804Y7870D02*X48221D01*
X48325Y7766D01*
Y7557D01*
X48221Y7453D02*X48325Y7557D01*
X47908Y7453D02*X48221D01*
X47908Y7870D02*Y7037D01*
X48075Y7453D02*X48325Y7037D01*
X48575Y7870D02*X48991D01*
X48575D02*Y7453D01*
X48679Y7557D01*
X48887D01*
X48991Y7453D01*
Y7141D01*
X48887Y7037D02*X48991Y7141D01*
X48679Y7037D02*X48887D01*
X48575Y7141D02*X48679Y7037D01*
X49241Y7870D02*X49658D01*
X49241D02*Y7453D01*
X49345Y7557D01*
X49554D01*
X49658Y7453D01*
Y7141D01*
X49554Y7037D02*X49658Y7141D01*
X49345Y7037D02*X49554D01*
X49241Y7141D02*X49345Y7037D01*
X54085Y12746D02*X54416D01*
X53908Y12924D02*X54085Y12746D01*
X53908Y13584D02*Y12924D01*
Y13584D02*X54085Y13762D01*
X54416D01*
X55101D02*X55228Y13635D01*
X54847Y13762D02*X55101D01*
X54720Y13635D02*X54847Y13762D01*
X54720Y13635D02*Y12873D01*
X54847Y12746D01*
X55101Y13305D02*X55228Y13178D01*
X54720Y13305D02*X55101D01*
X54847Y12746D02*X55101D01*
X55228Y12873D01*
Y13178D02*Y12873D01*
X55533Y13635D02*X55660Y13762D01*
X55914D01*
X56041Y13635D01*
X55914Y12746D02*X56041Y12873D01*
X55660Y12746D02*X55914D01*
X55533Y12873D02*X55660Y12746D01*
Y13305D02*X55914D01*
X56041Y13635D02*Y13432D01*
Y13178D02*Y12873D01*
Y13178D02*X55914Y13305D01*
X56041Y13432D02*X55914Y13305D01*
X56500Y14130D02*X57135Y15146D01*
X56500D02*X57135Y14130D01*
X57440Y15019D02*X57567Y15146D01*
X57948D01*
X58075Y15019D01*
Y14765D01*
X57440Y14130D02*X58075Y14765D01*
X57440Y14130D02*X58075D01*
X58031Y12442D02*X58351D01*
X57858Y12614D02*X58031Y12442D01*
X57858Y13255D02*Y12614D01*
Y13255D02*X58031Y13427D01*
X58351D01*
X58647Y12565D02*X58770Y12442D01*
X58647Y12762D02*Y12565D01*
Y12762D02*X58819Y12934D01*
X58967D01*
X59139Y12762D01*
Y12565D01*
X59016Y12442D02*X59139Y12565D01*
X58770Y12442D02*X59016D01*
X58647Y13107D02*X58819Y12934D01*
X58647Y13304D02*Y13107D01*
Y13304D02*X58770Y13427D01*
X59016D01*
X59139Y13304D01*
Y13107D01*
X58967Y12934D02*X59139Y13107D01*
X59435Y12565D02*X59558Y12442D01*
X59435Y13304D02*Y12565D01*
Y13304D02*X59558Y13427D01*
X59805D01*
X59928Y13304D01*
Y12565D01*
X59805Y12442D02*X59928Y12565D01*
X59558Y12442D02*X59805D01*
X59435Y12688D02*X59928Y13181D01*
X50509Y14247D02*X50636Y14120D01*
X50128Y14247D02*X50509D01*
X50001Y14120D02*X50128Y14247D01*
X50001Y14120D02*Y13866D01*
X50128Y13739D01*
X50509D01*
X50636Y13612D01*
Y13358D01*
X50509Y13231D02*X50636Y13358D01*
X50128Y13231D02*X50509D01*
X50001Y13358D02*X50128Y13231D01*
X50941Y14120D02*X51068Y14247D01*
X51322D01*
X51449Y14120D01*
X51322Y13231D02*X51449Y13358D01*
X51068Y13231D02*X51322D01*
X50941Y13358D02*X51068Y13231D01*
Y13790D02*X51322D01*
X51449Y14120D02*Y13917D01*
Y13663D02*Y13358D01*
Y13663D02*X51322Y13790D01*
X51449Y13917D02*X51322Y13790D01*
X7666Y23862D02*X8174D01*
X8301Y23735D01*
Y23481D01*
X8174Y23354D02*X8301Y23481D01*
X7793Y23354D02*X8174D01*
X7793Y23862D02*Y22846D01*
X7996Y23354D02*X8301Y22846D01*
X8987Y23862D02*X9114Y23735D01*
X8733Y23862D02*X8987D01*
X8606Y23735D02*X8733Y23862D01*
X8606Y23735D02*Y22973D01*
X8733Y22846D01*
X8987Y23405D02*X9114Y23278D01*
X8606Y23405D02*X8987D01*
X8733Y22846D02*X8987D01*
X9114Y22973D01*
Y23278D02*Y22973D01*
X9418D02*X9545Y22846D01*
X9418Y23735D02*Y22973D01*
Y23735D02*X9545Y23862D01*
X9799D01*
X9926Y23735D01*
Y22973D01*
X9799Y22846D02*X9926Y22973D01*
X9545Y22846D02*X9799D01*
X9418Y23100D02*X9926Y23608D01*
X11278Y830D02*X11608D01*
X11100Y1008D02*X11278Y830D01*
X11100Y1668D02*Y1008D01*
Y1668D02*X11278Y1846D01*
X11608D01*
X11913Y1719D02*Y957D01*
Y1719D02*X12040Y1846D01*
X12294D01*
X12421Y1719D01*
Y957D01*
X12294Y830D02*X12421Y957D01*
X12040Y830D02*X12294D01*
X11913Y957D02*X12040Y830D01*
X12726Y1846D02*Y830D01*
Y1846D02*X13361Y830D01*
Y1846D02*Y830D01*
X13665Y1846D02*Y830D01*
Y1846D02*X14300Y830D01*
Y1846D02*Y830D01*
X14605Y1211D02*X15113Y1846D01*
X14605Y1211D02*X15240D01*
X15113Y1846D02*Y830D01*
X2832Y20561D02*X3162D01*
X2654Y20739D02*X2832Y20561D01*
X2654Y21399D02*Y20739D01*
Y21399D02*X2832Y21577D01*
X3162D01*
X3467Y21450D02*Y20688D01*
Y21450D02*X3594Y21577D01*
X3848D01*
X3975Y21450D01*
Y20688D01*
X3848Y20561D02*X3975Y20688D01*
X3594Y20561D02*X3848D01*
X3467Y20688D02*X3594Y20561D01*
X4280Y21577D02*Y20561D01*
Y21577D02*X4915Y20561D01*
Y21577D02*Y20561D01*
X5220Y21577D02*Y20561D01*
Y21577D02*X5855Y20561D01*
Y21577D02*Y20561D01*
X6159Y21577D02*X6667D01*
X6159D02*Y21069D01*
X6286Y21196D01*
X6540D01*
X6667Y21069D01*
Y20688D01*
X6540Y20561D02*X6667Y20688D01*
X6286Y20561D02*X6540D01*
X6159Y20688D02*X6286Y20561D01*
X7927Y20096D02*Y19080D01*
X8257Y20096D02*X8435Y19918D01*
Y19257D01*
X8257Y19080D02*X8435Y19257D01*
X7800Y19080D02*X8257D01*
X7800Y20096D02*X8257D01*
X8740Y19892D02*X8943Y20096D01*
Y19080D01*
X8740D02*X9121D01*
X9426Y19968D02*X9553Y20096D01*
X9807D01*
X9934Y19968D01*
X9807Y19080D02*X9934Y19206D01*
X9553Y19080D02*X9807D01*
X9426Y19206D02*X9553Y19080D01*
Y19638D02*X9807D01*
X9934Y19968D02*Y19765D01*
Y19511D02*Y19206D01*
Y19511D02*X9807Y19638D01*
X9934Y19765D02*X9807Y19638D01*
X7928Y17590D02*Y16574D01*
X8258Y17590D02*X8436Y17412D01*
Y16751D01*
X8258Y16574D02*X8436Y16751D01*
X7801Y16574D02*X8258D01*
X7801Y17590D02*X8258D01*
X8741Y17386D02*X8944Y17590D01*
Y16574D01*
X8741D02*X9122D01*
X9427Y17463D02*X9554Y17590D01*
X9935D01*
X10062Y17463D01*
Y17209D01*
X9427Y16574D02*X10062Y17209D01*
X9427Y16574D02*X10062D01*
X10071Y59080D02*X10283D01*
X9957Y59194D02*X10071Y59080D01*
X9957Y59616D02*Y59194D01*
Y59616D02*X10071Y59730D01*
X10283D01*
X10478Y59649D02*Y59161D01*
Y59649D02*X10559Y59730D01*
X10721D01*
X10803Y59649D01*
Y59161D01*
X10721Y59080D02*X10803Y59161D01*
X10559Y59080D02*X10721D01*
X10478Y59161D02*X10559Y59080D01*
X10998Y59730D02*Y59080D01*
Y59730D02*X11404Y59080D01*
Y59730D02*Y59080D01*
X11599Y59730D02*Y59080D01*
Y59730D02*X12006Y59080D01*
Y59730D02*Y59080D01*
X12201Y59600D02*X12331Y59730D01*
Y59080D01*
X12201D02*X12445D01*
X12563Y61081D02*X13213D01*
X12563Y61292D02*X12677Y61406D01*
X13100D01*
X13213Y61292D02*X13100Y61406D01*
X13213Y61292D02*Y60999D01*
X12563Y61292D02*Y60999D01*
X13213Y61682D02*X12888Y61926D01*
X12644D02*X12888D01*
X12563Y61845D02*X12644Y61926D01*
X12563Y61845D02*Y61682D01*
X12644Y61601D02*X12563Y61682D01*
X12644Y61601D02*X12807D01*
X12888Y61682D01*
Y61926D02*Y61682D01*
X11613Y61081D02*X12263D01*
X11613Y61292D02*X11727Y61406D01*
X12150D01*
X12263Y61292D02*X12150Y61406D01*
X12263Y61292D02*Y60999D01*
X11613Y61292D02*Y60999D01*
X12182Y61601D02*X12263Y61682D01*
X12052Y61601D02*X12182D01*
X12052D02*X11938Y61715D01*
Y61812D02*Y61715D01*
Y61812D02*X12052Y61926D01*
X12182D01*
X12263Y61845D02*X12182Y61926D01*
X12263Y61845D02*Y61682D01*
X11824Y61601D02*X11938Y61715D01*
X11694Y61601D02*X11824D01*
X11694D02*X11613Y61682D01*
Y61845D02*Y61682D01*
Y61845D02*X11694Y61926D01*
X11824D01*
X11938Y61812D02*X11824Y61926D01*
X9842Y54430D02*X10350D01*
X10477Y54303D01*
Y54049D01*
X10350Y53922D02*X10477Y54049D01*
X9969Y53922D02*X10350D01*
X9969Y54430D02*Y53414D01*
X10172Y53922D02*X10477Y53414D01*
X10782Y54303D02*X10909Y54430D01*
X11290D01*
X11417Y54303D01*
Y54049D01*
X10782Y53414D02*X11417Y54049D01*
X10782Y53414D02*X11417D01*
X11722Y53795D02*X12230Y54430D01*
X11722Y53795D02*X12357D01*
X12230Y54430D02*Y53414D01*
X10663Y61081D02*X11313D01*
X10663Y61292D02*X10777Y61406D01*
X11200D01*
X11313Y61292D02*X11200Y61406D01*
X11313Y61292D02*Y60999D01*
X10663Y61292D02*Y60999D01*
X11313Y61682D02*X10663Y62007D01*
Y61601D01*
X9713Y61081D02*X10363D01*
X9713Y61292D02*X9827Y61406D01*
X10249D01*
X10363Y61292D02*X10249Y61406D01*
X10363Y61292D02*Y60999D01*
X9713Y61292D02*Y60999D01*
Y61845D02*X9794Y61926D01*
X9713Y61845D02*Y61682D01*
X9794Y61601D02*X9713Y61682D01*
X9794Y61601D02*X10282D01*
X10363Y61682D01*
X10006Y61845D02*X10087Y61926D01*
X10006Y61845D02*Y61601D01*
X10363Y61845D02*Y61682D01*
Y61845D02*X10282Y61926D01*
X10087D02*X10282D01*
X17854Y10709D02*X18362D01*
X18489Y10582D01*
Y10328D01*
X18362Y10201D02*X18489Y10328D01*
X17981Y10201D02*X18362D01*
X17981Y10709D02*Y9693D01*
X18184Y10201D02*X18489Y9693D01*
X18793Y10074D02*X19301Y10709D01*
X18793Y10074D02*X19428D01*
X19301Y10709D02*Y9693D01*
X19733Y9820D02*X19860Y9693D01*
X19733Y10582D02*Y9820D01*
Y10582D02*X19860Y10709D01*
X20114D01*
X20241Y10582D01*
Y9820D01*
X20114Y9693D02*X20241Y9820D01*
X19860Y9693D02*X20114D01*
X19733Y9947D02*X20241Y10455D01*
X13166Y10020D02*Y9004D01*
Y10020D02*X13801Y9004D01*
Y10020D02*Y9004D01*
X14106Y9893D02*X14233Y10020D01*
X14487D01*
X14614Y9893D01*
X14487Y9004D02*X14614Y9131D01*
X14233Y9004D02*X14487D01*
X14106Y9131D02*X14233Y9004D01*
Y9563D02*X14487D01*
X14614Y9893D02*Y9690D01*
Y9436D02*Y9131D01*
Y9436D02*X14487Y9563D01*
X14614Y9690D02*X14487Y9563D01*
X10978Y13476D02*X11181D01*
Y12587D01*
X11054Y12460D02*X11181Y12587D01*
X10927Y12460D02*X11054D01*
X10800Y12587D02*X10927Y12460D01*
X10800Y12714D02*Y12587D01*
X11486Y13273D02*X11689Y13476D01*
Y12460D01*
X11486D02*X11867D01*
X5512Y27579D02*X5842D01*
X5334Y27757D02*X5512Y27579D01*
X5334Y28417D02*Y27757D01*
Y28417D02*X5512Y28595D01*
X5842D01*
X6147Y28468D02*X6274Y28595D01*
X6528D01*
X6655Y28468D01*
X6528Y27579D02*X6655Y27706D01*
X6274Y27579D02*X6528D01*
X6147Y27706D02*X6274Y27579D01*
Y28138D02*X6528D01*
X6655Y28468D02*Y28265D01*
Y28011D02*Y27706D01*
Y28011D02*X6528Y28138D01*
X6655Y28265D02*X6528Y28138D01*
X9216Y31116D02*X9546D01*
X9038Y31294D02*X9216Y31116D01*
X9038Y31954D02*Y31294D01*
Y31954D02*X9216Y32132D01*
X9546D01*
X9851Y32005D02*X9978Y32132D01*
X10359D01*
X10486Y32005D01*
Y31751D01*
X9851Y31116D02*X10486Y31751D01*
X9851Y31116D02*X10486D01*
X11250Y32246D02*Y31357D01*
X11377Y31230D01*
X11631D01*
X11758Y31357D01*
Y32246D02*Y31357D01*
X12063Y32043D02*X12266Y32246D01*
Y31230D01*
X12063D02*X12444D01*
X7333Y29673D02*X7968Y30689D01*
X7333D02*X7968Y29673D01*
X8273Y30486D02*X8476Y30689D01*
Y29673D01*
X8273D02*X8654D01*
X3908Y31546D02*X4035Y31419D01*
X3527Y31546D02*X3908D01*
X3400Y31419D02*X3527Y31546D01*
X3400Y31419D02*Y31165D01*
X3527Y31038D01*
X3908D01*
X4035Y30911D01*
Y30657D01*
X3908Y30530D02*X4035Y30657D01*
X3527Y30530D02*X3908D01*
X3400Y30657D02*X3527Y30530D01*
X4340Y31343D02*X4543Y31546D01*
Y30530D01*
X4340D02*X4721D01*
X6584Y33646D02*X7092D01*
X7220Y33519D01*
Y33265D01*
X7092Y33138D02*X7220Y33265D01*
X6712Y33138D02*X7092D01*
X6712Y33646D02*Y32630D01*
X6915Y33138D02*X7220Y32630D01*
X7524Y33443D02*X7728Y33646D01*
Y32630D01*
X7524D02*X7905D01*
X12223Y37822D02*Y36933D01*
X12350Y36806D01*
X12604D01*
X12731Y36933D01*
Y37822D02*Y36933D01*
X13036Y37695D02*X13163Y37822D01*
X13417D01*
X13544Y37695D01*
X13417Y36806D02*X13544Y36933D01*
X13163Y36806D02*X13417D01*
X13036Y36933D02*X13163Y36806D01*
Y37365D02*X13417D01*
X13544Y37695D02*Y37492D01*
Y37238D02*Y36933D01*
Y37238D02*X13417Y37365D01*
X13544Y37492D02*X13417Y37365D01*
X6178Y36446D02*X6381D01*
Y35557D01*
X6254Y35430D02*X6381Y35557D01*
X6127Y35430D02*X6254D01*
X6000Y35557D02*X6127Y35430D01*
X6000Y35684D02*Y35557D01*
X6686Y35811D02*X7194Y36446D01*
X6686Y35811D02*X7321D01*
X7194Y36446D02*Y35430D01*
X7246Y37078D02*X7576D01*
X7068Y37256D02*X7246Y37078D01*
X7068Y37916D02*Y37256D01*
Y37916D02*X7246Y38094D01*
X7576D01*
X7881Y37967D02*Y37205D01*
Y37967D02*X8008Y38094D01*
X8262D01*
X8389Y37967D01*
Y37205D01*
X8262Y37078D02*X8389Y37205D01*
X8008Y37078D02*X8262D01*
X7881Y37205D02*X8008Y37078D01*
X8694Y38094D02*Y37078D01*
Y38094D02*X9329Y37078D01*
Y38094D02*Y37078D01*
X9634Y38094D02*Y37078D01*
Y38094D02*X10269Y37078D01*
Y38094D02*Y37078D01*
X10573Y37967D02*X10700Y38094D01*
X11081D01*
X11208Y37967D01*
Y37713D01*
X10573Y37078D02*X11208Y37713D01*
X10573Y37078D02*X11208D01*
M02*
