G04 start of page 8 for group -4063 idx -4063 *
G04 Title: (unknown), componentmask *
G04 Creator: pcb 1.99z *
G04 CreationDate: Tue 11 Sep 2012 02:04:04 GMT UTC *
G04 For: ralph *
G04 Format: Gerber/RS-274X *
G04 PCB-Dimensions (mm): 80.00 62.50 *
G04 PCB-Coordinate-Origin: lower left *
%MOMM*%
%FSLAX43Y43*%
%LNTOPMASK*%
%ADD198R,1.600X1.600*%
%ADD197R,2.000X2.000*%
%ADD196R,1.650X1.650*%
%ADD195R,0.550X0.550*%
%ADD194R,1.300X1.300*%
%ADD193R,1.549X1.549*%
%ADD192C,0.499*%
%ADD191R,0.650X0.650*%
%ADD190C,0.002*%
%ADD189R,0.450X0.450*%
%ADD188R,5.502X5.502*%
%ADD187R,1.042X1.042*%
%ADD186R,1.450X1.450*%
%ADD185R,0.400X0.400*%
%ADD184R,0.852X0.852*%
%ADD183R,0.658X0.658*%
%ADD182C,0.350*%
%ADD181C,0.550*%
%ADD180R,1.150X1.150*%
%ADD179C,0.600*%
%ADD178R,0.900X0.900*%
%ADD177C,3.452*%
%ADD176C,2.452*%
%ADD175C,1.575*%
%ADD174C,3.850*%
%ADD173C,2.852*%
%ADD172C,4.402*%
%ADD171C,3.902*%
%ADD170C,2.487*%
%ADD169C,1.550*%
%ADD168C,1.650*%
G54D168*X1490Y13100D03*
X4030D03*
X6570D03*
X9110D03*
G54D169*X66110Y23630D03*
Y26170D03*
Y28710D03*
Y35060D03*
G54D170*X64840Y17280D03*
G54D171*X3800Y5650D03*
G54D172*X9800D03*
G54D168*X59150Y9060D03*
Y6520D03*
Y3980D03*
G54D169*X68650Y5850D03*
X66110Y7120D03*
X68650Y8390D03*
X66110Y9660D03*
X68650Y10930D03*
X66110Y12200D03*
Y14740D03*
Y21090D03*
G54D173*X71950Y1780D03*
G54D168*X59150Y1440D03*
G54D174*X75000Y4580D03*
G54D169*X68650Y36330D03*
Y38870D03*
Y41410D03*
X66110Y37600D03*
Y40140D03*
Y42680D03*
Y49030D03*
Y51570D03*
Y54110D03*
X68650Y47760D03*
Y50300D03*
Y52840D03*
Y55380D03*
X66110Y56650D03*
G54D168*X60500Y58370D03*
Y60910D03*
G54D170*X64840Y45220D03*
G54D173*X71950Y60720D03*
G54D174*X75000Y57920D03*
G54D168*X79060Y3830D03*
Y6370D03*
Y14220D03*
Y16760D03*
X77280Y17800D03*
Y20340D03*
X79060Y28190D03*
Y30730D03*
X77280Y31770D03*
Y34310D03*
Y42160D03*
Y44700D03*
X79060Y45740D03*
Y48280D03*
Y56130D03*
Y58670D03*
G54D169*X68650Y13470D03*
Y19820D03*
Y22360D03*
Y24900D03*
Y27440D03*
Y33790D03*
G54D170*X64840Y31250D03*
G54D175*X1780Y36650D03*
X4320D03*
G54D176*X1550Y54500D03*
Y40000D03*
G54D177*X7500Y54500D03*
Y40000D03*
G54D168*X60500Y53290D03*
Y55830D03*
G54D178*X16975Y10800D02*X17225D01*
X16975Y9500D02*X17225D01*
X15275Y10800D02*X15525D01*
X15275Y9500D02*X15525D01*
G54D179*X20000Y23000D03*
Y22000D03*
X17000Y23000D03*
Y22000D03*
X18000D03*
X19000D03*
X18000Y23000D03*
X19000D03*
X21000D03*
Y22000D03*
Y19000D03*
Y18000D03*
Y17000D03*
X20000Y21000D03*
X21000D03*
Y20000D03*
Y16000D03*
X16000Y23000D03*
Y22000D03*
Y21000D03*
X17000D03*
X18000D03*
X16000Y20000D03*
X17000D03*
X18000D03*
X16000Y19000D03*
Y18000D03*
Y17000D03*
Y16000D03*
X17000Y19000D03*
Y18000D03*
Y17000D03*
Y16000D03*
X18000Y19000D03*
Y18000D03*
Y17000D03*
Y16000D03*
X19000Y21000D03*
Y20000D03*
X20000D03*
X19000Y19000D03*
X20000D03*
X19000Y18000D03*
X20000D03*
X19000Y17000D03*
X20000D03*
X19000Y16000D03*
X20000D03*
G54D180*X7000Y19750D02*Y19250D01*
Y17250D02*Y16750D01*
G54D181*X14000Y24920D03*
G54D182*X13900Y25020D02*X14100D01*
G54D179*X14000Y24000D03*
X15000D03*
G54D182*X13875Y24970D02*X14125D01*
G54D179*X14000Y23000D03*
Y22000D03*
Y21000D03*
X15000Y25000D03*
X16000D03*
X17000D03*
X18000D03*
X19000D03*
X20000D03*
X21000D03*
X15000Y23000D03*
Y22000D03*
Y21000D03*
X25000Y25000D03*
Y24000D03*
Y23000D03*
Y22000D03*
X22000Y21000D03*
Y19000D03*
Y18000D03*
Y17000D03*
Y16000D03*
X23000Y21000D03*
Y19000D03*
Y18000D03*
Y17000D03*
Y16000D03*
X24000Y21000D03*
Y19000D03*
Y18000D03*
Y17000D03*
Y16000D03*
X25000Y21000D03*
Y19000D03*
Y18000D03*
Y17000D03*
Y16000D03*
X22000Y20000D03*
X23000D03*
X24000D03*
X25000D03*
X14000D03*
X15000D03*
X14000Y19000D03*
X15000D03*
X14000Y18000D03*
X15000D03*
Y17000D03*
Y16000D03*
X14000Y17000D03*
Y16000D03*
G54D183*X42954Y55745D02*X43946D01*
X42954Y57015D02*X43946D01*
X42954Y58285D02*X43946D01*
X42954Y59555D02*X43946D01*
G54D184*X42800Y47200D02*Y47100D01*
Y44100D02*Y44000D01*
X40900Y44100D02*Y44000D01*
Y47200D02*Y47100D01*
G54D178*X37025Y47750D02*X37275D01*
G54D183*X37954Y59555D02*X38946D01*
X37954Y58285D02*X38946D01*
X37954Y57015D02*X38946D01*
G54D185*X33000Y58125D02*Y57375D01*
X32500Y58125D02*Y57375D01*
X32000Y58125D02*Y57375D01*
G54D183*X37954Y55745D02*X38946D01*
G54D178*X38050Y53125D02*Y52875D01*
X36750Y53125D02*Y52875D01*
Y51125D02*Y50875D01*
X38050Y51125D02*Y50875D01*
X41150Y53125D02*Y52875D01*
X39850Y53125D02*Y52875D01*
X37025Y49050D02*X37275D01*
G54D186*X44450Y51850D02*X45050D01*
X44450Y48850D02*X45050D01*
G54D187*X47440Y50300D02*Y48700D01*
X48710Y50300D02*Y48700D01*
X49980Y50300D02*Y48700D01*
X51250Y50300D02*Y48700D01*
X52520Y50300D02*Y48700D01*
X53790Y50300D02*Y48700D01*
G54D188*X51250Y58800D02*Y55400D01*
G54D178*X53850Y46975D02*Y46725D01*
X51100Y46975D02*Y46725D01*
X52400Y46975D02*Y46725D01*
X47350Y46975D02*Y46725D01*
X48650Y46975D02*Y46725D01*
G54D185*X49250Y42975D02*Y41925D01*
X48750Y42975D02*Y41925D01*
X48250Y42975D02*Y41925D01*
X47750Y42975D02*Y41925D01*
X47250Y42975D02*Y41925D01*
X46750Y42975D02*Y41925D01*
X46250Y42975D02*Y41925D01*
X45750Y42975D02*Y41925D01*
G54D178*X41250Y41475D02*Y41225D01*
X39950Y41475D02*Y41225D01*
X38200Y38425D02*Y38175D01*
Y39875D02*Y39625D01*
X36900Y38425D02*Y38175D01*
Y39875D02*Y39625D01*
G54D185*X43275Y40500D02*X44325D01*
X43275Y40000D02*X44325D01*
X43275Y39500D02*X44325D01*
X43275Y39000D02*X44325D01*
X43275Y38500D02*X44325D01*
X43275Y38000D02*X44325D01*
X43275Y37500D02*X44325D01*
X43275Y37000D02*X44325D01*
X43275Y36500D02*X44325D01*
X43275Y36000D02*X44325D01*
X52750Y42975D02*Y41925D01*
X52250Y42975D02*Y41925D01*
X54250Y42975D02*Y41925D01*
X53750Y42975D02*Y41925D01*
X53250Y42975D02*Y41925D01*
X51750Y42975D02*Y41925D01*
X51250Y42975D02*Y41925D01*
X50750Y42975D02*Y41925D01*
X50250Y42975D02*Y41925D01*
X49750Y42975D02*Y41925D01*
X28000Y36625D02*Y35875D01*
X28500Y36625D02*Y35875D01*
X29000Y36625D02*Y35875D01*
X25000Y36625D02*Y35875D01*
X25500Y36625D02*Y35875D01*
X26000Y36625D02*Y35875D01*
X26500Y36625D02*Y35875D01*
X27000Y36625D02*Y35875D01*
X27500Y36625D02*Y35875D01*
X29500Y36625D02*Y35875D01*
X30000Y36625D02*Y35875D01*
X30500Y36625D02*Y35875D01*
X31000Y36625D02*Y35875D01*
X31500Y36625D02*Y35875D01*
X32000Y36625D02*Y35875D01*
X32500Y36625D02*Y35875D01*
X33000Y36625D02*Y35875D01*
X34625Y38250D02*X35375D01*
X34625Y38750D02*X35375D01*
X34625Y39250D02*X35375D01*
X34625Y39750D02*X35375D01*
X34625Y40250D02*X35375D01*
X34625Y40750D02*X35375D01*
X34625Y41250D02*X35375D01*
X34625Y41750D02*X35375D01*
X34625Y42250D02*X35375D01*
X34625Y42750D02*X35375D01*
X34625Y43250D02*X35375D01*
X34625Y43750D02*X35375D01*
X34625Y44250D02*X35375D01*
X34625Y44750D02*X35375D01*
X34625Y45250D02*X35375D01*
X34625Y45750D02*X35375D01*
X34625Y46250D02*X35375D01*
X34625Y46750D02*X35375D01*
X34625Y47250D02*X35375D01*
X34625Y47750D02*X35375D01*
X34625Y48250D02*X35375D01*
X34625Y48750D02*X35375D01*
X34625Y49250D02*X35375D01*
X34625Y49750D02*X35375D01*
X34625Y50250D02*X35375D01*
X34625Y50750D02*X35375D01*
X34625Y51250D02*X35375D01*
G54D183*X2325Y58446D02*Y57254D01*
X3595Y58446D02*Y57254D01*
X4865Y58446D02*Y57254D01*
X6135Y58446D02*Y57254D01*
X7405Y58446D02*Y57254D01*
X8675Y58446D02*Y57254D01*
Y61746D02*Y60554D01*
G54D178*X11575Y52750D02*X11825D01*
X11575Y51450D02*X11825D01*
G54D189*X7100Y51750D02*X9550D01*
G54D183*X7405Y61746D02*Y60554D01*
X6135Y61746D02*Y60554D01*
X4865Y61746D02*Y60554D01*
X3595Y61746D02*Y60554D01*
X2325Y61746D02*Y60554D01*
G54D185*X19500Y58125D02*Y57375D01*
X19000Y58125D02*Y57375D01*
X18500Y58125D02*Y57375D01*
X18000Y58125D02*Y57375D01*
X15500Y58125D02*Y57375D01*
X13125Y55750D02*X13875D01*
X13125Y55250D02*X13875D01*
X13125Y54750D02*X13875D01*
X13125Y54250D02*X13875D01*
G54D180*X14000Y59500D02*X14500D01*
X14000Y61500D02*X14500D01*
G54D185*X17500Y58125D02*Y57375D01*
X17000Y58125D02*Y57375D01*
X16500Y58125D02*Y57375D01*
X16000Y58125D02*Y57375D01*
G54D180*X20000Y59500D02*X20500D01*
X20000Y61500D02*X20500D01*
X18000Y59500D02*X18500D01*
X18000Y61500D02*X18500D01*
X16000Y59500D02*X16500D01*
X16000Y61500D02*X16500D01*
G54D189*X7100Y49750D02*X9550D01*
X7100Y50250D02*X9550D01*
X7100Y50750D02*X9550D01*
X7100Y51250D02*X9550D01*
G54D180*X35000Y59500D02*X35500D01*
X35000Y61500D02*X35500D01*
G54D178*X36424Y57591D02*X36674D01*
G54D185*X31500Y58125D02*Y57375D01*
X31000Y58125D02*Y57375D01*
X30500Y58125D02*Y57375D01*
X30000Y58125D02*Y57375D01*
X29500Y58125D02*Y57375D01*
X29000Y58125D02*Y57375D01*
G54D180*X26497Y59501D02*X26997D01*
X26497Y61501D02*X26997D01*
X28500Y61500D02*X29000D01*
X30497Y61501D02*X30997D01*
X32500Y61500D02*X33000D01*
G54D190*G36*
X23824Y62076D02*Y60824D01*
X25076D01*
Y62076D01*
X23824D01*
G37*
G36*
Y60176D02*Y58924D01*
X25076D01*
Y60176D01*
X23824D01*
G37*
G54D180*X28500Y59500D02*X29000D01*
X30497Y59501D02*X30997D01*
X32500Y59500D02*X33000D01*
G54D190*G36*
X21924Y62076D02*Y60824D01*
X23176D01*
Y62076D01*
X21924D01*
G37*
G36*
Y60176D02*Y58924D01*
X23176D01*
Y60176D01*
X21924D01*
G37*
G54D185*X28500Y58125D02*Y57375D01*
X28000Y58125D02*Y57375D01*
X27500Y58125D02*Y57375D01*
X27000Y58125D02*Y57375D01*
X26500Y58125D02*Y57375D01*
X26000Y58125D02*Y57375D01*
X25500Y58125D02*Y57375D01*
X25000Y58125D02*Y57375D01*
X24500Y58125D02*Y57375D01*
X24000Y58125D02*Y57375D01*
X23500Y58125D02*Y57375D01*
X23000Y58125D02*Y57375D01*
X22500Y58125D02*Y57375D01*
X22000Y58125D02*Y57375D01*
X21500Y58125D02*Y57375D01*
X21000Y58125D02*Y57375D01*
X20500Y58125D02*Y57375D01*
X20000Y58125D02*Y57375D01*
G54D178*X36424Y56291D02*X36674D01*
G54D185*X34625Y52750D02*X35375D01*
X34625Y53250D02*X35375D01*
X34625Y53750D02*X35375D01*
X34625Y51750D02*X35375D01*
X34625Y52250D02*X35375D01*
X34625Y54250D02*X35375D01*
X34625Y54750D02*X35375D01*
X34625Y55250D02*X35375D01*
X34625Y55750D02*X35375D01*
X13125Y53750D02*X13875D01*
X13125Y53250D02*X13875D01*
X13125Y52750D02*X13875D01*
X13125Y52250D02*X13875D01*
X13125Y51750D02*X13875D01*
X13125Y51250D02*X13875D01*
X13125Y50750D02*X13875D01*
X13125Y50250D02*X13875D01*
X13125Y49750D02*X13875D01*
X13125Y49250D02*X13875D01*
X13125Y48750D02*X13875D01*
X13125Y48250D02*X13875D01*
X13125Y47750D02*X13875D01*
X13125Y47250D02*X13875D01*
X13125Y46750D02*X13875D01*
X13125Y46250D02*X13875D01*
X13125Y45750D02*X13875D01*
X13125Y45250D02*X13875D01*
X13125Y44750D02*X13875D01*
X13125Y44250D02*X13875D01*
X13125Y43750D02*X13875D01*
X13125Y43250D02*X13875D01*
X13125Y42750D02*X13875D01*
X13125Y42250D02*X13875D01*
X13125Y41750D02*X13875D01*
X13125Y41250D02*X13875D01*
X13125Y40750D02*X13875D01*
X13125Y40250D02*X13875D01*
X13125Y39750D02*X13875D01*
X13125Y39250D02*X13875D01*
X13125Y38750D02*X13875D01*
G54D189*X7100Y42750D02*X9550D01*
X7100Y43250D02*X9550D01*
X7100Y43750D02*X9550D01*
X7100Y44250D02*X9550D01*
X7100Y44750D02*X9550D01*
X7100Y45250D02*X9550D01*
X7100Y45750D02*X9550D01*
X7100Y46250D02*X9550D01*
X7100Y46750D02*X9550D01*
X7100Y47250D02*X9550D01*
X7100Y47750D02*X9550D01*
X7100Y48250D02*X9550D01*
X7100Y48750D02*X9550D01*
X7100Y49250D02*X9550D01*
G54D185*X59675Y22000D02*X60725D01*
X59675Y22500D02*X60725D01*
X59675Y23000D02*X60725D01*
X59675Y23500D02*X60725D01*
G54D191*X35900Y3600D02*X36100D01*
X35900Y4400D02*X36100D01*
X35900Y12400D02*X36100D01*
X35900Y11600D02*X36100D01*
G54D181*X39000Y4500D03*
X38200D03*
X39000Y5300D03*
X38200D03*
X39000Y6100D03*
X38200D03*
G54D192*X43800Y4525D02*Y4475D01*
X43000Y4525D02*Y4475D01*
G54D181*X42200Y4500D03*
G54D192*X43775Y5300D02*X43825D01*
G54D181*X43000D03*
X42200D03*
G54D192*X43775Y6100D02*X43825D01*
G54D181*X43000D03*
X42200D03*
G54D192*X43775Y6900D02*X43825D01*
G54D178*X48750Y3575D02*Y3325D01*
X50050Y3575D02*Y3325D01*
X49325Y6450D02*X49575D01*
X49325Y5150D02*X49575D01*
G54D192*X37375Y4500D02*X37425D01*
X37375Y5300D02*X37425D01*
X37375Y6100D02*X37425D01*
G54D181*X39000Y6900D03*
Y7700D03*
Y8500D03*
Y9300D03*
X38200Y6900D03*
Y7700D03*
Y8500D03*
Y9300D03*
G54D192*X37375Y6900D02*X37425D01*
X37375Y7700D02*X37425D01*
X37375Y8500D02*X37425D01*
X37375Y9300D02*X37425D01*
X37375Y10100D02*X37425D01*
X37400Y10925D02*Y10875D01*
G54D181*X39000Y10100D03*
G54D192*Y10925D02*Y10875D01*
G54D181*X38200Y10100D03*
G54D192*Y10925D02*Y10875D01*
G54D181*X43000Y6900D03*
Y7700D03*
Y8500D03*
Y9300D03*
Y10100D03*
G54D192*Y10925D02*Y10875D01*
G54D181*X42200Y6900D03*
Y7700D03*
Y8500D03*
Y9300D03*
Y10100D03*
G54D192*Y10925D02*Y10875D01*
X43775Y7700D02*X43825D01*
X43775Y8500D02*X43825D01*
X43775Y9300D02*X43825D01*
X43775Y10100D02*X43825D01*
X43800Y10925D02*Y10875D01*
G54D178*X47100Y8575D02*Y8325D01*
X45800Y8575D02*Y8325D01*
X50325Y9000D02*X50575D01*
X50325Y7700D02*X50575D01*
X47025Y5600D02*X47275D01*
X47025Y6900D02*X47275D01*
G54D184*X47349Y12201D02*Y12101D01*
X49249Y12201D02*Y12101D01*
G54D185*X52150Y3725D02*Y3125D01*
X52650Y3725D02*Y3125D01*
X53150Y3725D02*Y3125D01*
X53650Y3725D02*Y3125D01*
G54D186*X53400Y1800D02*Y1200D01*
G54D193*X56288Y10606D02*Y8194D01*
G54D186*X56400Y1800D02*Y1200D01*
G54D180*X56250Y4500D02*X56750D01*
X56250Y6500D02*X56750D01*
G54D185*X53650Y6875D02*Y6275D01*
X53150Y6875D02*Y6275D01*
X52650Y6875D02*Y6275D01*
G54D193*X53112Y10606D02*Y8194D01*
G54D185*X52150Y6875D02*Y6275D01*
X51025Y5750D02*X51625D01*
X51025Y5250D02*X51625D01*
X51025Y4750D02*X51625D01*
X51025Y4250D02*X51625D01*
X54175D02*X54775D01*
X54175Y4750D02*X54775D01*
X54175Y5250D02*X54775D01*
X54175Y5750D02*X54775D01*
G54D190*G36*
X52013Y5887D02*Y4113D01*
X53787D01*
Y5887D01*
X52013D01*
G37*
G54D185*X43275Y35500D02*X44325D01*
X43275Y35000D02*X44325D01*
X43275Y34500D02*X44325D01*
X43275Y34000D02*X44325D01*
X43275Y33500D02*X44325D01*
X43275Y33000D02*X44325D01*
X43275Y32500D02*X44325D01*
X43275Y32000D02*X44325D01*
X43275Y31500D02*X44325D01*
X43275Y31000D02*X44325D01*
X43275Y30500D02*X44325D01*
X43275Y30000D02*X44325D01*
G54D180*X41650Y29600D02*Y29100D01*
X39650Y29600D02*Y29100D01*
G54D185*X43275Y29500D02*X44325D01*
X43275Y29000D02*X44325D01*
X43275Y28500D02*X44325D01*
X43275Y28000D02*X44325D01*
X43275Y27500D02*X44325D01*
X43275Y27000D02*X44325D01*
X43275Y26500D02*X44325D01*
X43275Y26000D02*X44325D01*
X43275Y25500D02*X44325D01*
X43275Y25000D02*X44325D01*
X43275Y24500D02*X44325D01*
X43275Y24000D02*X44325D01*
G54D180*X39650Y27400D02*Y26900D01*
X41650Y27400D02*Y26900D01*
G54D178*X62675Y30000D02*X62925D01*
X62675Y28700D02*X62925D01*
G54D185*X59675Y31000D02*X60725D01*
X59675Y31500D02*X60725D01*
X59675Y27500D02*X60725D01*
X59675Y28000D02*X60725D01*
X59675Y24000D02*X60725D01*
X59675Y24500D02*X60725D01*
X59675Y25000D02*X60725D01*
X59675Y25500D02*X60725D01*
X59675Y26000D02*X60725D01*
X59675Y26500D02*X60725D01*
X59675Y27000D02*X60725D01*
X59675Y28500D02*X60725D01*
X59675Y29000D02*X60725D01*
X59675Y29500D02*X60725D01*
X59675Y30000D02*X60725D01*
X59675Y30500D02*X60725D01*
X59675Y36000D02*X60725D01*
X59675Y36500D02*X60725D01*
X59675Y37000D02*X60725D01*
X59675Y37500D02*X60725D01*
X59675Y39000D02*X60725D01*
X59675Y39500D02*X60725D01*
X59675Y40000D02*X60725D01*
X59675Y40500D02*X60725D01*
X59675Y33500D02*X60725D01*
X59675Y34000D02*X60725D01*
X59675Y32000D02*X60725D01*
X59675Y32500D02*X60725D01*
X59675Y33000D02*X60725D01*
X59675Y34500D02*X60725D01*
X59675Y35000D02*X60725D01*
X59675Y35500D02*X60725D01*
X59675Y38000D02*X60725D01*
X59675Y38500D02*X60725D01*
X58250Y42975D02*Y41925D01*
X57750Y42975D02*Y41925D01*
G54D180*X56989Y46114D02*X57489D01*
X56989Y48114D02*X57489D01*
G54D178*X57125Y51000D02*X57375D01*
X57125Y49700D02*X57375D01*
G54D185*X57250Y42975D02*Y41925D01*
X56750Y42975D02*Y41925D01*
X56250Y42975D02*Y41925D01*
X55750Y42975D02*Y41925D01*
X55250Y42975D02*Y41925D01*
X54750Y42975D02*Y41925D01*
G54D187*X55060Y50300D02*Y48700D01*
G54D178*X55150Y46975D02*Y46725D01*
G54D185*X46750Y20575D02*Y19525D01*
X47250Y20575D02*Y19525D01*
X47750Y20575D02*Y19525D01*
X48250Y20575D02*Y19525D01*
X48750Y20575D02*Y19525D01*
X51250Y20575D02*Y19525D01*
X51750Y20575D02*Y19525D01*
X52250Y20575D02*Y19525D01*
X52750Y20575D02*Y19525D01*
X53250Y20575D02*Y19525D01*
X53750Y20575D02*Y19525D01*
X54250Y20575D02*Y19525D01*
X54750Y20575D02*Y19525D01*
X55250Y20575D02*Y19525D01*
X55750Y20575D02*Y19525D01*
X56250Y20575D02*Y19525D01*
X56750Y20575D02*Y19525D01*
X57250Y20575D02*Y19525D01*
X57750Y20575D02*Y19525D01*
X58250Y20575D02*Y19525D01*
X43275Y23500D02*X44325D01*
X43275Y23000D02*X44325D01*
X43275Y22500D02*X44325D01*
X43275Y22000D02*X44325D01*
X45750Y20575D02*Y19525D01*
X46250Y20575D02*Y19525D01*
G54D184*X47349Y15301D02*Y15201D01*
G54D178*X36575Y19150D02*X36825D01*
X36575Y17850D02*X36825D01*
X51275Y17600D02*X51525D01*
X51275Y16300D02*X51525D01*
G54D185*X49250Y20575D02*Y19525D01*
X49750Y20575D02*Y19525D01*
X50250Y20575D02*Y19525D01*
X50750Y20575D02*Y19525D01*
G54D184*X49249Y15301D02*Y15201D01*
G54D194*X53475Y15975D02*X53575D01*
X53475Y17825D02*X53575D01*
G54D178*X57375Y16250D02*X57625D01*
X57375Y17550D02*X57625D01*
X55500Y14625D02*Y14375D01*
X54200Y14625D02*Y14375D01*
G54D194*X55925Y15975D02*X56025D01*
X55925Y17825D02*X56025D01*
G54D179*X26000Y29000D03*
Y28000D03*
X27000D03*
X26000Y31000D03*
Y30000D03*
X27000D03*
X28000D03*
X29000D03*
X27000Y31000D03*
X28000D03*
X29000D03*
X27000Y29000D03*
X28000D03*
X29000D03*
X27000Y20000D03*
Y19000D03*
Y18000D03*
Y17000D03*
X26000Y21000D03*
Y20000D03*
Y19000D03*
Y22000D03*
X27000D03*
Y21000D03*
X28000Y22000D03*
Y21000D03*
Y20000D03*
Y19000D03*
Y18000D03*
Y17000D03*
X29000Y22000D03*
Y21000D03*
Y20000D03*
Y19000D03*
Y18000D03*
Y17000D03*
X26000Y27000D03*
Y26000D03*
Y25000D03*
X28000Y28000D03*
X29000D03*
X28000Y27000D03*
X29000D03*
X28000Y26000D03*
X29000D03*
X27000Y27000D03*
Y26000D03*
Y25000D03*
Y24000D03*
Y23000D03*
X28000Y25000D03*
Y24000D03*
Y23000D03*
X29000Y25000D03*
Y24000D03*
Y23000D03*
X26000Y24000D03*
Y23000D03*
Y18000D03*
Y17000D03*
Y16000D03*
X27000D03*
X28000D03*
X29000D03*
G54D178*X10675Y24350D02*X10925D01*
X10675Y23050D02*X10925D01*
G54D180*X5000Y19750D02*Y19250D01*
Y17250D02*Y16750D01*
G54D178*X7375Y28600D02*X7625D01*
X9600Y30475D02*Y30225D01*
X10900Y30475D02*Y30225D01*
G54D194*X8975Y28875D02*X9075D01*
G54D178*X5625Y32491D02*X5875D01*
X5625Y33791D02*X5875D01*
G54D184*X4050Y32150D02*X4150D01*
X950D02*X1050D01*
X950Y34050D02*X1050D01*
X4050D02*X4150D01*
G54D195*X3650Y25830D02*X4600D01*
X3650Y26480D02*X4600D01*
X3650Y25180D02*X4600D01*
X3650Y27130D02*X4600D01*
G54D196*X3800Y29080D02*Y28830D01*
G54D195*X3650Y24530D02*X4600D01*
G54D196*X3800Y22830D02*Y22580D01*
G54D197*X1425Y21855D02*X1475D01*
G54D198*X1225Y24855D02*X1675D01*
X1225Y26805D02*X1675D01*
G54D197*X1425Y29805D02*X1475D01*
G54D178*X7375Y27300D02*X7625D01*
G54D194*X8975Y27025D02*X9075D01*
X11425Y28875D02*X11525D01*
G54D179*X22000Y22000D03*
X23000D03*
X24000D03*
X16000Y24000D03*
X17000D03*
X19000D03*
X18000D03*
X20000D03*
X21000D03*
G54D185*Y36625D02*Y35875D01*
X21500Y36625D02*Y35875D01*
X22000Y36625D02*Y35875D01*
G54D179*X20000Y31000D03*
X21000D03*
X22000D03*
G54D185*X15500Y36625D02*Y35875D01*
G54D179*X16000Y31000D03*
Y30000D03*
X19000Y31000D03*
X23000D03*
X24000D03*
X17000D03*
X18000D03*
X17000Y30000D03*
X22000Y25000D03*
X23000D03*
X24000D03*
X22000Y24000D03*
Y23000D03*
X23000D03*
Y24000D03*
X24000D03*
Y23000D03*
G54D185*X16000Y36625D02*Y35875D01*
X16500Y36625D02*Y35875D01*
X17000Y36625D02*Y35875D01*
X13125Y38250D02*X13875D01*
X17500Y36625D02*Y35875D01*
X18000Y36625D02*Y35875D01*
X18500Y36625D02*Y35875D01*
X19000Y36625D02*Y35875D01*
X19500Y36625D02*Y35875D01*
X20000Y36625D02*Y35875D01*
X20500Y36625D02*Y35875D01*
X22500Y36625D02*Y35875D01*
X23000Y36625D02*Y35875D01*
X23500Y36625D02*Y35875D01*
X24000Y36625D02*Y35875D01*
X24500Y36625D02*Y35875D01*
G54D179*X25000Y31000D03*
X22000Y30000D03*
X23000D03*
X24000D03*
X25000D03*
X21000Y29000D03*
X22000D03*
X23000D03*
X24000D03*
X25000D03*
Y28000D03*
X14000Y31000D03*
X15000D03*
X14000Y30000D03*
X15000D03*
X14000Y29000D03*
X15000D03*
X16000D03*
X14000Y28000D03*
X15000D03*
X16000D03*
X18000Y30000D03*
X19000D03*
X20000D03*
X21000D03*
X17000Y29000D03*
Y28000D03*
X18000Y29000D03*
X19000D03*
X20000D03*
X18000Y28000D03*
X19000D03*
X20000D03*
X21000D03*
G54D194*X11425Y27025D02*X11525D01*
G54D179*X15000Y27000D03*
X16000D03*
X17000D03*
X18000D03*
X19000D03*
X14000D03*
G54D181*Y26080D03*
G54D182*X13900Y25980D02*X14100D01*
X13875Y26030D02*X14125D01*
G54D179*X15000Y26000D03*
X16000D03*
X17000D03*
X22000Y28000D03*
Y27000D03*
X23000Y28000D03*
Y27000D03*
X24000Y28000D03*
Y27000D03*
X25000D03*
X20000D03*
X21000D03*
X18000Y26000D03*
X19000D03*
X20000D03*
X21000D03*
X22000D03*
X23000D03*
X24000D03*
X25000D03*
M02*
